<?xml version="1.0" encoding="UTF-8"?>
<svg version="1.1" xmlns="http://www.w3.org/2000/svg" width="256" height="256">
<path d="M0 0 C1.24861313 -0.00241196 2.49722626 -0.00482391 3.78367615 -0.00730896 C6.42136145 -0.00633001 9.05677374 0.00447221 11.6940918 0.03198242 C15.06937577 0.06610192 18.44314045 0.06003125 21.81849766 0.04131985 C25.04575338 0.02819594 28.27277712 0.04646659 31.5 0.0625 C32.71047501 0.05754013 33.92095001 0.05258026 35.16810608 0.04747009 C36.29284836 0.06330643 37.41759064 0.07914276 38.57641602 0.09545898 C40.05936913 0.10475685 40.05936913 0.10475685 41.57228088 0.11424255 C44.93672281 0.77734047 46.11446982 1.93498184 48.18359375 4.62890625 C48.77632856 7.62559337 49.11776912 10.26248853 49.27734375 13.28515625 C49.32645905 14.1366626 49.37557434 14.98816895 49.42617798 15.86547852 C49.55460756 18.62043242 49.62956378 21.37152306 49.68359375 24.12890625 C49.70516541 25.05775635 49.72673706 25.98660645 49.7489624 26.94360352 C49.87930617 38.47089607 49.17893523 46.98078457 41.11914062 55.60742188 C30.27368666 65.33742957 23.81184245 66.88572488 9.64477539 66.97900391 C7.80089695 66.9955584 5.95708256 67.02284194 4.11352539 67.06103516 C1.4529497 67.1158629 -1.20612262 67.13768604 -3.8671875 67.15234375 C-4.68818436 67.17501312 -5.50918121 67.1976825 -6.35505676 67.22103882 C-10.2563514 67.20667296 -12.40263413 66.86851315 -15.83422852 64.88134766 C-18.93166316 59.79894536 -18.53043342 54.90864341 -18.48046875 49.06640625 C-18.48525238 47.84236084 -18.49003601 46.61831543 -18.4949646 45.35717773 C-18.49836403 42.77163405 -18.48915888 40.18604741 -18.46826172 37.60058594 C-18.44150091 33.64290529 -18.4680125 29.68806117 -18.5 25.73046875 C-18.49669591 23.21744166 -18.49028972 20.70441633 -18.48046875 18.19140625 C-18.4905899 17.00796631 -18.50071106 15.82452637 -18.51113892 14.60522461 C-18.44395662 9.89653976 -18.3207335 6.56943519 -16.07592773 2.38305664 C-10.87486003 -0.41596002 -5.81445745 -0.06379184 0 0 Z " fill="#FF6666" transform="translate(207.81640625,109.37109375)"/>
<path d="M0 0 C1.12474228 -0.01583633 2.24948456 -0.03167267 3.40830994 -0.04798889 C4.61878494 -0.04302902 5.82925995 -0.03806915 7.07641602 -0.03295898 C8.94790062 -0.04225685 8.94790062 -0.04225685 10.85719299 -0.05174255 C13.49634714 -0.05884828 16.13397859 -0.05759797 18.77294922 -0.04296875 C22.14719192 -0.02579057 25.51973015 -0.04926316 28.89378262 -0.08445835 C32.12134706 -0.11175983 35.34876869 -0.10169386 38.57641602 -0.09545898 C39.78486679 -0.10871719 40.99331757 -0.1219754 42.23838806 -0.13563538 C50.45163218 -0.04437018 50.45163218 -0.04437018 54.65454102 2.53588867 C56.97517549 6.53767942 57.09848252 9.56967654 57.02172852 14.12329102 C57.02414047 14.94543594 57.02655243 15.76758087 57.02903748 16.61463928 C57.02806062 18.34861079 57.01470549 20.08261411 56.98974609 21.81640625 C56.95547069 24.45950203 56.96908477 27.09924505 56.98852539 29.74243164 C56.98162519 31.4318989 56.97195123 33.12135757 56.95922852 34.81079102 C56.96666832 35.98761696 56.96666832 35.98761696 56.97425842 37.18821716 C56.82367019 44.26481071 53.79106454 48.40034402 48.82641602 53.33032227 C48.17608398 53.9787207 47.52575195 54.62711914 46.85571289 55.29516602 C46.18733398 55.95129883 45.51895508 56.60743164 44.83032227 57.28344727 C44.15807617 57.95504883 43.48583008 58.62665039 42.79321289 59.31860352 C37.06702672 64.99361225 33.711589 66.84778023 25.49047852 66.86938477 C24.61636826 66.87604156 23.742258 66.88269836 22.84165955 66.88955688 C20.99325668 66.89968015 19.14481728 66.90437401 17.29638672 66.90405273 C14.4691954 66.90842581 11.64356545 66.94474729 8.81665039 66.98266602 C7.02043177 66.98853428 5.22420574 66.99250361 3.42797852 66.99438477 C2.58308365 67.0087558 1.73818878 67.02312683 0.86769104 67.03793335 C0.07684616 67.03178009 -0.71399872 67.02562683 -1.52880859 67.01928711 C-2.22147324 67.02213715 -2.91413788 67.02498718 -3.62779236 67.02792358 C-6.59154879 66.28753852 -7.771263 64.93679388 -9.60717773 62.53344727 C-10.1151123 59.87744141 -10.1151123 59.87744141 -10.12475586 56.81860352 C-10.1373645 55.67061279 -10.14997314 54.52262207 -10.16296387 53.33984375 C-10.15486694 52.10435791 -10.14677002 50.86887207 -10.13842773 49.59594727 C-10.14225464 48.32372314 -10.14608154 47.05149902 -10.15002441 45.74072266 C-10.152747 43.05030899 -10.14737587 40.36134856 -10.12866211 37.67114258 C-10.10587135 34.22749981 -10.11899742 30.785104 -10.14295197 27.34150696 C-10.16090326 24.05127599 -10.14832494 20.76119452 -10.13842773 17.47094727 C-10.14652466 16.23546143 -10.15462158 14.99997559 -10.16296387 13.72705078 C-10.15035522 12.57906006 -10.13774658 11.43106934 -10.12475586 10.24829102 C-10.12157349 9.23887451 -10.11839111 8.22945801 -10.1151123 7.18945312 C-9.00708314 1.39553373 -5.48046458 0.03436159 0 0 Z " fill="#32FEBA" transform="translate(9.607177734375,109.466552734375)"/>
<path d="M0 0 C1.14799072 -0.01260864 2.29598145 -0.02521729 3.47875977 -0.03820801 C4.71424561 -0.03011108 5.94973145 -0.02201416 7.22265625 -0.01367188 C8.49488037 -0.01749878 9.76710449 -0.02132568 11.07788086 -0.02526855 C13.76829452 -0.02799114 16.45725496 -0.02262001 19.14746094 -0.00390625 C22.5911037 0.01888451 26.03349952 0.00575844 29.47709656 -0.01819611 C32.76732753 -0.0361474 36.057409 -0.02356908 39.34765625 -0.01367188 C40.58314209 -0.0217688 41.81862793 -0.02986572 43.09155273 -0.03820801 C44.81353882 -0.01929504 44.81353882 -0.01929504 46.5703125 0 C47.579729 0.00318237 48.58914551 0.00636475 49.62915039 0.00964355 C53.03142715 0.66029498 54.21109115 1.78248471 56.28515625 4.51757812 C56.82673645 6.44985962 56.82673645 6.44985962 56.88208008 8.48486328 C56.91082718 9.25311432 56.93957428 10.02136536 56.9691925 10.81289673 C56.97678085 11.63583221 56.9843692 12.4587677 56.9921875 13.30664062 C57.00787277 14.1651059 57.02355804 15.02357117 57.03971863 15.90805054 C57.06432938 17.72520765 57.0779233 19.54254265 57.08129883 21.35986328 C57.09749268 24.11475215 57.1828329 26.86185304 57.27148438 29.61523438 C57.50280495 44.37172352 57.50280495 44.37172352 52.06640625 50.44726562 C50.5069281 51.84329358 48.91608493 53.20573294 47.28515625 54.51757812 C46.29336711 55.53294197 45.314756 56.56163456 44.359375 57.61132812 C43.57175781 58.40539062 42.78414062 59.19945312 41.97265625 60.01757812 C41.17214844 60.83226562 40.37164062 61.64695313 39.546875 62.48632812 C34.89974863 66.65991312 30.86546156 66.84746593 24.7578125 66.88867188 C23.93188095 66.89770035 23.1059494 66.90672882 22.25498962 66.91603088 C20.51093156 66.93051537 18.76681937 66.93941565 17.02270508 66.94311523 C14.35990721 66.95502334 11.69941922 67.00423234 9.03710938 67.0546875 C7.33985503 67.06415113 5.64258649 67.07138645 3.9453125 67.07617188 C3.15246353 67.09570419 2.35961456 67.11523651 1.54273987 67.13536072 C-2.27340412 67.10433265 -4.35602772 66.72482531 -7.71679688 64.78369141 C-10.86647335 59.63506336 -10.40870968 54.62207538 -10.34375 48.70117188 C-10.34616196 47.45255875 -10.34857391 46.20394562 -10.35105896 44.91749573 C-10.35008001 42.27981043 -10.33927779 39.64439814 -10.31176758 37.00708008 C-10.27764808 33.63179611 -10.28371875 30.25803143 -10.30243015 26.88267422 C-10.31555406 23.6554185 -10.29728341 20.42839476 -10.28125 17.20117188 C-10.28620987 15.99069687 -10.29116974 14.78022186 -10.29627991 13.5330658 C-10.28044357 12.40832352 -10.26460724 11.28358124 -10.24829102 10.12475586 C-10.24209244 9.13612045 -10.23589386 8.14748505 -10.22950745 7.12889099 C-9.08100903 1.30161248 -5.49730641 0.01733128 0 0 Z " fill="#FFE14D" transform="translate(104.71484375,29.482421875)"/>
<path d="M0 0 C1.62693787 -0.01407143 1.62693787 -0.01407143 3.28674316 -0.02842712 C4.44830933 -0.01719315 5.60987549 -0.00595917 6.80664062 0.00561523 C8.00848999 0.00416 9.21033936 0.00270477 10.4486084 0.00120544 C12.98708523 0.00286384 15.52557218 0.01441827 18.06396484 0.03515625 C21.94867683 0.06410307 25.83202348 0.05576406 29.71679688 0.04272461 C32.18425142 0.04896233 34.65170166 0.05735353 37.11914062 0.06811523 C38.28070679 0.0651796 39.44227295 0.06224396 40.63903809 0.05921936 C41.72366333 0.07190353 42.80828857 0.08458771 43.92578125 0.09765625 C44.87666626 0.10305923 45.82755127 0.10846222 46.80725098 0.11402893 C50.00207195 0.58042066 51.88912416 1.57147273 54.46289062 3.50170898 C55.71604879 7.26118348 55.64461702 10.79452176 55.66601562 14.71264648 C55.6717157 15.51779694 55.67741577 16.32294739 55.68328857 17.15249634 C55.69272999 18.85547576 55.69926915 20.55847338 55.703125 22.26147461 C55.71282863 24.86010772 55.74385846 27.45794901 55.77539062 30.05639648 C55.78192129 31.7126418 55.78717151 33.36889276 55.79101562 35.02514648 C55.80336243 35.79925873 55.81570923 36.57337097 55.82843018 37.37094116 C55.799409 44.43701241 53.37867172 47.8455844 48.52148438 52.67358398 C47.77318359 53.41995117 47.02488281 54.16631836 46.25390625 54.93530273 C45.08891602 56.08192383 45.08891602 56.08192383 43.90039062 57.25170898 C43.11986328 58.0315918 42.33933594 58.81147461 41.53515625 59.61499023 C35.55175238 65.55193108 32.91842806 66.66357942 24.40429688 66.70483398 C23.50420395 66.71053406 22.60411102 66.71623413 21.67674255 66.72210693 C19.77107928 66.73156099 17.86539963 66.73809252 15.9597168 66.74194336 C13.04056413 66.75165849 10.12211261 66.78268165 7.203125 66.81420898 C5.35351982 66.820738 3.50390959 66.82598887 1.65429688 66.82983398 C0.77922989 66.84218079 -0.0958371 66.85452759 -0.99742126 66.86724854 C-1.81159012 66.86424744 -2.62575897 66.86124634 -3.46459961 66.8581543 C-4.53809914 66.86362274 -4.53809914 66.86362274 -5.63328552 66.86920166 C-8.21311404 66.37122067 -9.04130878 65.65833745 -10.53710938 63.50170898 C-10.93151855 60.92799377 -10.93151855 60.92799377 -10.95703125 57.80859375 C-10.97294312 56.64050674 -10.98885498 55.47241974 -11.00524902 54.26893616 C-11.00545044 53.00641525 -11.00565186 51.74389435 -11.00585938 50.44311523 C-11.0134729 49.14728012 -11.02108643 47.85144501 -11.02893066 46.51634216 C-11.0423767 43.7733393 -11.04394399 41.03062425 -11.03808594 38.28759766 C-11.0321903 34.77542583 -11.0627715 31.26463665 -11.10320282 27.75273228 C-11.13529776 24.39948216 -11.13096354 21.04651856 -11.13085938 17.69311523 C-11.14725464 16.43261856 -11.1636499 15.17212189 -11.18054199 13.87342834 C-11.17123657 12.70218918 -11.16193115 11.53095001 -11.15234375 10.32421875 C-11.15439819 9.29402115 -11.15645264 8.26382355 -11.15856934 7.20240784 C-10.53710938 4.50170898 -10.53710938 4.50170898 -8.34472656 2.16915894 C-5.23134581 0.32011534 -3.58635831 0.00062672 0 0 Z " fill="#32FEBA" transform="translate(10.537109375,189.498291015625)"/>
<path d="M0 0 C1.75685875 -0.01395813 1.75685875 -0.01395813 3.54920959 -0.02819824 C4.80970627 -0.01180298 6.07020294 0.00459229 7.36889648 0.02148438 C8.66568832 0.02144409 9.96248016 0.02140381 11.29856873 0.0213623 C14.04003801 0.02301395 16.78068794 0.04168274 19.52197266 0.07324219 C23.0350815 0.1129602 26.54711969 0.1172824 30.0604105 0.10977936 C33.41336966 0.10597189 36.76599036 0.12678477 40.11889648 0.14648438 C42.01267784 0.1467865 42.01267784 0.1467865 43.94471741 0.14709473 C45.11280441 0.16300659 46.28089142 0.17891846 47.484375 0.1953125 C48.51377701 0.20373169 49.54317902 0.21215088 50.60377502 0.2208252 C53.17749023 0.61523438 53.17749023 0.61523438 55.00508118 1.89289856 C56.40905957 3.95542295 56.57773113 5.11055564 56.62915039 7.5925293 C56.65151764 8.387332 56.67388489 9.1821347 56.69692993 10.00102234 C56.70664322 11.28538933 56.70664322 11.28538933 56.71655273 12.59570312 C56.72890961 13.48252274 56.74126648 14.36934235 56.7539978 15.28303528 C56.77357278 17.16168621 56.78479769 19.04043986 56.78833008 20.91918945 C56.80235909 23.77602758 56.8696058 26.62842309 56.93920898 29.484375 C57.12709407 44.77806919 57.12709407 44.77806919 53.06030273 49.48242188 C51.79715633 50.56413336 50.50262091 51.61041237 49.17749023 52.61523438 C48.02048933 53.79602257 46.87945551 54.99268591 45.75561523 56.20507812 C44.64882757 57.32352983 43.53947091 58.43944549 42.42749023 59.55273438 C41.86416992 60.12830078 41.30084961 60.70386719 40.72045898 61.296875 C35.57386918 66.46171513 31.99075529 66.77999711 24.96655273 66.81835938 C23.75882706 66.82690948 23.75882706 66.82690948 22.52670288 66.83563232 C20.82372346 66.84507374 19.12072584 66.8516129 17.41772461 66.85546875 C14.8190915 66.86517238 12.2212502 66.89620221 9.62280273 66.92773438 C7.96655742 66.93426504 6.31030646 66.93951526 4.65405273 66.94335938 C3.87994049 66.95570618 3.10582825 66.96805298 2.30825806 66.98077393 C-2.23101811 66.96213059 -5.26732038 66.53078003 -8.82250977 63.61523438 C-9.83399871 60.58076755 -9.96677782 58.48182091 -9.99951172 55.30517578 C-10.01234695 54.22039948 -10.02518219 53.13562317 -10.03840637 52.01797485 C-10.0457933 50.84608612 -10.05318024 49.67419739 -10.06079102 48.46679688 C-10.06886276 47.26211761 -10.07693451 46.05743835 -10.08525085 44.81625366 C-10.09908845 42.26586343 -10.10981205 39.71545471 -10.11767578 37.16503906 C-10.1349107 33.26266543 -10.17880413 29.36113403 -10.22290039 25.45898438 C-10.23302534 22.98242811 -10.24154206 20.50586464 -10.24829102 18.02929688 C-10.27455315 16.27753647 -10.27455315 16.27753647 -10.30134583 14.49038696 C-10.29842026 13.39930634 -10.29549469 12.30822571 -10.29248047 11.18408203 C-10.29834671 10.22716461 -10.30421295 9.27024719 -10.31025696 8.28433228 C-9.18678153 2.13634015 -5.99996736 -0.01196527 0 0 Z " fill="#FF6565" transform="translate(199.822509765625,29.384765625)"/>
<path d="M0 0 C1.75213051 -0.0238678 1.75213051 -0.0238678 3.53965759 -0.04821777 C4.8021785 -0.04841919 6.0646994 -0.04862061 7.36547852 -0.04882812 C8.66131363 -0.05644165 9.95714874 -0.06405518 11.29225159 -0.07189941 C14.03525445 -0.08534545 16.7779695 -0.08691274 19.52099609 -0.08105469 C23.03316792 -0.07515905 26.5439571 -0.10574025 30.05586147 -0.14617157 C33.40911159 -0.17826651 36.76207519 -0.17393229 40.11547852 -0.17382812 C41.37597519 -0.19022339 42.63647186 -0.20661865 43.93516541 -0.22351074 C45.10640457 -0.21420532 46.27764374 -0.2048999 47.484375 -0.1953125 C48.5145726 -0.19736694 49.5447702 -0.19942139 50.60618591 -0.20153809 C53.30688477 0.41992188 53.30688477 0.41992188 55.63546753 2.71281433 C57.90556498 6.38957308 57.93653157 9.74064065 57.94360352 13.93945312 C57.9600164 15.1655555 57.9600164 15.1655555 57.97676086 16.41642761 C57.992588 18.14189368 57.99783332 19.86748524 57.99316406 21.59301758 C57.99437681 24.2152108 58.05410959 26.83178929 58.11743164 29.453125 C58.26950824 43.45782951 58.26950824 43.45782951 54.22094727 48.15429688 C52.94567322 49.27715419 51.64025583 50.36671057 50.30688477 51.41992188 C49.06812647 52.6762859 47.84277056 53.94600416 46.63110352 55.22851562 C45.4214653 56.44075242 44.20923129 57.65040465 42.99438477 58.85742188 C42.37499023 59.48068359 41.7555957 60.10394531 41.11743164 60.74609375 C40.52381836 61.33841797 39.93020508 61.93074219 39.31860352 62.54101562 C38.78710693 63.07138428 38.25561035 63.60175293 37.70800781 64.14819336 C34.29735801 67.24386766 30.32201929 66.61832187 25.97485352 66.65820312 C25.14609207 66.66627487 24.31733063 66.67434662 23.4634552 66.68266296 C21.70742892 66.69650408 19.95137573 66.70722612 18.1953125 66.71508789 C15.51518467 66.73228839 12.83629449 66.77617113 10.15649414 66.8203125 C8.450123 66.83044067 6.74374138 66.83895639 5.03735352 66.84570312 C4.23823044 66.86321121 3.43910736 66.8807193 2.61576843 66.89875793 C1.48483513 66.89436958 1.48483513 66.89436958 0.33105469 66.88989258 C-0.32687576 66.89575882 -0.98480621 66.90162506 -1.66267395 66.90766907 C-4.80141648 66.1536887 -6.45252387 64.70714083 -8.69311523 62.41992188 C-9.3145752 59.71922302 -9.3145752 59.71922302 -9.30834961 56.59741211 C-9.31765503 55.42617294 -9.32696045 54.25493378 -9.33654785 53.04820251 C-9.32015259 51.78770584 -9.30375732 50.52720917 -9.28686523 49.22851562 C-9.28690552 47.93172379 -9.2869458 46.63493195 -9.2869873 45.29884338 C-9.28533566 42.5573741 -9.26666687 39.81672417 -9.23510742 37.07543945 C-9.19538941 33.56233061 -9.19106721 30.05029242 -9.19857025 26.53700161 C-9.20237772 23.18404245 -9.18156484 19.83142175 -9.16186523 16.47851562 C-9.16166382 15.21599472 -9.1614624 13.95347382 -9.16125488 12.6526947 C-9.14534302 11.4846077 -9.12943115 10.31652069 -9.11303711 9.11303711 C-9.10461792 8.0836351 -9.09619873 7.05423309 -9.08752441 5.99363708 C-8.69311523 3.41992188 -8.69311523 3.41992188 -7.52268982 1.59034729 C-4.95326662 -0.05337811 -3.04112461 0.0248725 0 0 Z " fill="#32FEBA" transform="translate(8.693115234375,29.580078125)"/>
<path d="M0 0 C9.57 0 19.14 0 29 0 C33.46298423 4.46298423 33.78171555 6.74568331 34.09375 12.65625 C34.1428653 13.50775635 34.19198059 14.3592627 34.24258423 15.23657227 C34.37101381 17.99152617 34.44597003 20.74261681 34.5 23.5 C34.52157166 24.4288501 34.54314331 25.3577002 34.56536865 26.31469727 C34.69571242 37.84198982 33.99534148 46.35187832 25.93554688 54.97851562 C16.65037717 63.30871305 12.96004256 66 0 66 C0 44.22 0 22.44 0 0 Z " fill="#E62E6A" transform="translate(223,110)"/>
<path d="M0 0 C9.9 0 19.8 0 30 0 C33.37707407 3.37707407 33.37707407 3.37707407 33.45166016 6.97729492 C33.4740274 7.77209763 33.49639465 8.56690033 33.5194397 9.38578796 C33.52915298 10.67015495 33.52915298 10.67015495 33.5390625 11.98046875 C33.55141937 12.86728836 33.56377625 13.75410797 33.57650757 14.6678009 C33.59608254 16.54645184 33.60730745 18.42520549 33.61083984 20.30395508 C33.62486885 23.16079321 33.69211557 26.01318871 33.76171875 28.86914062 C33.94960383 44.16283482 33.94960383 44.16283482 29.8828125 48.8671875 C28.6196661 49.94889898 27.32513068 50.995178 26 52 C24.8429991 53.18078819 23.70196528 54.37745154 22.578125 55.58984375 C21.47133733 56.70829545 20.36198067 57.82421112 19.25 58.9375 C18.68667969 59.51306641 18.12335938 60.08863281 17.54296875 60.68164062 C13.35916832 64.88027723 13.35916832 64.88027723 10 66 C6.7 66 3.4 66 0 66 C0 44.22 0 22.44 0 0 Z " fill="#E62E6A" transform="translate(223,30)"/>
<path d="M0 0 C9.57 0 19.14 0 29 0 C33.50270158 4.50270158 33.50270158 4.50270158 33.59692383 7.96728516 C33.62567093 8.73553619 33.65441803 9.50378723 33.68403625 10.2953186 C33.6916246 11.11825409 33.69921295 11.94118958 33.70703125 12.7890625 C33.72271652 13.64752777 33.73840179 14.50599304 33.75456238 15.39047241 C33.77917313 17.20762953 33.79276705 19.02496452 33.79614258 20.84228516 C33.81233643 23.59717403 33.89767665 26.34427491 33.98632812 29.09765625 C34.2176487 43.8541454 34.2176487 43.8541454 28.78125 49.9296875 C27.22177185 51.32571546 25.63092868 52.68815482 24 54 C23.00821086 55.01536384 22.02959975 56.04405643 21.07421875 57.09375 C20.28660156 57.8878125 19.49898437 58.681875 18.6875 59.5 C17.88699219 60.3146875 17.08648437 61.129375 16.26171875 61.96875 C10.68352166 66.97852977 8.20319296 66 0 66 C0 44.22 0 22.44 0 0 Z " fill="#FFBA32" transform="translate(128,30)"/>
<path d="M0 0 C27 0 27 0 32 3 C33.25315817 6.7594745 33.1817264 10.29281278 33.203125 14.2109375 C33.20882507 15.01608795 33.21452515 15.8212384 33.22039795 16.65078735 C33.22983936 18.35376678 33.23637852 20.0567644 33.24023438 21.75976562 C33.24993801 24.35839873 33.28096784 26.95624003 33.3125 29.5546875 C33.31903067 31.21093281 33.32428089 32.86718377 33.328125 34.5234375 C33.3404718 35.29754974 33.3528186 36.07166199 33.36553955 36.86923218 C33.33651838 43.93530343 30.91578109 47.34387542 26.05859375 52.171875 C25.31029297 52.91824219 24.56199219 53.66460937 23.79101562 54.43359375 C23.01435547 55.19800781 22.23769531 55.96242187 21.4375 56.75 C20.65697266 57.52988281 19.87644531 58.30976563 19.07226562 59.11328125 C11.85153551 66.27794012 11.9698182 66 0 66 C0 44.22 0 22.44 0 0 Z " fill="#28CC95" transform="translate(33,190)"/>
<path d="M0 0 C9.24 0 18.48 0 28 0 C33.62613801 5.62613801 33.62613801 5.62613801 33.63110352 8.96069336 C33.64363663 9.70173813 33.65616974 10.4427829 33.66908264 11.20628357 C33.65582443 11.99285843 33.64256622 12.77943329 33.62890625 13.58984375 C33.63131821 14.41198868 33.63373016 15.23413361 33.63621521 16.08119202 C33.63523836 17.81516353 33.62188322 19.54916684 33.59692383 21.28295898 C33.56264842 23.92605476 33.5762625 26.56579779 33.59570312 29.20898438 C33.58880293 30.89845163 33.57912896 32.58791031 33.56640625 34.27734375 C33.57136612 35.06189438 33.57632599 35.84644501 33.58143616 36.6547699 C33.43084792 43.73136344 30.39824227 47.86689676 25.43359375 52.796875 C24.78326172 53.44527344 24.13292969 54.09367187 23.46289062 54.76171875 C22.79451172 55.41785156 22.12613281 56.07398438 21.4375 56.75 C20.42913086 57.75740234 20.42913086 57.75740234 19.40039062 58.78515625 C12.42197556 65.70120217 11.49601778 66 0 66 C0 44.22 0 22.44 0 0 Z " fill="#28CC96" transform="translate(33,110)"/>
<path d="M0 0 C9.57 0 19.14 0 29 0 C33.1397322 5.17466525 33.62632148 7.34637943 33.63671875 13.51953125 C33.64766068 14.33693283 33.6586026 15.15433441 33.6698761 15.99650574 C33.68570323 17.7219718 33.69094855 19.44756337 33.6862793 21.1730957 C33.68749204 23.79528893 33.74722483 26.41186742 33.81054688 29.03320312 C33.96262347 43.03790763 33.96262347 43.03790763 29.9140625 47.734375 C28.63878846 48.85723231 27.33337106 49.9467887 26 51 C24.7612417 52.25636402 23.5358858 53.52608229 22.32421875 54.80859375 C21.11458054 56.02083054 19.90234652 57.23048278 18.6875 58.4375 C18.06810547 59.06076172 17.44871094 59.68402344 16.81054688 60.32617188 C15.92012695 61.2146582 15.92012695 61.2146582 15.01171875 62.12109375 C14.48022217 62.6514624 13.94872559 63.18183105 13.40112305 63.72827148 C9.13640601 67.59913942 7.11274239 66 0 66 C0 44.22 0 22.44 0 0 Z " fill="#29CB95" transform="translate(33,30)"/>
<path d="M0 0 C1.14799072 -0.01260864 2.29598145 -0.02521729 3.47875977 -0.03820801 C4.71424561 -0.03011108 5.94973145 -0.02201416 7.22265625 -0.01367188 C8.49488037 -0.01749878 9.76710449 -0.02132568 11.07788086 -0.02526855 C13.76829452 -0.02799114 16.45725496 -0.02262001 19.14746094 -0.00390625 C22.5911037 0.01888451 26.03349952 0.00575844 29.47709656 -0.01819611 C32.76732753 -0.0361474 36.057409 -0.02356908 39.34765625 -0.01367188 C40.58314209 -0.0217688 41.81862793 -0.02986572 43.09155273 -0.03820801 C44.81353882 -0.01929504 44.81353882 -0.01929504 46.5703125 0 C47.579729 0.00318237 48.58914551 0.00636475 49.62915039 0.00964355 C53.01977683 0.65806697 54.20731801 1.8038432 56.28515625 4.51757812 C56.78515625 8.01757812 56.78515625 8.01757812 56.28515625 11.51757812 C54.20731801 14.23131305 53.01977683 15.37708928 49.62915039 16.0255127 C48.11502563 16.03028625 48.11502563 16.03028625 46.5703125 16.03515625 C44.84832642 16.05406921 44.84832642 16.05406921 43.09155273 16.07336426 C41.85606689 16.06526733 40.62058105 16.05717041 39.34765625 16.04882812 C38.07543213 16.05265503 36.80320801 16.05648193 35.49243164 16.0604248 C32.80201798 16.06314739 30.11305754 16.05777626 27.42285156 16.0390625 C23.9792088 16.01627174 20.53681298 16.02939781 17.09321594 16.05335236 C13.80298497 16.07130365 10.5129035 16.05872533 7.22265625 16.04882812 C5.98717041 16.05692505 4.75168457 16.06502197 3.47875977 16.07336426 C2.33076904 16.06075562 1.18277832 16.04814697 0 16.03515625 C-1.0094165 16.03197388 -2.01883301 16.0287915 -3.05883789 16.0255127 C-6.44946433 15.37708928 -7.63700551 14.23131305 -9.71484375 11.51757812 C-10.21484375 8.01757812 -10.21484375 8.01757812 -9.71484375 4.51757812 C-6.77662035 0.68014781 -4.75664327 0.0149962 0 0 Z " fill="#FF884D" transform="translate(104.71484375,-0.517578125)"/>
<path d="M0 0 C1.75697205 -0.01418472 1.75697205 -0.01418472 3.54943848 -0.02865601 C5.44792542 -0.01954697 5.44792542 -0.01954697 7.38476562 -0.01025391 C8.68297241 -0.01312408 9.9811792 -0.01599426 11.31872559 -0.01895142 C14.06594553 -0.02337316 16.8128727 -0.016949 19.56005859 -0.00292969 C23.08098403 0.01416268 26.60122345 0.00432061 30.12212372 -0.01364708 C33.48055934 -0.02709598 36.83881051 -0.01767904 40.19726562 -0.01025391 C41.46292358 -0.0163266 42.72858154 -0.02239929 44.03259277 -0.02865601 C45.20390747 -0.01919952 46.37522217 -0.00974304 47.58203125 0 C49.13065857 0.00358017 49.13065857 0.00358017 50.71057129 0.00723267 C53.29101562 0.38818359 53.29101562 0.38818359 55.1229248 1.77767944 C56.66322765 3.90137059 56.69206232 5.28351369 56.66601562 7.88818359 C56.67761719 9.04833984 56.67761719 9.04833984 56.68945312 10.23193359 C56.18203547 12.97795852 55.50556441 13.70514793 53.29101562 15.38818359 C50.71730042 15.78259277 50.71730042 15.78259277 47.59790039 15.80810547 C46.42981339 15.82401733 45.26172638 15.8399292 44.0582428 15.85632324 C42.79572189 15.85652466 41.53320099 15.85672607 40.23242188 15.85693359 C38.93658676 15.86454712 37.64075165 15.87216064 36.3056488 15.88000488 C33.56264594 15.89345092 30.81993089 15.89501821 28.0769043 15.88916016 C24.56473247 15.88326452 21.05394329 15.91384572 17.54203892 15.95427704 C14.1887888 15.98637198 10.8358252 15.98203776 7.48242188 15.98193359 C6.2219252 15.99832886 4.96142853 16.01472412 3.66273499 16.03161621 C2.49149582 16.02231079 1.32025665 16.01300537 0.11352539 16.00341797 C-0.91667221 16.00547241 -1.94686981 16.00752686 -3.00828552 16.00964355 C-5.70898438 15.38818359 -5.70898438 15.38818359 -8.07679749 13.07629395 C-9.70898438 10.38818359 -9.70898438 10.38818359 -9.64648438 6.76318359 C-8.02284841 0.91809413 -5.92128088 0.01368902 0 0 Z " fill="#B32353" transform="translate(199.708984375,-0.38818359375)"/>
<path d="M0 0 C1.75213051 -0.0238678 1.75213051 -0.0238678 3.53965759 -0.04821777 C4.8021785 -0.04841919 6.0646994 -0.04862061 7.36547852 -0.04882812 C8.66131363 -0.05644165 9.95714874 -0.06405518 11.29225159 -0.07189941 C14.03525445 -0.08534545 16.7779695 -0.08691274 19.52099609 -0.08105469 C23.03316792 -0.07515905 26.5439571 -0.10574025 30.05586147 -0.14617157 C33.40911159 -0.17826651 36.76207519 -0.17393229 40.11547852 -0.17382812 C41.37597519 -0.19022339 42.63647186 -0.20661865 43.93516541 -0.22351074 C45.10640457 -0.21420532 46.27764374 -0.2048999 47.484375 -0.1953125 C48.5145726 -0.19736694 49.5447702 -0.19942139 50.60618591 -0.20153809 C53.30688477 0.41992188 53.30688477 0.41992188 55.67469788 2.73181152 C57.30688477 5.41992188 57.30688477 5.41992188 57.24438477 9.04492188 C56.02498397 13.43476474 56.02498397 13.43476474 53.30688477 15.41992188 C50.72644043 15.8008728 50.72644043 15.8008728 47.59790039 15.80810547 C45.84092834 15.82229019 45.84092834 15.82229019 44.04846191 15.83676147 C42.78280396 15.83068878 41.517146 15.82461609 40.21313477 15.81835938 C38.26582458 15.82266464 38.26582458 15.82266464 36.2791748 15.82705688 C33.53195486 15.83147863 30.78502769 15.82505447 28.0378418 15.81103516 C24.51691636 15.79394279 20.99667694 15.80378486 17.47577667 15.82175255 C14.11734105 15.83520145 10.75908988 15.82578451 7.40063477 15.81835938 C6.13497681 15.82443207 4.86931885 15.83050476 3.56530762 15.83676147 C2.39399292 15.82730499 1.22267822 15.81784851 0.01586914 15.80810547 C-1.53275818 15.8045253 -1.53275818 15.8045253 -3.1126709 15.8008728 C-5.69311523 15.41992188 -5.69311523 15.41992188 -7.52502441 14.03042603 C-9.06532726 11.90673488 -9.09416193 10.52459178 -9.06811523 7.91992188 C-9.07584961 7.14648438 -9.08358398 6.37304688 -9.09155273 5.57617188 C-8.13416724 0.39502685 -4.71602765 0.03857106 0 0 Z " fill="#28CB94" transform="translate(8.693115234375,-0.419921875)"/>
<path d="M0 0 C1.94326172 0.01933594 1.94326172 0.01933594 3.92578125 0.0390625 C5.28907324 0.07248134 6.65235449 0.10634109 8.015625 0.140625 C9.39450564 0.16069793 10.77341412 0.17894733 12.15234375 0.1953125 C15.52373638 0.24246484 18.89476873 0.3142076 22.265625 0.390625 C22.265625 5.340625 22.265625 10.290625 22.265625 15.390625 C18.20809417 15.48260933 14.15322835 15.56219095 10.09521484 15.61035156 C8.7158582 15.63043142 7.33658631 15.65770166 5.95751953 15.69238281 C3.97205521 15.74105317 1.98596246 15.76148918 0 15.78125 C-1.19399414 15.80219727 -2.38798828 15.82314453 -3.61816406 15.84472656 C-6.734375 15.390625 -6.734375 15.390625 -9.12402344 13.58496094 C-11.4700763 10.38812602 -11.28624268 8.25369874 -10.734375 4.390625 C-7.60191229 0.1221934 -5.14377436 -0.09024166 0 0 Z " fill="#FFBA33" transform="translate(105.734375,-0.390625)"/>
<path d="M0 0 C1.29873047 0.00966797 2.59746094 0.01933594 3.93554688 0.02929688 C5.30729764 0.0543629 6.67904243 0.07975774 8.05078125 0.10546875 C9.43423049 0.12051855 10.81769526 0.13420645 12.20117188 0.14648438 C15.58870851 0.18189417 18.97604362 0.23570174 22.36328125 0.29296875 C22.36328125 5.24296875 22.36328125 10.19296875 22.36328125 15.29296875 C18.30534187 15.40796073 14.25156471 15.50741609 10.19287109 15.56762695 C8.81344423 15.59272805 7.43414983 15.62681748 6.05517578 15.67016602 C4.06992253 15.7309975 2.08368766 15.75654812 0.09765625 15.78125 C-1.69333496 15.82052612 -1.69333496 15.82052612 -3.52050781 15.8605957 C-6.63671875 15.29296875 -6.63671875 15.29296875 -9.06152344 12.98901367 C-10.63671875 10.29296875 -10.63671875 10.29296875 -10.57421875 6.66796875 C-8.81073578 0.31943004 -6.36257781 -0.08335255 0 0 Z " fill="#E62D6A" transform="translate(200.63671875,-0.29296875)"/>
<path d="M0 0 C4.05793938 -0.11499198 8.11171654 -0.21444734 12.17041016 -0.2746582 C13.54983702 -0.2997593 14.92913142 -0.33384873 16.30810547 -0.37719727 C18.29335872 -0.43802875 20.27959359 -0.46357937 22.265625 -0.48828125 C24.05661621 -0.52755737 24.05661621 -0.52755737 25.88378906 -0.56762695 C29 -0 29 -0 31.42480469 2.30395508 C33 5 33 5 32.9375 8.625 C31.69367454 13.10277165 31.69367454 13.10277165 29 15 C25.99731445 15.34057617 25.99731445 15.34057617 22.36328125 15.29296875 C21.06455078 15.28330078 19.76582031 15.27363281 18.42773438 15.26367188 C17.05598361 15.23860585 15.68423882 15.21321101 14.3125 15.1875 C12.92905076 15.1724502 11.54558599 15.1587623 10.16210938 15.14648438 C6.77457274 15.11107458 3.38723763 15.05726701 0 15 C0 10.05 0 5.1 0 0 Z " fill="#1F9970" transform="translate(33,0)"/>
</svg>
