<?xml version="1.0" encoding="UTF-8"?>
<svg version="1.1" xmlns="http://www.w3.org/2000/svg" width="600" height="450">
<path d="M0 0 C198 0 396 0 600 0 C600 148.5 600 297 600 450 C402 450 204 450 0 450 C0 301.5 0 153 0 0 Z " fill="#FEFEFE" transform="translate(0,0)"/>
<path d="M0 0 C73.92 0 147.84 0 224 0 C224 5.43854106 223.96795977 10.48997481 223.49682617 15.84790039 C223.38638474 17.12536636 223.2759433 18.40283234 223.16215515 19.7190094 C223.03919816 21.09523441 222.91613289 22.47144976 222.79296875 23.84765625 C222.66532191 25.30510269 222.53799449 26.76257714 222.41096497 28.22007751 C222.14343601 31.28063846 221.8734056 34.34096401 221.60131836 37.40112305 C221.26195751 41.21791108 220.92661303 45.0350359 220.59295654 48.85232639 C218.91019905 68.10000063 217.13956654 87.33858921 215.32254028 106.57400513 C214.57380407 114.52701611 213.84781691 122.48209821 213.125 130.4375 C213.00526825 131.75196609 213.00526825 131.75196609 212.88311768 133.09298706 C211.7993564 145.00004227 210.74157694 156.9092202 209.703125 168.8203125 C209.59277924 170.08478714 209.48243347 171.34926178 209.3687439 172.65205383 C208.82675182 178.86669326 208.28690299 185.08150755 207.75048828 191.29663086 C206.63043854 204.21331178 205.42155875 217.11283464 204 230 C203.33806641 230.17539307 202.67613281 230.35078613 201.99414062 230.53149414 C190.25156287 233.64998498 178.52579768 236.80271747 166.875 240.25 C162.5857103 241.50824629 158.29351211 242.75624013 154 244 C153.23578735 244.22163818 152.47157471 244.44327637 151.6842041 244.67163086 C146.36772435 246.21091882 141.04588351 247.7298564 135.71832275 249.23034668 C133.91938485 249.73968963 132.12194159 250.25434411 130.32611084 250.77453613 C127.78373525 251.50989927 125.23655845 252.22570082 122.6875 252.9375 C121.93002472 253.16105164 121.17254944 253.38460327 120.39212036 253.6149292 C113.34491361 255.54284145 107.56920108 254.62084709 100.55859375 252.58203125 C99.57342773 252.29996826 98.58826172 252.01790527 97.57324219 251.72729492 C96.0210498 251.27447144 96.0210498 251.27447144 94.4375 250.8125 C84.77679884 248.04356876 75.09274088 245.41704725 65.34936523 242.9543457 C64.45548096 242.72577881 63.56159668 242.49721191 62.640625 242.26171875 C61.86235352 242.06537842 61.08408203 241.86903809 60.28222656 241.66674805 C58 241 58 241 55.59643555 240.0246582 C52.70440754 238.88334729 49.83023199 238.10670928 46.81640625 237.34375 C45.64142578 237.04339844 44.46644531 236.74304688 43.25585938 236.43359375 C42.03705078 236.12550781 40.81824219 235.81742188 39.5625 235.5 C37.14663594 234.88738301 34.73125347 234.27286304 32.31640625 233.65625 C31.24849854 233.38619141 30.18059082 233.11613281 29.08032227 232.83789062 C26.008499 232.00231185 23.0155279 231.01785601 20 230 C18.44585947 213.66611627 16.92366811 197.33018092 15.5 180.984375 C15.43839691 180.27835648 15.37679382 179.57233795 15.31332397 178.84492493 C14.74801225 172.36591176 14.1842589 165.8867652 13.625 159.40722656 C12.35635972 144.72018825 11.04856834 130.04507955 9.4375 115.390625 C8.19744027 104.10818559 7.18304779 92.8234871 6.2833252 81.50939941 C5.7715296 75.1700579 5.23007639 68.83320447 4.69335175 62.49593353 C4.28980227 57.72400349 3.88968726 52.9517844 3.48907089 48.17960739 C3.14519739 44.08496113 2.80037574 39.99039879 2.45361328 35.89599609 C2.11196692 31.86145973 1.77275319 27.82672548 1.435215 23.79184341 C1.30770975 22.27279459 1.17933624 20.75381836 1.05004501 19.2349205 C0.87072253 17.12669051 0.69452404 15.0182207 0.51904297 12.90966797 C0.41848602 11.71630829 0.31792908 10.52294861 0.21432495 9.29342651 C0.01310216 6.20133452 0 3.09863252 0 0 Z " fill="#0C74B7" transform="translate(346,138)"/>
<path d="M0 0 C73.92 0 147.84 0 224 0 C222.85091103 21.83269036 222.85091103 21.83269036 221.87890625 32.33203125 C221.77408432 33.49594894 221.66926239 34.65986664 221.56126404 35.85905457 C221.23164929 39.5105118 220.89719681 43.16150549 220.5625 46.8125 C220.34277446 49.23760083 220.12337197 51.66273095 219.90429688 54.08789062 C219.11485009 62.81322463 218.31975576 71.53803689 217.51489258 80.26196289 C215.61891011 100.87033674 213.87868554 121.49269971 212.10717773 142.11206055 C210.55324368 160.19472107 208.99195694 178.27650822 207.3515625 196.3515625 C207.26054103 197.35736075 207.26054103 197.35736075 207.16768074 198.38347816 C206.21149381 208.93335223 205.16679871 219.47135754 204 230 C192.05999669 233.58648009 180.11508248 237.05105277 168 240 C159.81310377 241.99610074 151.7077479 244.17886161 143.625 246.5625 C142.63113281 246.85447266 141.63726562 247.14644531 140.61328125 247.44726562 C136.84877773 248.55667229 133.08571392 249.6696776 129.33105469 250.81201172 C126.89097243 251.55409859 124.4461764 252.27830839 122 253 C121.30084473 253.21986572 120.60168945 253.43973145 119.88134766 253.66625977 C110.91604485 256.27468505 102.69679093 253.27744635 94 250.875 C92.85499023 250.56296631 91.70998047 250.25093262 90.53027344 249.92944336 C82.1118099 247.62079972 73.7334701 245.1863901 65.36376953 242.70776367 C55.615996 239.84185726 45.80122884 237.24015064 35.97363281 234.66430664 C34.15750488 234.18658813 34.15750488 234.18658813 32.3046875 233.69921875 C31.23202637 233.41908936 30.15936523 233.13895996 29.05419922 232.8503418 C25.99697175 231.99915688 23.00141097 231.02943279 20 230 C16.65081721 201.92822363 14.35876248 173.78477039 12.1484375 145.60546875 C11.76649218 140.73691049 11.38392423 135.86840264 11 131 C10.90722778 129.82358948 10.81445557 128.64717896 10.71887207 127.43511963 C10.45402883 124.09838719 10.18481334 120.76203892 9.9140625 117.42578125 C9.836185 116.43909958 9.7583075 115.45241791 9.67807007 114.43583679 C9.6033548 113.5254213 9.52863953 112.6150058 9.45166016 111.67700195 C9.3565062 110.49627861 9.3565062 110.49627861 9.25942993 109.29170227 C8.97989465 106.82239721 8.49997236 104.43328376 8 102 C7.77929973 99.918142 7.58997753 97.83285748 7.421875 95.74609375 C7.26199097 93.79437256 7.26199097 93.79437256 7.09887695 91.80322266 C6.98253184 90.34798599 6.86624147 88.89274495 6.75 87.4375 C6.55900698 85.08407159 6.3670279 82.7307248 6.17500305 80.37738037 C6.03183246 78.62207752 5.88901419 76.8667459 5.74650574 75.11138916 C5.13360819 67.5794147 4.50082885 60.04918749 3.86378098 52.51922035 C3.51836805 48.43386994 3.1743928 44.34839814 2.83027458 40.2629385 C2.54328795 36.85715196 2.25548143 33.45143849 1.96594238 30.04586792 C1.63729445 26.17924691 1.31267537 22.3122928 0.98828125 18.4453125 C0.88842422 17.27796066 0.7885672 16.11060883 0.6856842 14.90788269 C0.59516281 13.82211441 0.50464142 12.73634613 0.41137695 11.61767578 C0.3316011 10.67368927 0.25182526 9.72970276 0.16963196 8.7571106 C-0.00965723 5.84303633 0 2.91958446 0 0 Z " fill="#E44E27" transform="translate(32,138)"/>
<path d="M0 0 C46.2 0 92.4 0 140 0 C139 25 139 25 138 29 C135.61889162 30.20106349 133.43450258 31.12372824 130.9375 32 C129.54987151 32.51971286 128.16313937 33.04182568 126.77734375 33.56640625 C126.11460449 33.81406738 125.45186523 34.06172852 124.76904297 34.31689453 C122.15056264 35.32800521 119.69587408 36.5743692 117.2109375 37.87109375 C108.34684033 42.39710803 99.26019842 46.36625125 90 50 C85.38 51.98 80.76 53.96 76 56 C105.205 56.495 105.205 56.495 135 57 C133.91955484 85.0915742 133.91955484 85.0915742 132.50830078 94.3203125 C131.42396258 102.17004609 131.00123594 110.09876041 130.4375 118 C130.24905594 120.60918825 130.05927158 123.21826039 129.86671448 125.82714844 C129.74838926 127.43308226 129.63244815 129.03919432 129.51939392 130.64550781 C129.19097626 135.1355404 128.68807812 139.55045266 128 144 C113.90037383 148.07290627 99.7916656 152.1033651 85.625 155.9375 C84.54557129 156.23148682 83.46614258 156.52547363 82.35400391 156.82836914 C80.38537519 157.35761256 78.41354383 157.87515943 76.43798828 158.37792969 C74.60552064 158.84549704 72.78386182 159.35575176 70.96875 159.88671875 C66.01080513 160.07590349 61.5643947 158.36413937 56.875 156.875 C54.72235403 156.21677322 52.56868804 155.56187394 50.4140625 154.91015625 C49.33801758 154.58418457 48.26197266 154.25821289 47.15332031 153.92236328 C41.79714551 152.35565312 36.38207803 151.04418214 30.94873047 149.77490234 C24.49954894 148.23377373 18.26563671 146.16237632 12 144 C11.56611753 139.50231585 11.13918456 135.00403805 10.71826172 130.50512695 C10.57459217 128.97956209 10.42913179 127.45416465 10.28173828 125.92895508 C10.06834829 123.71739284 9.86173542 121.50527787 9.65625 119.29296875 C9.59062866 118.62790817 9.52500732 117.9628476 9.45739746 117.27763367 C8.9269014 111.4495154 9 105.93322715 9 100 C18.24 100 27.48 100 37 100 C37.495 103.774375 37.495 103.774375 38 107.625 C38.15662109 108.79603271 38.15662109 108.79603271 38.31640625 109.99072266 C38.83233976 114.02298871 39.10284804 117.92464625 39 122 C40.12277344 122.25394531 41.24554688 122.50789063 42.40234375 122.76953125 C43.91423977 123.11641575 45.42594632 123.46412675 46.9375 123.8125 C47.7222168 123.99192139 48.50693359 124.17134277 49.31542969 124.35620117 C53.25746001 125.27789008 56.99191433 126.28378719 60.75 127.8125 C72.43651126 131.79653793 85.88243996 126.01387894 97.05151367 122.53491211 C99 122 99 122 101 122 C102.32977167 110.03205501 103.11046711 98.00869399 104 86 C71.99 86 39.98 86 7 86 C4.75 64.625 4.75 64.625 5 57 C17.45359472 51.34548717 30.03421462 46.00943263 42.65649414 40.74536133 C43.29923782 40.47715073 43.94198151 40.20894012 44.60420227 39.93260193 C46.35263371 39.2033829 48.10158869 38.4754195 49.85058594 37.74755859 C55.91283729 35.19439342 61.95390173 32.59118497 68 30 C35.33 29.505 35.33 29.505 2 29 C-0.35007996 19.59968016 0.38727542 9.68188549 0 0 Z " fill="#E6E9EA" transform="translate(388,185)"/>
<path d="M0 0 C46.2 0 92.4 0 140 0 C139 22 139 22 138 28 C102.36 28 66.72 28 30 28 C30.33 28.99 30.66 29.98 31 31 C31.66 39.58 32.32 48.16 33 57 C66.66 57 100.32 57 135 57 C135 63.91973338 134.91419304 70.48894131 134.23046875 77.3203125 C134.14970596 78.17089737 134.06894318 79.02148224 133.98573303 79.89784241 C133.72434311 82.64070109 133.45593437 85.38282268 133.1875 88.125 C133.00496489 90.02899827 132.82300478 91.93305175 132.64160156 93.8371582 C132.27438597 97.6896247 131.90512615 101.54188706 131.53466797 105.39404297 C130.74320413 113.65580213 129.99592176 121.92152836 129.25 130.1875 C129.12140157 131.6075904 128.99274151 133.02767523 128.86401367 134.44775391 C128.57552963 137.63179288 128.28750883 140.81587285 128 144 C114.52323646 147.69645625 101.05811472 151.36936784 87.41333008 154.40112305 C86.60790771 154.58457275 85.80248535 154.76802246 84.97265625 154.95703125 C83.92476929 155.18869995 83.92476929 155.18869995 82.85571289 155.42504883 C80.69540349 155.99823657 80.69540349 155.99823657 78 158 C70.90048854 159.97208652 64.55866232 158.87445515 57.6875 156.8125 C56.08730983 156.35001729 54.48704736 155.8877847 52.88671875 155.42578125 C52.07509277 155.18811035 51.2634668 154.95043945 50.42724609 154.70556641 C46.62805384 153.60119449 42.8139321 152.55209029 39 151.5 C37.52335565 151.09013852 36.04679362 150.67998035 34.5703125 150.26953125 C33.46091309 149.96136475 33.46091309 149.96136475 32.32910156 149.64697266 C25.55273438 147.76464844 18.77636719 145.88232422 12 144 C10.42622516 129.01565447 9.16835479 114.02170445 8 99 C17.57 99 27.14 99 37 99 C37.66602604 102.33013019 38.14933567 105.10823693 38.31640625 108.42578125 C38.37924805 109.61977539 38.37924805 109.61977539 38.44335938 110.83789062 C38.48267578 111.65451172 38.52199219 112.47113281 38.5625 113.3125 C38.62727539 114.56643555 38.62727539 114.56643555 38.69335938 115.84570312 C38.79885307 117.89696935 38.89987315 119.9484648 39 122 C39.89525391 122.12955078 39.89525391 122.12955078 40.80859375 122.26171875 C45.36954916 123.00041732 49.79111952 123.89079586 54.19921875 125.28125 C54.93019775 125.51110596 55.66117676 125.74096191 56.41430664 125.9777832 C57.85468749 126.44020033 59.2904822 126.91723596 60.72045898 127.41088867 C69.86940044 130.34463987 77.89466267 127.66538353 86.8125 124.9375 C88.65086439 124.37921978 90.49066398 123.8256384 92.33203125 123.27734375 C93.13358643 123.03234131 93.9351416 122.78733887 94.76098633 122.53491211 C97 122 97 122 101 122 C101.07347656 120.25589844 101.07347656 120.25589844 101.1484375 118.4765625 C101.22365618 116.85936092 101.29919496 115.2421742 101.375 113.625 C101.4059375 112.86960937 101.436875 112.11421875 101.46875 111.3359375 C101.8976513 102.47197725 103.01271406 93.88557343 104 85 C71.99 85 39.98 85 7 85 C0 20.6 0 20.6 0 0 Z " fill="#EEE8E6" transform="translate(74,185)"/>
<path d="M0 0 C30.03 0 60.06 0 91 0 C91 15.46153846 91 15.46153846 90.125 21.6875 C88.95013527 30.88711045 88.4896809 40.12003103 88 49.375 C87.26656208 63.08388644 86.44862888 76.75458157 84.52514648 90.35839844 C83.28938525 99.15642535 82.53906426 107.88121353 82.0625 116.75 C81.43137402 127.65024691 80.47487409 138.46891483 79.18261719 149.31274414 C77.33443675 165.16381577 76.22097838 181.09063868 75 197 C74.25210205 196.97236572 73.5042041 196.94473145 72.73364258 196.91625977 C69.56472574 197.01333385 67.10292745 198.00363666 64.18115234 199.17138672 C60.47229106 200.58037208 56.64352501 201.54453275 52.8125 202.5625 C47.0549125 204.05400713 47.0549125 204.05400713 41.46875 206.0625 C37.30776594 207.64262053 32.8856636 208.1055164 28.50195312 208.76757812 C24.00854389 209.49700151 19.99897028 210.63180484 15.77026367 212.31567383 C13.64913719 213.13563212 11.53934972 213.67222094 9.3125 214.125 C8.60738281 214.27195312 7.90226562 214.41890625 7.17578125 214.5703125 C6.45777344 214.71210938 5.73976563 214.85390625 5 215 C3.35 215.33 1.7 215.66 0 216 C0 207.09 0 198.18 0 189 C-2.64 188.67 -5.28 188.34 -8 188 C-10.5 186.4375 -10.5 186.4375 -12 185 C-10.99839844 185.09539062 -9.99679688 185.19078125 -8.96484375 185.2890625 C-7.62245181 185.40171077 -6.28000043 185.51365218 -4.9375 185.625 C-3.62652344 185.74101562 -2.31554687 185.85703125 -0.96484375 185.9765625 C3.16472293 186.00097373 6.10093614 185.30116319 10 184 C17.19223033 181.90514918 24.43134388 179.98550505 31.66992188 178.05883789 C33.22375391 177.64449353 34.77714087 177.22847647 36.33007812 176.81079102 C38.59402788 176.20198373 40.85933906 175.59849747 43.125 174.99609375 C43.81062012 174.81066513 44.49624023 174.62523651 45.20263672 174.43418884 C49.46619383 173.30826004 53.63422292 172.54465904 58 172 C57.96845825 171.0726001 57.96845825 171.0726001 57.9362793 170.12646484 C57.74871235 159.56542957 58.83778929 149.12952561 59.8125 138.625 C59.98027531 136.76566623 60.14759498 134.9062913 60.31445312 133.046875 C61.77098578 117.01951945 63.39851492 101.01485082 65 85 C31.34 85 -2.32 85 -37 85 C-39 72 -39 72 -40 56 C-4.36 56 31.28 56 68 56 C68.33 49.73 68.66 43.46 69 37 C69.33 34.03 69.66 31.06 70 28 C23.8 28 -22.4 28 -70 28 C-69.01 40.87 -68.02 53.74 -67 67 C-67 68.65 -67 70.3 -67 72 C-67.66 72 -68.32 72 -69 72 C-69.09087891 70.19402344 -69.09087891 70.19402344 -69.18359375 68.3515625 C-69.26799732 66.77602923 -69.35264541 65.20050904 -69.4375 63.625 C-69.49647461 62.43390625 -69.49647461 62.43390625 -69.55664062 61.21875 C-69.68893404 56.97398779 -69.68893404 56.97398779 -71 53 C-71.09699022 51.05269249 -71.13076186 49.1020641 -71.1328125 47.15234375 C-71.13410156 45.99025391 -71.13539062 44.82816406 -71.13671875 43.63085938 C-71.13285156 42.41205078 -71.12898438 41.19324219 -71.125 39.9375 C-71.12886719 38.71482422 -71.13273437 37.49214844 -71.13671875 36.23242188 C-71.13542969 35.07162109 -71.13414063 33.91082031 -71.1328125 32.71484375 C-71.13168457 31.64355225 -71.13055664 30.57226074 -71.12939453 29.46850586 C-71 27 -71 27 -70 26 C-67.82194281 25.90570658 -65.6407872 25.88257462 -63.46069336 25.88647461 C-62.77779739 25.88632858 -62.09490143 25.88618256 -61.39131165 25.8860321 C-59.12412386 25.88673124 -56.85701726 25.8945236 -54.58984375 25.90234375 C-53.02185613 25.90420793 -51.45386793 25.90563183 -49.88587952 25.90663147 C-45.75123497 25.91045666 -41.61662534 25.92028694 -37.48199463 25.93133545 C-33.26599602 25.94154956 -29.04999178 25.94612909 -24.83398438 25.95117188 C-16.55597174 25.96190922 -8.27799423 25.97950601 0 26 C0 17.42 0 8.84 0 0 Z " fill="#EF652A" transform="translate(144,157)"/>
<path d="M0 0 C30.03 0 60.06 0 91 0 C90.40119334 14.37135981 89.79276538 28.67063062 88.6875 43 C88.59287476 44.25144302 88.59287476 44.25144302 88.49633789 45.52816772 C87.3864331 60.14711616 85.98703526 74.72922675 84.4855957 89.3125 C83.34903916 100.36743517 82.31041848 111.42621084 81.375 122.5 C81.31395081 123.2212204 81.25290161 123.9424408 81.19000244 124.68551636 C80.58079631 131.90114037 79.98918791 139.11814212 79.40625 146.3359375 C79.31553223 147.45033203 79.22481445 148.56472656 79.13134766 149.71289062 C78.96659094 151.74520389 78.80457649 153.77774235 78.64599609 155.81054688 C78.53892334 157.13795898 78.53892334 157.13795898 78.4296875 158.4921875 C78.37022949 159.24870605 78.31077148 160.00522461 78.24951172 160.78466797 C78 163 78 163 77.5065918 165.3684082 C76.91265082 168.45375269 76.67954772 171.47860326 76.46484375 174.61328125 C76.37783203 175.86044922 76.29082031 177.10761719 76.20117188 178.39257812 C76.11416016 179.68615234 76.02714844 180.97972656 75.9375 182.3125 C75.84662109 183.62541016 75.75574219 184.93832031 75.66210938 186.29101562 C75.43852144 189.52715676 75.21792549 192.76347343 75 196 C58.5012647 201.36311247 58.5012647 201.36311247 51.30859375 202.4453125 C48.72754028 203.0654641 46.45593659 204.12045305 44.03637695 205.19335938 C40.0982343 206.75331901 35.9828332 207.68329558 31.875 208.6875 C30.99457031 208.91244141 30.11414063 209.13738281 29.20703125 209.36914062 C28.35238281 209.58119141 27.49773437 209.79324219 26.6171875 210.01171875 C25.85003418 210.20209717 25.08288086 210.39247559 24.29248047 210.58862305 C21.81869942 211.0325337 19.50808447 211.07005358 17 211 C17 211.66 17 212.32 17 213 C15.10614563 213.50744423 13.20981334 214.00564574 11.3125 214.5 C9.72888672 214.91765625 9.72888672 214.91765625 8.11328125 215.34375 C5 216 5 216 0 216 C0 206.76 0 197.52 0 188 C10.1292517 184.62358277 10.1292517 184.62358277 14.390625 183.38671875 C15.33776367 183.11093994 16.28490234 182.83516113 17.26074219 182.55102539 C18.24719727 182.26606201 19.23365234 181.98109863 20.25 181.6875 C21.28543945 181.3877124 22.32087891 181.0879248 23.38769531 180.77905273 C25.52907882 180.15956477 27.67068146 179.54083379 29.8125 178.92285156 C32.90852904 178.02648286 36.00140363 177.11991822 39.09375 176.2109375 C40.97909999 175.66122959 42.86451371 175.11174023 44.75 174.5625 C45.62430664 174.30364014 46.49861328 174.04478027 47.39941406 173.77807617 C48.21120117 173.5432251 49.02298828 173.30837402 49.859375 173.06640625 C50.91850098 172.7561853 50.91850098 172.7561853 51.99902344 172.43969727 C54 172 54 172 58 172 C58.01981934 171.4237085 58.03963867 170.84741699 58.06005859 170.25366211 C58.67517379 153.0185421 59.54266714 135.77273555 62 118.6875 C63.45423325 107.50808187 64.13535392 96.24039907 65 85 C45.2 85 25.4 85 5 85 C8.22998796 81.77001204 11.31688218 80.34928462 15.4375 78.625 C16.15615234 78.31755859 16.87480469 78.01011719 17.61523438 77.69335938 C22.68171216 75.53232388 27.7700833 73.42303929 32.859375 71.31640625 C36.66927512 69.7194705 40.46254996 68.08688746 44.25 66.4375 C44.94029297 66.13690674 45.63058594 65.83631348 46.34179688 65.52661133 C49.78683939 64.01377744 53.17232329 62.44304598 56.5 60.6875 C59.23715819 59.36779873 61.32598963 58.57887229 64.21875 57.89453125 C65.4665625 57.59933594 66.714375 57.30414063 68 57 C68.03758423 56.16190796 68.03758423 56.16190796 68.07592773 55.30688477 C68.19343105 52.72527572 68.3154438 50.14389764 68.4375 47.5625 C68.47681641 46.68400391 68.51613281 45.80550781 68.55664062 44.90039062 C68.59853516 44.02705078 68.64042969 43.15371094 68.68359375 42.25390625 C68.72025146 41.46314697 68.75690918 40.6723877 68.79467773 39.85766602 C69.07939683 35.89495846 69.56126406 31.94862342 70 28 C46.9 28 23.8 28 0 28 C0 18.76 0 9.52 0 0 Z " fill="#2FA9DD" transform="translate(458,157)"/>
<path d="M0 0 C20.79 0 41.58 0 63 0 C63 33.32888755 63 33.32888755 61.90625 44.30078125 C61.73977966 46.13699287 61.73977966 46.13699287 61.56994629 48.01029968 C61.2255428 51.77896063 60.86330194 55.54561967 60.5 59.3125 C60.25790436 61.92632048 60.01701471 64.54025295 59.77734375 67.15429688 C59.19869449 73.43754814 58.60554823 79.71928687 58 86 C53.91623952 87.11131396 49.83127115 88.21812579 45.74609375 89.32421875 C44.60603882 89.63452026 43.46598389 89.94482178 42.29138184 90.26452637 C32.53378301 92.90269839 22.72439944 95.24326217 12.85571289 97.42504883 C10.69540349 97.99823657 10.69540349 97.99823657 8 100 C0.90048854 101.97208652 -5.44133768 100.87445515 -12.3125 98.8125 C-13.91269017 98.35001729 -15.51295264 97.8877847 -17.11328125 97.42578125 C-17.92490723 97.18811035 -18.7365332 96.95043945 -19.57275391 96.70556641 C-23.37194616 95.60119449 -27.1860679 94.55209029 -31 93.5 C-32.47664435 93.09013852 -33.95320638 92.67998035 -35.4296875 92.26953125 C-36.16928711 92.06408691 -36.90888672 91.85864258 -37.67089844 91.64697266 C-44.44726562 89.76464844 -51.22363281 87.88232422 -58 86 C-59.57377484 71.01565447 -60.83164521 56.02170445 -62 41 C-52.43 41 -42.86 41 -33 41 C-32.33397396 44.33013019 -31.85066433 47.10823693 -31.68359375 50.42578125 C-31.64169922 51.22177734 -31.59980469 52.01777344 -31.55664062 52.83789062 C-31.51732422 53.65451172 -31.47800781 54.47113281 -31.4375 55.3125 C-31.39431641 56.14845703 -31.35113281 56.98441406 -31.30664062 57.84570312 C-31.20114693 59.89696935 -31.10012685 61.9484648 -31 64 C-30.10474609 64.12955078 -30.10474609 64.12955078 -29.19140625 64.26171875 C-24.63045084 65.00041732 -20.20888048 65.89079586 -15.80078125 67.28125 C-15.06980225 67.51110596 -14.33882324 67.74096191 -13.58569336 67.9777832 C-12.14531251 68.44020033 -10.7095178 68.91723596 -9.27954102 69.41088867 C-0.13059956 72.34463987 7.89466267 69.66538353 16.8125 66.9375 C18.65086439 66.37921978 20.49066398 65.8256384 22.33203125 65.27734375 C23.13358643 65.03234131 23.9351416 64.78733887 24.76098633 64.53491211 C27 64 27 64 31 64 C31.33 57.73 31.66 51.46 32 45 C32.66 45 33.32 45 34 45 C34.33 38.73 34.66 32.46 35 26 C23.45 26 11.9 26 0 26 C0 17.42 0 8.84 0 0 Z " fill="#FEFCFB" transform="translate(144,243)"/>
<path d="M0 0 C7 1 7 1 9 2 C10.72606453 2.09061856 12.45564507 2.11754501 14.18408203 2.11352539 C15.80553635 2.11341209 15.80553635 2.11341209 17.45974731 2.11329651 C18.63060883 2.10813522 19.80147034 2.10297394 21.0078125 2.09765625 C22.20356903 2.0962413 23.39932556 2.09482635 24.63131714 2.09336853 C28.46256987 2.08775663 32.29376484 2.07520208 36.125 2.0625 C38.71744707 2.05748653 41.30989506 2.05292336 43.90234375 2.04882812 C50.26824898 2.03778333 56.63412037 2.02103359 63 2 C63.1100266 12.78652741 62.71959947 23.48312183 62.125 34.25 C62.08053741 35.0751712 62.03607483 35.90034241 61.99026489 36.7505188 C59.94653941 74.61449705 59.94653941 74.61449705 58 87 C43.90037383 91.07290627 29.7916656 95.1033651 15.625 98.9375 C14.54557129 99.23148682 13.46614258 99.52547363 12.35400391 99.82836914 C10.38537519 100.35761256 8.41354383 100.87515943 6.43798828 101.37792969 C4.60552064 101.84549704 2.78386182 102.35575176 0.96875 102.88671875 C-3.98919487 103.07590349 -8.4356053 101.36413937 -13.125 99.875 C-15.27764597 99.21677322 -17.43131196 98.56187394 -19.5859375 97.91015625 C-20.66198242 97.58418457 -21.73802734 97.25821289 -22.84667969 96.92236328 C-28.20285449 95.35565312 -33.61792197 94.04418214 -39.05126953 92.77490234 C-45.50045106 91.23377373 -51.73436329 89.16237632 -58 87 C-58.43388247 82.50231585 -58.86081544 78.00403805 -59.28173828 73.50512695 C-59.42540783 71.97956209 -59.57086821 70.45416465 -59.71826172 68.92895508 C-59.93165171 66.71739284 -60.13826458 64.50527787 -60.34375 62.29296875 C-60.44218201 61.29537788 -60.44218201 61.29537788 -60.54260254 60.27763367 C-61.0730986 54.4495154 -61 48.93322715 -61 43 C-51.76 43 -42.52 43 -33 43 C-32.67 45.51625 -32.34 48.0325 -32 50.625 C-31.89558594 51.40568848 -31.79117187 52.18637695 -31.68359375 52.99072266 C-31.16766024 57.02298871 -30.89715196 60.92464625 -31 65 C-29.87722656 65.25394531 -28.75445312 65.50789063 -27.59765625 65.76953125 C-26.08576023 66.11641575 -24.57405368 66.46412675 -23.0625 66.8125 C-22.2777832 66.99192139 -21.49306641 67.17134277 -20.68457031 67.35620117 C-16.74253999 68.27789008 -13.00808567 69.28378719 -9.25 70.8125 C2.43651126 74.79653793 15.88243996 69.01387894 27.05151367 65.53491211 C29 65 29 65 31 65 C31.185625 63.1128125 31.185625 63.1128125 31.375 61.1875 C31.74910498 57.74038986 32.30323774 54.39541608 33 51 C34.26514845 43.4091093 34.54809895 35.68231786 35 28 C23.45 27.67 11.9 27.34 0 27 C0 18.09 0 9.18 0 0 Z " fill="#FCFEFE" transform="translate(458,242)"/>
<path d="M0 0 C46.2 0 92.4 0 140 0 C140 9.39097744 140 9.39097744 138 14 C137.71664284 16.42992135 137.51196541 18.8699502 137.375 21.3125 C137.25 23.54166667 137.125 25.77083333 137 28 C127.6383601 28.67288009 118.31229893 29.0741147 108.92578125 29.140625 C107.0032536 29.1599972 105.08072756 29.17952984 103.15820312 29.19921875 C100.21112815 29.22839526 97.2648572 29.25000777 94.31762695 29.25048828 C91.41550008 29.25381723 88.51510616 29.2882495 85.61328125 29.328125 C84.7351326 29.3210553 83.85698395 29.3139856 82.95222473 29.30670166 C76.91880854 29.42666566 74.2294883 30.66678658 70 35 C70 33.02 70 31.04 70 29 C47.56 29 25.12 29 2 29 C-0.35007996 19.59968016 0.38727542 9.68188549 0 0 Z " fill="#E1E8EC" transform="translate(388,185)"/>
<path d="M0 0 C9.57 0 19.14 0 29 0 C29.66602604 3.33013019 30.14933567 6.10823693 30.31640625 9.42578125 C30.35830078 10.22177734 30.40019531 11.01777344 30.44335938 11.83789062 C30.48267578 12.65451172 30.52199219 13.47113281 30.5625 14.3125 C30.60568359 15.14845703 30.64886719 15.98441406 30.69335938 16.84570312 C30.79885307 18.89696935 30.89987315 20.9484648 31 23 C31.59683594 23.08636719 32.19367188 23.17273438 32.80859375 23.26171875 C38.93475304 24.25391988 44.71524929 25.77877052 50.625 27.625 C56.61356649 29.48133687 61.67440297 30.57505428 68 30 C66.6875 31.5 66.6875 31.5 65 33 C64.01 33 63.02 33 62 33 C62 41.25 62 49.5 62 58 C64.64 58 67.28 58 70 58 C70 58.33 70 58.66 70 59 C62.75750904 60.75575538 56.67331398 59.90886077 49.6875 57.8125 C48.08730983 57.35001729 46.48704736 56.8877847 44.88671875 56.42578125 C44.07509277 56.18811035 43.2634668 55.95043945 42.42724609 55.70556641 C38.62805384 54.60119449 34.8139321 53.55209029 31 52.5 C29.52335565 52.09013852 28.04679362 51.67998035 26.5703125 51.26953125 C25.83071289 51.06408691 25.09111328 50.85864258 24.32910156 50.64697266 C17.55273438 48.76464844 10.77636719 46.88232422 4 45 C2.42622516 30.01565447 1.16835479 15.02170445 0 0 Z " fill="#ECE8E6" transform="translate(82,284)"/>
<path d="M0 0 C9.24 0 18.48 0 28 0 C28.33 2.51625 28.66 5.0325 29 7.625 C29.10441406 8.40568848 29.20882813 9.18637695 29.31640625 9.99072266 C29.83233976 14.02298871 30.10284804 17.92464625 30 22 C31.12277344 22.25394531 32.24554688 22.50789063 33.40234375 22.76953125 C40.42417519 24.37794942 47.33920247 25.97095664 54.12890625 28.40625 C57.05648979 29.33525355 59.95120182 29.67565977 63 30 C62.01 30.495 62.01 30.495 61 31 C61 40.24 61 49.48 61 59 C61.99 59.495 61.99 59.495 63 60 C56.9428165 59.41917419 51.53528928 58.09737425 45.75 56.25 C37.94251941 53.82441755 30.11191261 51.68872424 22.15136719 49.82519531 C15.63338792 48.26672799 9.33213926 46.18763805 3 44 C2.56611753 39.50231585 2.13918456 35.00403805 1.71826172 30.50512695 C1.57459217 28.97956209 1.42913179 27.45416465 1.28173828 25.92895508 C1.06834829 23.71739284 0.86173542 21.50527787 0.65625 19.29296875 C0.59062866 18.62790817 0.52500732 17.9628476 0.45739746 17.27763367 C-0.0730986 11.4495154 0 5.93322715 0 0 Z " fill="#E6EAEC" transform="translate(397,285)"/>
<path d="M0 0 C23.1 0 46.2 0 70 0 C70 8.27067669 70 8.27067669 68 13 C67.71664284 15.42992135 67.51196541 17.8699502 67.375 20.3125 C67.25 22.54166667 67.125 24.77083333 67 27 C57.6383601 27.67288009 48.31229893 28.0741147 38.92578125 28.140625 C37.0032536 28.1599972 35.08072756 28.17952984 33.15820312 28.19921875 C30.21112815 28.22839526 27.2648572 28.25000777 24.31762695 28.25048828 C21.41550008 28.25381723 18.51510616 28.2882495 15.61328125 28.328125 C14.7351326 28.3210553 13.85698395 28.3139856 12.95222473 28.30670166 C6.91880854 28.42666566 4.2294883 29.66678658 0 34 C0 22.66666667 0 11.33333333 0 0 Z " fill="#FDFEFE" transform="translate(458,186)"/>
<path d="M0 0 C22.77 0 45.54 0 69 0 C69 11 69 11 67 26 C44.89 26 22.78 26 0 26 C0 17.42 0 8.84 0 0 Z " fill="#FEFEFC" transform="translate(144,186)"/>
<path d="M0 0 C32.01 0 64.02 0 97 0 C97 11.25 97 11.25 96.34375 16.8828125 C96.20839844 18.06875 96.07304687 19.2546875 95.93359375 20.4765625 C95.79050781 21.68054688 95.64742188 22.88453125 95.5 24.125 C95.35691406 25.36765625 95.21382813 26.6103125 95.06640625 27.890625 C94.71597384 30.92770585 94.36039867 33.9640885 94 37 C89.96380847 38.14763816 85.92531782 39.28668045 81.88452148 40.41796875 C80.51146899 40.80365947 79.13906115 41.19165312 77.76733398 41.58203125 C75.79056919 42.14415805 73.81160079 42.6978431 71.83203125 43.25 C70.64327393 43.58515625 69.4545166 43.9203125 68.22973633 44.265625 C65.34066138 44.92254067 62.94355028 45.15530686 60 45 C61.32 44.01 62.64 43.02 64 42 C63.83734146 41.41941833 63.67468292 40.83883667 63.50709534 40.24066162 C62.7055925 36.69912512 62.87860238 33.128052 62.90234375 29.515625 C62.90335083 28.7922998 62.90435791 28.06897461 62.90539551 27.32373047 C62.91061113 24.63247076 62.92457238 21.94123372 62.9375 19.25 C62.958125 13.2275 62.97875 7.205 63 1 C42.21 1 21.42 1 0 1 C0 0.67 0 0.34 0 0 Z " fill="#EF682E" transform="translate(81,270)"/>
<path d="M0 0 C11.22 0 22.44 0 34 0 C34 24.2 34 24.2 31 36 C23.82087806 38.3110872 16.62718871 40.41800296 9.3125 42.25 C8.61769531 42.42499023 7.92289062 42.59998047 7.20703125 42.78027344 C2.25940801 44 2.25940801 44 0 44 C0 29.48 0 14.96 0 0 Z " fill="#32AADC" transform="translate(458,271)"/>
<path d="M0 0 C13 0 13 0 15.80078125 2.1171875 C16.29964844 3.02726562 16.79851562 3.93734375 17.3125 4.875 C17.84488281 5.77992187 18.37726563 6.68484375 18.92578125 7.6171875 C20 10 20 10 20 12 C20.66 12 21.32 12 22 12 C22.3403125 10.9790625 22.3403125 10.9790625 22.6875 9.9375 C23.120625 8.968125 23.55375 7.99875 24 7 C24.26039063 6.37609375 24.52078125 5.7521875 24.7890625 5.109375 C25.8125 3.1875 25.8125 3.1875 29 0 C33.29 0 37.58 0 42 0 C42 12.54 42 25.08 42 38 C38.04 38 34.08 38 30 38 C30 32.06 30 26.12 30 20 C29.34 20 28.68 20 28 20 C27.88785156 20.57234375 27.77570313 21.1446875 27.66015625 21.734375 C26.92776966 24.24789112 25.86145147 26.05930543 24.4375 28.25 C23.98246094 28.95640625 23.52742188 29.6628125 23.05859375 30.390625 C22.70925781 30.92171875 22.35992187 31.4528125 22 32 C16.95534238 30.31844746 15.56015467 25.49449376 13 21 C12.67 26.61 12.34 32.22 12 38 C8.04 38 4.08 38 0 38 C0 25.46 0 12.92 0 0 Z " fill="#050505" transform="translate(146,76)"/>
<path d="M0 0 C12.21 0 24.42 0 37 0 C37 3.63 37 7.26 37 11 C32.05 11.33 27.1 11.66 22 12 C22.33 12.99 22.66 13.98 23 15 C23.99 15.33 24.98 15.66 26 16 C27.58325725 17.75823399 29.09656064 19.58032147 30.5625 21.4375 C33.63854744 25.34624788 33.63854744 25.34624788 37 29 C37 32.63 37 36.26 37 40 C24.79 40 12.58 40 0 40 C0 36.37 0 32.74 0 29 C8.415 28.505 8.415 28.505 17 28 C15.15921875 26.35064453 15.15921875 26.35064453 13.28125 24.66796875 C11.68607018 23.17600644 10.09239848 21.68243053 8.5 20.1875 C7.68917969 19.46884766 6.87835938 18.75019531 6.04296875 18.00976562 C5.27597656 17.27822266 4.50898438 16.54667969 3.71875 15.79296875 C3.00654297 15.1383667 2.29433594 14.48376465 1.56054688 13.80932617 C0 11 0 11 0 0 Z " fill="#0C0C0C" transform="translate(480,78)"/>
<path d="M0 0 C12.21 0 24.42 0 37 0 C37 3.63 37 7.26 37 11 C31.72 11 26.44 11 21 11 C21.969375 12.11375 22.93875 13.2275 23.9375 14.375 C24.88109375 15.47521484 24.88109375 15.47521484 25.84375 16.59765625 C27.99303677 19.05187787 27.99303677 19.05187787 30.46875 21.37109375 C31.2834375 22.17675781 32.098125 22.98242188 32.9375 23.8125 C33.70964844 24.54082031 34.48179687 25.26914063 35.27734375 26.01953125 C37 29 37 29 37 40 C24.79 40 12.58 40 0 40 C0 36.37 0 32.74 0 29 C5.28 28.67 10.56 28.34 16 28 C14.288125 26.123125 12.57625 24.24625 10.8125 22.3125 C10.28374268 21.73153564 9.75498535 21.15057129 9.21020508 20.55200195 C8.77603271 20.07722412 8.34186035 19.60244629 7.89453125 19.11328125 C7.41580566 18.57912598 6.93708008 18.0449707 6.44384766 17.49462891 C4.85569491 15.77809873 4.85569491 15.77809873 2.13671875 13.79296875 C0 11 0 11 0 0 Z " fill="#0C0C0C" transform="translate(437,78)"/>
<path d="M0 0 C4.29 0 8.58 0 13 0 C13 3.96 13 7.92 13 12 C16.63 12 20.26 12 24 12 C24 8.04 24 4.08 24 0 C28.29 0 32.58 0 37 0 C37 12.54 37 25.08 37 38 C32.71 38 28.42 38 24 38 C24 33.71 24 29.42 24 25 C20.37 25 16.74 25 13 25 C13 29.29 13 33.58 13 38 C8.71 38 4.42 38 0 38 C0 25.46 0 12.92 0 0 Z " fill="#090909" transform="translate(63,76)"/>
<path d="M0 0 C10.56 0 21.12 0 32 0 C32 3.96 32 7.92 32 12 C25.73 12 19.46 12 13 12 C13 17.28 13 22.56 13 28 C19.27 28 25.54 28 32 28 C32 31.96 32 35.92 32 40 C21.44 40 10.88 40 0 40 C0 26.8 0 13.6 0 0 Z " fill="#080808" transform="translate(399,78)"/>
<path d="M0 0 C12.54 0 25.08 0 38 0 C38 8.58 38 17.16 38 26 C25.79 26 13.58 26 1 26 C0.67 17.42 0.34 8.84 0 0 Z " fill="#E44D26" transform="translate(106,215)"/>
<path d="M0 0 C11.55 0 23.1 0 35 0 C35 4.29 35 8.58 35 13 C31.7 13 28.4 13 25 13 C25 21.25 25 29.5 25 38 C20.38 38 15.76 38 11 38 C11 29.75 11 21.5 11 13 C7.37 13 3.74 13 0 13 C0 8.71 0 4.42 0 0 Z " fill="#111111" transform="translate(105,76)"/>
<path d="M0 0 C4.29 0 8.58 0 13 0 C13 8.25 13 16.5 13 25 C18.94 25 24.88 25 31 25 C31 29.29 31 33.58 31 38 C20.77 38 10.54 38 0 38 C0 25.46 0 12.92 0 0 Z " fill="#0B0B0B" transform="translate(194,76)"/>
<path d="M0 0 C73.92 0 147.84 0 224 0 C224 5.8040275 223.90319513 11.19399244 223.37890625 16.921875 C223.28258156 17.98368988 223.28258156 17.98368988 223.18431091 19.06695557 C223.04922424 20.545956 222.91217059 22.02477804 222.77319336 23.50341797 C222.56171738 25.75834491 222.35755764 28.01385045 222.15429688 30.26953125 C221.05051862 42.27238304 221.05051862 42.27238304 220 47 C219.67 47 219.34 47 219 47 C218.67 38.75 218.34 30.5 218 22 C218.99 21.505 218.99 21.505 220 21 C220.56157237 19.07012742 220.56157237 19.07012742 220.8515625 16.74609375 C220.98046875 15.89208984 221.109375 15.03808594 221.2421875 14.15820312 C221.36851562 13.26037109 221.49484375 12.36253906 221.625 11.4375 C221.7590625 10.53580078 221.893125 9.63410156 222.03125 8.70507812 C222.362209 6.47110486 222.68473505 4.23623304 223 2 C194.74118991 2.06044876 166.48247097 2.13788755 138.22376442 2.23571491 C125.10361151 2.28073604 111.98348614 2.32013602 98.86328125 2.34643555 C87.43157848 2.36936458 75.99996237 2.40270517 64.56832826 2.44870156 C58.51186408 2.47270271 52.45548608 2.49138621 46.39897537 2.49761391 C40.7043257 2.50363371 35.00989677 2.5235202 29.3153286 2.55427551 C27.21985973 2.56310581 25.12436208 2.5667681 23.02887535 2.56500816 C20.17854709 2.56336939 17.32890307 2.57993425 14.47866821 2.60127258 C13.64015812 2.59642501 12.80164802 2.59157743 11.93772852 2.58658296 C9.40755855 2.58242113 9.40755855 2.58242113 6 3 C3.77464206 6.33803691 3.71021596 7.62819711 3.5859375 11.54296875 C3.54726563 12.61611328 3.50859375 13.68925781 3.46875 14.79492188 C3.4378125 15.91447266 3.406875 17.03402344 3.375 18.1875 C3.33632813 19.31865234 3.29765625 20.44980469 3.2578125 21.61523438 C3.16347467 24.4099925 3.07788348 27.20474278 3 30 C2.67 30 2.34 30 2 30 C1.66252749 26.12534889 1.33075778 22.25022962 1 18.375 C0.90460938 17.28058594 0.80921875 16.18617188 0.7109375 15.05859375 C0.57558594 13.46337891 0.57558594 13.46337891 0.4375 11.8359375 C0.35371094 10.86188965 0.26992188 9.8878418 0.18359375 8.88427734 C-0.00457019 5.92820188 0 2.96205804 0 0 Z " fill="#3585BC" transform="translate(346,138)"/>
<path d="M0 0 C73.92 0 147.84 0 224 0 C224 1.98 224 3.96 224 6 C223.01 4.515 223.01 4.515 222 3 C219.06622195 2.70586382 216.34355029 2.60905792 213.40744019 2.63923645 C212.05730463 2.63539154 212.05730463 2.63539154 210.67989361 2.63146895 C207.64562919 2.62650379 204.61185575 2.6430689 201.57763672 2.65942383 C199.40988171 2.66026951 197.24212584 2.65979611 195.07437134 2.65809631 C189.17377687 2.65723264 183.27336393 2.67491856 177.37281179 2.69581819 C171.21218368 2.71452309 165.05155179 2.71633053 158.89089966 2.71989441 C147.21782314 2.72923311 135.54483052 2.75387154 123.87179101 2.78394288 C110.58542992 2.81743019 97.29907109 2.83395861 84.012676 2.84902918 C56.67507075 2.88041952 29.33754007 2.93321541 2 3 C2.16265854 3.77353317 2.32531708 4.54706635 2.49290466 5.34403992 C2.99984272 7.99917624 3.11421479 10.38299 3.09765625 13.08203125 C3.09282227 14.47905273 3.09282227 14.47905273 3.08789062 15.90429688 C3.07951172 16.86400391 3.07113281 17.82371094 3.0625 18.8125 C3.05798828 19.79154297 3.05347656 20.77058594 3.04882812 21.77929688 C3.03708684 24.18626111 3.02066419 26.59309857 3 29 C3.66 29 4.32 29 5 29 C5.33 41.21 5.66 53.42 6 66 C5.67 66 5.34 66 5 66 C4.3451293 58.28084324 3.69297427 50.56146221 3.04424286 42.84178734 C2.74289611 39.25687888 2.44063007 35.67205298 2.13623047 32.08740234 C1.84226165 28.62517854 1.55075033 25.16275565 1.26091003 21.70018387 C1.09640695 19.74255587 0.92938862 17.78513976 0.7623291 15.82772827 C0.66222534 14.62693634 0.56212158 13.42614441 0.45898438 12.18896484 C0.37015991 11.13639496 0.28133545 10.08382507 0.18981934 8.99935913 C0.00030987 6.00489625 0 3.0004536 0 0 Z " fill="#DF6B4E" transform="translate(32,138)"/>
<path d="M0 0 C1.76685905 -0.00466782 1.76685905 -0.00466782 3.56941223 -0.00942993 C5.52532539 -0.00645401 5.52532539 -0.00645401 7.52075195 -0.00341797 C8.89861579 -0.00443477 10.27647942 -0.0057749 11.65434265 -0.00741577 C15.40633411 -0.01014453 19.15828492 -0.00559749 22.91027069 0.00082397 C25.25083032 0.00438206 27.59138381 0.00601138 29.9319458 0.00708008 C64.81646537 0.02679252 99.69288724 0.52378304 134.5715332 1.12939453 C134.5715332 1.45939453 134.5715332 1.78939453 134.5715332 2.12939453 C88.3715332 2.12939453 42.1715332 2.12939453 -5.4284668 2.12939453 C-4.4384668 14.99939453 -3.4484668 27.86939453 -2.4284668 41.12939453 C-2.4284668 42.77939453 -2.4284668 44.42939453 -2.4284668 46.12939453 C-3.0884668 46.12939453 -3.7484668 46.12939453 -4.4284668 46.12939453 C-4.48905273 44.92541016 -4.54963867 43.72142578 -4.61206055 42.48095703 C-4.69646411 40.90542376 -4.78111221 39.32990358 -4.8659668 37.75439453 C-4.92494141 36.56330078 -4.92494141 36.56330078 -4.98510742 35.34814453 C-5.11740084 31.10338232 -5.11740084 31.10338232 -6.4284668 27.12939453 C-6.52545702 25.18208702 -6.55922866 23.23145863 -6.5612793 21.28173828 C-6.56256836 20.11964844 -6.56385742 18.95755859 -6.56518555 17.76025391 C-6.56131836 16.54144531 -6.55745117 15.32263672 -6.5534668 14.06689453 C-6.55733398 12.84421875 -6.56120117 11.62154297 -6.56518555 10.36181641 C-6.56389648 9.20101562 -6.56260742 8.04021484 -6.5612793 6.84423828 C-6.56015137 5.77294678 -6.55902344 4.70165527 -6.55786133 3.59790039 C-6.31951342 -0.94914816 -4.01224622 0.00309858 0 0 Z " fill="#D36443" transform="translate(79.428466796875,182.87060546875)"/>
<path d="M0 0 C0.66 0 1.32 0 2 0 C2.06058594 1.02738281 2.12117188 2.05476562 2.18359375 3.11328125 C2.2681421 4.5130261 2.35278255 5.91276538 2.4375 7.3125 C2.47681641 7.98345703 2.51613281 8.65441406 2.55664062 9.34570312 C2.91698893 15.24987156 3.46367451 21.10041959 4 27 C35.68 27 67.36 27 100 27 C101.23696922 30.71090766 100.9083736 33.47669829 100.625 37.375 C100.53476562 38.68210937 100.44453125 39.98921875 100.3515625 41.3359375 C100.06704355 44.30125726 99.66048289 47.10059205 99 50 C98.67 50 98.34 50 98 50 C98.33 43.07 98.66 36.14 99 29 C66.99 29 34.98 29 2 29 C-0.25 7.625 -0.25 7.625 0 0 Z " fill="#B9DBEF" transform="translate(393,242)"/>
<path d="M0 0 C-0.99 0.33 -1.98 0.66 -3 1 C-3.33 1.99 -3.66 2.98 -4 4 C-4.78375 3.79375 -5.5675 3.5875 -6.375 3.375 C-7.674375 3.189375 -7.674375 3.189375 -9 3 C-9.66 3.66 -10.32 4.32 -11 5 C-11.99 5 -12.98 5 -14 5 C-14.12375 5.721875 -14.2475 6.44375 -14.375 7.1875 C-14.99113189 9.96009349 -15.91731029 12.38129929 -17 15 C-20.5824379 15.22624982 -24.16585101 15.42787181 -27.75 15.625 C-28.76578125 15.68945312 -29.7815625 15.75390625 -30.828125 15.8203125 C-32.29765625 15.89765625 -32.29765625 15.89765625 -33.796875 15.9765625 C-34.69760742 16.02893066 -35.59833984 16.08129883 -36.52636719 16.13525391 C-39.18916947 15.98965654 -40.73072479 15.35693395 -43 14 C-36.96763351 11.34644133 -36.96763351 11.34644133 -34.18603516 10.14086914 C-29.92587355 8.29338306 -25.69039726 6.40352109 -21.47265625 4.4609375 C-19.60688569 3.61953694 -17.74100164 2.77838797 -15.875 1.9375 C-14.54335815 1.31016968 -14.54335815 1.31016968 -13.18481445 0.67016602 C-8.13221385 -1.57869045 -5.23047473 -2.73528105 0 0 Z " fill="#CDCECF" transform="translate(438,227)"/>
<path d="M0 0 C4.62 0 9.24 0 14 0 C11.67398774 2.32601226 9.97497706 2.83016094 6.875 3.875 C2.8275271 5.30105263 -0.94905559 6.87799344 -4.75390625 8.84765625 C-7.75094123 10.3852655 -10.77390326 11.85867416 -13.8125 13.3125 C-14.91207031 13.84488281 -16.01164062 14.37726563 -17.14453125 14.92578125 C-20 16 -20 16 -23 15 C-20 13 -20 13 -18 13 C-17.67 11.68 -17.34 10.36 -17 9 C-10.375 8 -10.375 8 -7 8 C-6.34 6.68 -5.68 5.36 -5 4 C-4.01 4 -3.02 4 -2 4 C-2 3.34 -2 2.68 -2 2 C-1.34 2 -0.68 2 0 2 C0 1.34 0 0.68 0 0 Z " fill="#C9D5DA" transform="translate(510,214)"/>
<path d="M0 0 C0.66 0 1.32 0 2 0 C2.02703381 1.93742341 2.04641125 3.87495479 2.0625 5.8125 C2.07410156 6.89144531 2.08570313 7.97039062 2.09765625 9.08203125 C2 12 2 12 1 15 C0.85164052 16.77166975 0.75229982 18.54767612 0.68359375 20.32421875 C0.64169922 21.35224609 0.59980469 22.38027344 0.55664062 23.43945312 C0.51732422 24.51130859 0.47800781 25.58316406 0.4375 26.6875 C0.39431641 27.77095703 0.35113281 28.85441406 0.30664062 29.97070312 C0.20053162 32.64700791 0.09847639 35.32340526 0 38 C-0.66 38 -1.32 38 -2 38 C-2 43.94 -2 49.88 -2 56 C-2.66 56 -3.32 56 -4 56 C-4 57.98 -4 59.96 -4 62 C-4.33 62 -4.66 62 -5 62 C-4.35654979 48.25229419 -3.2210861 34.57635193 -1.9375 20.875 C-1.74904949 18.83726726 -1.5608968 16.79950695 -1.37304688 14.76171875 C-0.91878397 9.84082253 -0.46053921 4.92031263 0 0 Z " fill="#E4703F" transform="translate(209,242)"/>
<path d="M0 0 C0.33 0 0.66 0 1 0 C1.11025152 7.72985631 1.00266175 15.40838821 0.5625 23.125 C0.52326416 23.84679443 0.48402832 24.56858887 0.44360352 25.31225586 C0.1223004 30.54252782 0.1223004 30.54252782 -0.50439453 32.88671875 C-1.10171823 35.43373055 -1.17996775 37.81448232 -1.24609375 40.4296875 C-1.27896484 41.47253906 -1.31183594 42.51539063 -1.34570312 43.58984375 C-1.40667995 45.77203556 -1.46399859 47.95433279 -1.51757812 50.13671875 C-1.69063291 55.43284825 -1.87190976 60.05455952 -4 65 C-4.33 65 -4.66 65 -5 65 C-4.39569079 50.37147983 -3.28194934 35.8276553 -1.9375 21.25 C-1.74898141 19.17321041 -1.56082862 17.09638759 -1.37304688 15.01953125 C-0.91955939 10.01262955 -0.46119831 5.00619708 0 0 Z " fill="#C9E8F7" transform="translate(569,147)"/>
<path d="M0 0 C11.55 0 23.1 0 35 0 C36.23696922 3.71090766 35.9083736 6.47669829 35.625 10.375 C35.48964844 12.33566406 35.48964844 12.33566406 35.3515625 14.3359375 C35.06704355 17.30125726 34.66048289 20.10059205 34 23 C33.67 23 33.34 23 33 23 C33.33 16.07 33.66 9.14 34 2 C22.78 2 11.56 2 0 2 C0 1.34 0 0.68 0 0 Z " fill="#CCF2FD" transform="translate(458,269)"/>
<path d="M0 0 C1.98 0 3.96 0 6 0 C5.51984511 10.12115972 4.86699284 20.21661766 4 30.3125 C3.9170166 31.29613525 3.8340332 32.27977051 3.74853516 33.29321289 C3.66651855 34.22383545 3.58450195 35.15445801 3.5 36.11328125 C3.4278125 36.93610596 3.355625 37.75893066 3.28125 38.60668945 C2.98728486 41.10820008 2.52593146 43.53770944 2 46 C1.67 46 1.34 46 1 46 C0.67 37.75 0.34 29.5 0 21 C0.66 20.67 1.32 20.34 2 20 C2.56157237 18.07012742 2.56157237 18.07012742 2.8515625 15.74609375 C2.98046875 14.89208984 3.109375 14.03808594 3.2421875 13.15820312 C3.43167969 11.81145508 3.43167969 11.81145508 3.625 10.4375 C3.82609375 9.08495117 3.82609375 9.08495117 4.03125 7.70507812 C4.362209 5.47110486 4.68473505 3.23623304 5 1 C3.35 1 1.7 1 0 1 C0 0.67 0 0.34 0 0 Z " fill="#2178AD" transform="translate(564,139)"/>
<path d="M0 0 C2.89360263 2.89360263 2.42150543 5.98905207 2.5625 9.875 C2.73739006 14.0351508 2.98699257 17.95385415 4 22 C4.14010558 23.34841213 4.24406052 24.70094789 4.31640625 26.0546875 C4.35838135 26.8283667 4.40035645 27.6020459 4.44360352 28.39916992 C4.50245728 29.62470581 4.50245728 29.62470581 4.5625 30.875 C4.6049585 31.71329346 4.64741699 32.55158691 4.69116211 33.4152832 C5.03172753 40.61512393 5.10582567 47.79209607 5 55 C4.67 55 4.34 55 4 55 C3.58873176 51.10823405 3.17993053 47.21621677 2.77319336 43.32397461 C2.56812945 41.36624395 2.36123891 39.4087049 2.15429688 37.45117188 C-0.16703671 15.20034023 -0.16703671 15.20034023 -0.0625 5.6875 C-0.05347656 4.59824219 -0.04445312 3.50898438 -0.03515625 2.38671875 C-0.02355469 1.59910156 -0.01195312 0.81148438 0 0 Z " fill="#DA6F54" transform="translate(45,283)"/>
<path d="M0 0 C0.33 0 0.66 0 1 0 C1.57387198 6.56498699 2.14303601 13.13037015 2.70898438 19.69604492 C2.90191946 21.92790897 3.09591787 24.15968138 3.29101562 26.39135742 C3.57183354 29.60571966 3.84878086 32.82039596 4.125 36.03515625 C4.21249512 37.02709488 4.29999023 38.01903351 4.39013672 39.04103088 C4.81662672 44.04947262 5.09766118 48.97350132 5 54 C4.01 53.34 3.02 52.68 2 52 C1.58349609 49.60498047 1.58349609 49.60498047 1.5234375 46.6171875 C1.47703125 44.98910156 1.47703125 44.98910156 1.4296875 43.328125 C1.41164063 42.18859375 1.39359375 41.0490625 1.375 39.875 C1.32345622 37.64315435 1.26883511 35.41137736 1.2109375 33.1796875 C1.18346436 32.1081543 1.15599121 31.03662109 1.12768555 29.93261719 C1.02270615 27.52150333 0.82023456 25.20617024 0.48046875 22.8203125 C-0.10240363 18.18576623 -0.1090676 13.66392403 -0.0625 9 C-0.05798828 8.12988281 -0.05347656 7.25976562 -0.04882812 6.36328125 C-0.0371736 4.24215707 -0.01924357 2.1210689 0 0 Z " fill="#CCE9F4" transform="translate(361,314)"/>
<path d="M0 0 C0.66 0 1.32 0 2 0 C2 4.62 2 9.24 2 14 C1.34 14 0.68 14 0 14 C0.01047363 14.59425781 0.02094727 15.18851562 0.03173828 15.80078125 C0.07371131 18.53380989 0.0994558 21.26677037 0.125 24 C0.14175781 24.93457031 0.15851562 25.86914062 0.17578125 26.83203125 C0.2162771 32.62293792 -0.41717853 37.43614271 -2 43 C-2.25008102 44.66091542 -2.46822149 46.32769588 -2.625 48 C-2.69976563 48.763125 -2.77453125 49.52625 -2.8515625 50.3125 C-2.90054688 50.869375 -2.94953125 51.42625 -3 52 C-3.33 52 -3.66 52 -4 52 C-4.22277423 46.04697739 -3.99067119 40.33488499 -3.125 34.4375 C-1.46377703 23.02252505 -0.81279171 11.50061063 0 0 Z " fill="#50AED5" transform="translate(523,242)"/>
<path d="M0 0 C11.22 0 22.44 0 34 0 C34 10.125 34 10.125 33.5625 14.47265625 C33.42714844 15.8503418 33.42714844 15.8503418 33.2890625 17.25585938 C33.14597656 18.64514648 33.14597656 18.64514648 33 20.0625 C32.90460938 21.02349609 32.80921875 21.98449219 32.7109375 22.97460938 C32.4778808 25.31682923 32.24083651 27.65856955 32 30 C31.67 30 31.34 30 31 30 C30.97095136 26.08334892 30.95318483 22.1667256 30.9375 18.25 C30.92912109 17.13882812 30.92074219 16.02765625 30.91210938 14.8828125 C30.90727539 13.27792969 30.90727539 13.27792969 30.90234375 11.640625 C30.89710693 10.65610352 30.89187012 9.67158203 30.88647461 8.65722656 C31 6 31 6 32 2 C21.44 1.67 10.88 1.34 0 1 C0 0.67 0 0.34 0 0 Z " fill="#E36D3B" transform="translate(144,271)"/>
<path d="M0 0 C4.77877338 7.16816007 4.26952873 16.29792139 4.125 24.625 C4.11597656 25.62917969 4.10695313 26.63335937 4.09765625 27.66796875 C4.07437746 30.11224126 4.04168487 32.55598408 4 35 C6.31 35 8.62 35 11 35 C11 35.66 11 36.32 11 37 C12.65 37.33 14.3 37.66 16 38 C12.57056481 39.18771723 10.62215325 38.80226223 7.25 37.5625 C6.05117188 37.13130859 6.05117188 37.13130859 4.828125 36.69140625 C4.22484375 36.46324219 3.6215625 36.23507812 3 36 C2.57035731 31.51617577 2.14317901 27.03212608 1.71826172 22.54785156 C1.57342804 21.0230478 1.42792651 19.49830731 1.28173828 17.97363281 C1.07147539 15.77946083 0.86363182 13.58507093 0.65625 11.390625 C0.59062866 10.7113092 0.52500732 10.03199341 0.45739746 9.33209229 C0.1631879 6.19533688 0 3.15601502 0 0 Z " fill="#2B7DB1" transform="translate(363,332)"/>
<path d="M0 0 C0.33 0 0.66 0 1 0 C1 2.97 1 5.94 1 9 C1.66 9 2.32 9 3 9 C3.02578125 10.12019531 3.0515625 11.24039062 3.078125 12.39453125 C3.13440635 13.86722646 3.19175368 15.3398812 3.25 16.8125 C3.26417969 17.55048828 3.27835937 18.28847656 3.29296875 19.04882812 C3.42012032 23.4529959 3.42012032 23.4529959 5.984375 26.82421875 C6.64953125 27.21222656 7.3146875 27.60023438 8 28 C8.33 28.99 8.66 29.98 9 31 C9.99 31.66 10.98 32.32 12 33 C8.53058454 32.54177532 5.32604951 32.10868317 2 31 C-0.38776806 9.39260417 -0.38776806 9.39260417 0 0 Z " fill="#F7CDC2" transform="translate(84,298)"/>
<path d="M0 0 C0.33 0 0.66 0 1 0 C1.08564209 1.06436279 1.17128418 2.12872559 1.25952148 3.2253418 C1.57898259 7.18587262 1.90231822 11.14607933 2.22680664 15.10620117 C2.36653122 16.81802964 2.50521432 18.52994345 2.64282227 20.24194336 C2.84115192 22.70710219 3.04326316 25.17192667 3.24609375 27.63671875 C3.3065538 28.39836838 3.36701385 29.16001801 3.42930603 29.94474792 C3.74170663 33.69630859 4.20260498 37.3218034 5 41 C5.11678799 43.67678073 5.0454506 46.31841457 5 49 C4.67 49 4.34 49 4 49 C4 47.35 4 45.7 4 44 C3.34 44 2.68 44 2 44 C1.93941406 42.78183594 1.87882812 41.56367188 1.81640625 40.30859375 C1.73193597 38.68488723 1.64729128 37.06118978 1.5625 35.4375 C1.52318359 34.63763672 1.48386719 33.83777344 1.44335938 33.01367188 C1.25553421 29.4738899 1.00598535 26.0390808 0.46875 22.53125 C-0.13008111 18.02005562 -0.10742082 13.60641368 -0.0625 9.0625 C-0.05573242 7.75055664 -0.05573242 7.75055664 -0.04882812 6.41210938 C-0.03714834 4.27470953 -0.01921689 2.13734537 0 0 Z " fill="#FAD8CC" transform="translate(37,204)"/>
<path d="M0 0 C22.44 0 44.88 0 68 0 C64 3 64 3 61 3 C61 2.34 61 1.68 61 1 C40.87 1 20.74 1 0 1 C0 0.67 0 0.34 0 0 Z " fill="#2473A7" transform="translate(390,214)"/>
<path d="M0 0 C0 0.66 0 1.32 0 2 C-0.66386719 2.09796875 -1.32773438 2.1959375 -2.01171875 2.296875 C-7.52308956 3.23018743 -10.72048347 4.23921274 -15 8 C-15.99 7.67 -16.98 7.34 -18 7 C-18.99 7.495 -18.99 7.495 -20 8 C-22.63934052 8.15081946 -25.23472668 8.2313078 -27.875 8.25 C-28.95587891 8.2809375 -28.95587891 8.2809375 -30.05859375 8.3125 C-33.40790073 8.33717261 -35.60799026 8.23691554 -38.5078125 6.484375 C-39.00023437 5.99453125 -39.49265625 5.5046875 -40 5 C-38.99839844 5.09539062 -37.99679688 5.19078125 -36.96484375 5.2890625 C-35.62245181 5.40171077 -34.28000043 5.51365218 -32.9375 5.625 C-31.62652344 5.74101562 -30.31554687 5.85703125 -28.96484375 5.9765625 C-24.87240858 6.00075423 -21.85845233 5.30018151 -18 4 C-15.66666667 3.33333333 -13.33333333 2.66666667 -11 2 C-9.1746875 1.443125 -9.1746875 1.443125 -7.3125 0.875 C-4 0 -4 0 0 0 Z " fill="#E37B50" transform="translate(172,337)"/>
<path d="M0 0 C-0.99 0.66 -1.98 1.32 -3 2 C14.49 2.33 31.98 2.66 50 3 C50 3.33 50 3.66 50 4 C30.2 4 10.4 4 -10 4 C-4 -2 -4 -2 0 0 Z " fill="#3FA5D0" transform="translate(473,238)"/>
<path d="M0 0 C-0.99 0.33 -1.98 0.66 -3 1 C-3.33 1.99 -3.66 2.98 -4 4 C-5.175625 3.690625 -5.175625 3.690625 -6.375 3.375 C-7.674375 3.189375 -7.674375 3.189375 -9 3 C-9.66 3.66 -10.32 4.32 -11 5 C-11.99 5 -12.98 5 -14 5 C-14.33 6.65 -14.66 8.3 -15 10 C-15.99 10.33 -16.98 10.66 -18 11 C-18.66666667 9.66666667 -19.33333333 8.33333333 -20 7 C-19.34 7 -18.68 7 -18 7 C-18 5.68 -18 4.36 -18 3 C-16.13624529 2.10129627 -14.25834183 1.23189762 -12.375 0.375 C-11.33085937 -0.11226562 -10.28671875 -0.59953125 -9.2109375 -1.1015625 C-5.37485776 -2.17491815 -3.58662361 -1.5832843 0 0 Z " fill="#C5D3DD" transform="translate(438,227)"/>
<path d="M0 0 C0.33 0 0.66 0 1 0 C1.22509088 4.29096169 1.42723952 8.58269873 1.625 12.875 C1.68945312 14.09832031 1.75390625 15.32164062 1.8203125 16.58203125 C1.871875 17.74863281 1.9234375 18.91523438 1.9765625 20.1171875 C2.02893066 21.19597168 2.08129883 22.27475586 2.13525391 23.38623047 C2 26 2 26 0 28 C-0.40047444 30.32275177 -0.7397104 32.65739357 -1 35 C-6.95703125 36.7578125 -6.95703125 36.7578125 -9 37 C-9.99 36.34 -10.98 35.68 -12 35 C-8.38026598 33.68373308 -5.90432869 33 -2 33 C-1.97494385 32.35562988 -1.9498877 31.71125977 -1.92407227 31.04736328 C-1.80664654 28.07311076 -1.684597 25.09906429 -1.5625 22.125 C-1.52318359 21.11179687 -1.48386719 20.09859375 -1.44335938 19.0546875 C-1.17743851 12.67258664 -0.71710563 6.34748471 0 0 Z " fill="#54B0D7" transform="translate(518,296)"/>
<path d="M0 0 C0.33 0.66 0.66 1.32 1 2 C1.66 2 2.32 2 3 2 C3.33 1.34 3.66 0.68 4 0 C4 1.98 4 3.96 4 6 C0.39963863 7.03459685 -3.20578768 8.0502864 -6.8125 9.0625 C-7.83666016 9.35705078 -8.86082031 9.65160156 -9.91601562 9.95507812 C-10.89892578 10.22900391 -11.88183594 10.50292969 -12.89453125 10.78515625 C-13.80050049 11.04176025 -14.70646973 11.29836426 -15.63989258 11.56274414 C-18 12 -18 12 -21 11 C-17.14243493 8.84694043 -14.44870215 7.60746746 -10 8 C-10 7.01 -10 6.02 -10 5 C-9.0925 5.103125 -8.185 5.20625 -7.25 5.3125 C-3.80271869 5.33951208 -3.80271869 5.33951208 -1.625 2.5 C-1.08875 1.675 -0.5525 0.85 0 0 Z " fill="#E3713D" transform="translate(171,301)"/>
<path d="M0 0 C0.66 0 1.32 0 2 0 C2.06058594 1.04800781 2.12117188 2.09601563 2.18359375 3.17578125 C2.26801738 4.55470048 2.35266447 5.93360605 2.4375 7.3125 C2.47681641 8.00279297 2.51613281 8.69308594 2.55664062 9.40429688 C2.74927415 12.47161535 3.02322717 15.06968152 4 18 C4.99 18.33 5.98 18.66 7 19 C7 19.66 7 20.32 7 21 C7.99 21.33 8.98 21.66 10 22 C10.99 22.33 11.98 22.66 13 23 C13 23.66 13 24.32 13 25 C5.375 24.125 5.375 24.125 2 23 C0.95275422 20.21091836 0.82350895 17.41133217 0.68359375 14.453125 C0.64169922 13.60878906 0.59980469 12.76445312 0.55664062 11.89453125 C0.51732422 11.02183594 0.47800781 10.14914062 0.4375 9.25 C0.39431641 8.36183594 0.35113281 7.47367187 0.30664062 6.55859375 C0.20086385 4.37254037 0.09877454 2.18637911 0 0 Z " fill="#D7593A" transform="translate(111,284)"/>
<path d="M0 0 C0.33 0 0.66 0 1 0 C1.42971272 5.46245625 1.85688845 10.92510283 2.28173828 16.38793945 C2.42655241 18.24541554 2.57205357 20.1028382 2.71826172 21.96020508 C2.92857618 24.63348788 3.13640044 27.30695454 3.34375 29.98046875 C3.40937134 30.80773972 3.47499268 31.63501068 3.54260254 32.48735046 C3.83875886 36.33552043 4.08183559 40.13667799 4 44 C3.34 44 2.68 44 2 44 C1.93941406 42.79601562 1.87882812 41.59203125 1.81640625 40.3515625 C1.73200268 38.77602923 1.64735459 37.20050904 1.5625 35.625 C1.50352539 34.43390625 1.50352539 34.43390625 1.44335938 33.21875 C1.31106596 28.97398779 1.31106596 28.97398779 0 25 C-0.084915 23.1136088 -0.107193 21.22421485 -0.09765625 19.3359375 C-0.09443359 18.21445313 -0.09121094 17.09296875 -0.08789062 15.9375 C-0.07951172 14.761875 -0.07113281 13.58625 -0.0625 12.375 C-0.05798828 11.19164062 -0.05347656 10.00828125 -0.04882812 8.7890625 C-0.03701467 5.85932493 -0.02054258 2.92968728 0 0 Z " fill="#D35F40" transform="translate(73,185)"/>
<path d="M0 0 C4.81434673 0.60481743 9.3564841 1.53981555 14.02734375 2.84765625 C14.66112442 3.02380966 15.29490509 3.19996307 15.94789124 3.38145447 C17.94559946 3.9377027 19.94154847 4.49998482 21.9375 5.0625 C23.302622 5.44376197 24.66785548 5.82462501 26.03320312 6.20507812 C29.35676862 7.13211575 32.67878614 8.06456767 36 9 C32.31884766 11.04443359 32.31884766 11.04443359 29.44921875 10.64453125 C28.53785156 10.36996094 27.62648438 10.09539062 26.6875 9.8125 C25.71683594 9.52246094 24.74617188 9.23242188 23.74609375 8.93359375 C21.51090417 8.17369288 19.39485107 7.35258518 17.25 6.375 C14.0395534 4.85357937 14.0395534 4.85357937 10.5 4.5 C6.49609354 3.92801336 3.64401921 2.710458 0 1 C0 0.67 0 0.34 0 0 Z " fill="#FDE2D8" transform="translate(91,379)"/>
<path d="M0 0 C0.33 0 0.66 0 1 0 C0.67 10.89 0.34 21.78 0 33 C-0.66 33 -1.32 33 -2 33 C-2 34.98 -2 36.96 -2 39 C-2.33 39 -2.66 39 -3 39 C-2.39469657 25.95411817 -1.31974085 12.99240019 0 0 Z " fill="#E48054" transform="translate(207,265)"/>
<path d="M0 0 C0.33 0 0.66 0 1 0 C3.13540594 6.0615263 3.23853866 11.54876694 3.125 17.9375 C3.11597656 18.90751953 3.10695312 19.87753906 3.09765625 20.87695312 C3.07426107 23.25156407 3.04148176 25.62564776 3 28 C4.65 28.33 6.3 28.66 8 29 C5.50907189 30.24546405 4.58919267 29.7767578 2 29 C1.65896535 25.85495307 1.32862537 22.70886583 1 19.5625 C0.90460937 18.68400391 0.80921875 17.80550781 0.7109375 16.90039062 C0.12531604 11.23241145 -0.09274645 5.69811032 0 0 Z " fill="#D46043" transform="translate(50,339)"/>
<path d="M0 0 C0.99 0.495 0.99 0.495 2 1 C2.41064453 3.18969727 2.41064453 3.18969727 2.6328125 6.06640625 C2.71660156 7.10990234 2.80039063 8.15339844 2.88671875 9.22851562 C2.96535156 10.32873047 3.04398437 11.42894531 3.125 12.5625 C3.21136719 13.63564453 3.29773438 14.70878906 3.38671875 15.81445312 C3.83006641 21.56037949 4.09778398 27.2377299 4 33 C1.61221098 29.41831647 1.59854519 26.58932358 1.4375 22.4375 C1.3941982 17.57014351 1.3941982 17.57014351 0 13 C-0.07092842 10.7927077 -0.08415025 8.58332548 -0.0625 6.375 C-0.05347656 5.18648438 -0.04445313 3.99796875 -0.03515625 2.7734375 C-0.02355469 1.85820312 -0.01195313 0.94296875 0 0 Z " fill="#D36447" transform="translate(81,284)"/>
<path d="M0 0 C2.31 0.33 4.62 0.66 7 1 C3.62116147 3.83550771 -0.08302044 5.46653828 -4.125 7.125 C-8.60775573 8.96215126 -8.60775573 8.96215126 -13 11 C-12.6875 9.125 -12.6875 9.125 -12 7 C-11.01 6.34 -10.02 5.68 -9 5 C-8.34 4.34 -7.68 3.68 -7 3 C-7 3.66 -7 4.32 -7 5 C-5.68 5 -4.36 5 -3 5 C-3 4.34 -3 3.68 -3 3 C-2.01 3 -1.02 3 0 3 C0 2.01 0 1.02 0 0 Z " fill="#E4F6FB" transform="translate(473,232)"/>
<path d="M0 0 C0.33 0 0.66 0 1 0 C1.33865141 2.99948391 1.67105073 5.99944926 2 9 C2.14308594 10.25876953 2.14308594 10.25876953 2.2890625 11.54296875 C2.85214909 16.73140945 3.09664316 21.78126961 3 27 C2.690625 26.360625 2.38125 25.72125 2.0625 25.0625 C1.1654837 23.06389179 1.1654837 23.06389179 0 22 C-0.08700342 20.36527118 -0.10701063 18.72685945 -0.09765625 17.08984375 C-0.09443359 16.10048828 -0.09121094 15.11113281 -0.08789062 14.09179688 C-0.07951172 13.05087891 -0.07113281 12.00996094 -0.0625 10.9375 C-0.05798828 9.89271484 -0.05347656 8.84792969 -0.04882812 7.77148438 C-0.03699913 5.1809334 -0.02051689 2.59049441 0 0 Z " fill="#FCDBCF" transform="translate(31,138)"/>
<path d="M0 0 C0.625 1.875 0.625 1.875 1 4 C-1.48441164 6.48441164 -3.53793834 6.55681238 -6.9296875 7.046875 C-9.40923732 6.99073425 -10.8779436 6.23707324 -13 5 C-11.21046815 4.16209211 -9.41830305 3.32980604 -7.625 2.5 C-6.62726563 2.0359375 -5.62953125 1.571875 -4.6015625 1.09375 C-2 0 -2 0 0 0 Z " fill="#B2C2CD" transform="translate(408,236)"/>
<path d="M0 0 C0.33 0 0.66 0 1 0 C3.43802084 6.61337149 3.22824645 12.95248062 3.125 19.9375 C3.11597656 21.09830078 3.10695313 22.25910156 3.09765625 23.45507812 C3.07421162 26.30360108 3.04139522 29.15169078 3 32 C2.67 32 2.34 32 2 32 C1.66106419 28.16714075 1.32987213 24.33364909 1 20.5 C0.85691406 18.88351563 0.85691406 18.88351563 0.7109375 17.234375 C0.21837674 11.46437756 -0.11244203 5.79076447 0 0 Z " fill="#3B87B8" transform="translate(352,208)"/>
<path d="M0 0 C2.97 0 5.94 0 9 0 C6.85785764 2.14214236 5.88402574 2.4947885 3.04296875 3.2890625 C2.25986328 3.50820313 1.47675781 3.72734375 0.66992188 3.953125 C-0.14927734 4.17484375 -0.96847656 4.3965625 -1.8125 4.625 C-2.62009766 4.85445313 -3.42769531 5.08390625 -4.25976562 5.3203125 C-8.25218409 6.41896328 -11.81744021 7.32238798 -16 7 C-12.72327085 4.09707248 -10.04717391 3.41970936 -5.75 2.8125 C-4.13351562 2.57466797 -4.13351562 2.57466797 -2.484375 2.33203125 C-1.66453125 2.22246094 -0.8446875 2.11289062 0 2 C0 1.34 0 0.68 0 0 Z " fill="#2E7EB0" transform="translate(533,369)"/>
<path d="M0 0 C0.33 0 0.66 0 1 0 C1.05425013 2.87525669 1.09379277 5.74947646 1.125 8.625 C1.14175781 9.43324219 1.15851562 10.24148437 1.17578125 11.07421875 C1.21420986 15.80093815 0.82737094 19.55387702 -1 24 C-1.33 24 -1.66 24 -2 24 C-1.86076462 20.74968216 -1.71245815 17.49983939 -1.5625 14.25 C-1.52318359 13.32960937 -1.48386719 12.40921875 -1.44335938 11.4609375 C-1.40146484 10.57148438 -1.35957031 9.68203125 -1.31640625 8.765625 C-1.27974854 7.94868164 -1.24309082 7.13173828 -1.20532227 6.29003906 C-1.00865725 4.0965577 -0.59699406 2.11603587 0 0 Z " fill="#D9F2FA" transform="translate(566,188)"/>
<path d="M0 0 C0.33 0 0.66 0 1 0 C3.20372285 13.22233713 3.20372285 13.22233713 0.484375 17.23828125 C-0.00546875 17.81964844 -0.4953125 18.40101563 -1 19 C-1.09507063 12.56688704 -1.15316726 6.34241995 0 0 Z " fill="#C8E6F3" transform="translate(551,349)"/>
<path d="M0 0 C6.82423338 1.23416987 13.39367844 2.8915995 20 5 C20 5.33 20 5.66 20 6 C17.69 6.33 15.38 6.66 13 7 C13 6.34 13 5.68 13 5 C7.06 4.01 7.06 4.01 1 3 C0.67 2.01 0.34 1.02 0 0 Z " fill="#2579AD" transform="translate(400,329)"/>
<path d="M0 0 C-0.99 0 -1.98 0 -3 0 C-3 0.66 -3 1.32 -3 2 C-4.27057182 2.47985967 -5.54146848 2.9588593 -6.8125 3.4375 C-7.87404297 3.83775391 -7.87404297 3.83775391 -8.95703125 4.24609375 C-10.62672396 4.86225186 -12.31157704 5.43719235 -14 6 C-14 5.34 -14 4.68 -14 4 C-15.32 3.67 -16.64 3.34 -18 3 C-15.75376301 2.30030318 -13.50283586 1.61564957 -11.25 0.9375 C-9.99703125 0.55464844 -8.7440625 0.17179687 -7.453125 -0.22265625 C-4.3261992 -0.92656828 -2.90533954 -1.16653785 0 0 Z " fill="#52B0D9" transform="translate(480,340)"/>
<path d="M0 0 C2.69082872 0.17635452 5.32851446 0.61835921 8 1 C4.55080374 3.29946417 1.8618978 3.80769035 -2.1875 4.625 C-3.45980469 4.88539063 -4.73210937 5.14578125 -6.04296875 5.4140625 C-7.50669922 5.70410156 -7.50669922 5.70410156 -9 6 C-8.67 5.01 -8.34 4.02 -8 3 C-5.68970915 2.25740651 -3.354248 1.588562 -1 1 C-0.67 0.67 -0.34 0.34 0 0 Z " fill="#DCF8FD" transform="translate(498,330)"/>
<path d="M0 0 C2.05078125 0.03255208 4.1015625 0.06510417 6.15234375 0.09765625 C3.07059385 2.15215618 0.84276805 2.84241434 -2.72265625 3.72265625 C-3.75132812 3.98304688 -4.78 4.2434375 -5.83984375 4.51171875 C-8.60644686 5.05066741 -11.04049821 5.21159993 -13.84765625 5.09765625 C-11.84765625 2.09765625 -11.84765625 2.09765625 -9.71875 1.62109375 C-8.91566406 1.57210938 -8.11257812 1.523125 -7.28515625 1.47265625 C-4.4269585 1.28058536 -2.54662806 0.13459979 0 0 Z " fill="#FEEFE0" transform="translate(169.84765625,334.90234375)"/>
<path d="M0 0 C-6.27087737 3.71607548 -10.75460274 4.53449652 -18 4 C-15.07089056 2.04726038 -12.91867709 1.24603637 -9.5625 0.3125 C-8.61503906 0.04050781 -7.66757813 -0.23148437 -6.69140625 -0.51171875 C-4.01081763 -0.99803744 -2.53712417 -0.89369149 0 0 Z " fill="#FBDBCF" transform="translate(182,384)"/>
<path d="M0 0 C6.48472993 0.73690113 12.69239743 2.35318751 19 4 C19 4.33 19 4.66 19 5 C12.81599033 4.51845826 6.94065578 3.8362027 1 2 C0.67 1.34 0.34 0.68 0 0 Z " fill="#C0DCEF" transform="translate(429,308)"/>
<path d="M0 0 C0.33 0.66 0.66 1.32 1 2 C1.66 2 2.32 2 3 2 C3.33 1.34 3.66 0.68 4 0 C4 1.98 4 3.96 4 6 C1.69 6 -0.62 6 -3 6 C-2 4 -1 2 0 0 Z " fill="#E86A33" transform="translate(171,301)"/>
<path d="M0 0 C4.875 2.625 4.875 2.625 6 6 C6.99 6.66 7.98 7.32 9 8 C2.25 7.25 2.25 7.25 0 5 C-0.125 2.375 -0.125 2.375 0 0 Z " fill="#F3D7CE" transform="translate(87,323)"/>
<path d="M0 0 C0.33 0 0.66 0 1 0 C1.10477512 5.78591511 0.99250545 11.29309366 0 17 C-0.99 17 -1.98 17 -3 17 C-2.01 11.39 -1.02 5.78 0 0 Z " fill="#CCF5FD" transform="translate(516,312)"/>
<path d="M0 0 C1.77226453 0.28284018 3.542788 0.57660498 5.3125 0.875 C6.29863281 1.03742188 7.28476563 1.19984375 8.30078125 1.3671875 C11 2 11 2 14 4 C10.37 4 6.74 4 3 4 C2.67 3.01 2.34 2.02 2 1 C1.34 0.67 0.68 0.34 0 0 Z " fill="#D95938" transform="translate(86,329)"/>
<path d="M0 0 C2.64 0 5.28 0 8 0 C8 0.66 8 1.32 8 2 C9.134375 2.12375 10.26875 2.2475 11.4375 2.375 C12.613125 2.58125 13.78875 2.7875 15 3 C15.33 3.66 15.66 4.32 16 5 C13.70650932 4.55088303 11.41523782 4.09042056 9.125 3.625 C7.21074219 3.24214844 7.21074219 3.24214844 5.2578125 2.8515625 C2 2 2 2 0 0 Z " fill="#DA6F58" transform="translate(124,309)"/>
<path d="M0 0 C0.79921875 0.00902344 1.5984375 0.01804688 2.421875 0.02734375 C3.02515625 0.03894531 3.6284375 0.05054688 4.25 0.0625 C1.75494038 2.55755962 0.57671112 2.42198376 -2.875 2.6875 C-3.78507813 2.76226562 -4.69515625 2.83703125 -5.6328125 2.9140625 C-6.68082031 2.98753906 -6.68082031 2.98753906 -7.75 3.0625 C-8.08 2.4025 -8.41 1.7425 -8.75 1.0625 C-5.75519083 0.1901588 -3.11424089 -0.04579766 0 0 Z " fill="#BDC6CD" transform="translate(519.75,213.9375)"/>
<path d="M0 0 C0.33 0 0.66 0 1 0 C1 1.65 1 3.3 1 5 C3.31 5 5.62 5 8 5 C8 5.66 8 6.32 8 7 C9.65 7.33 11.3 7.66 13 8 C9.57056481 9.18771723 7.62215325 8.80226223 4.25 7.5625 C3.45078125 7.27503906 2.6515625 6.98757813 1.828125 6.69140625 C1.22484375 6.46324219 0.6215625 6.23507812 0 6 C0 4.02 0 2.04 0 0 Z " fill="#3C86B5" transform="translate(366,362)"/>
<path d="M0 0 C0.33 0 0.66 0 1 0 C1.19504458 2.10348074 1.38078496 4.20782585 1.5625 6.3125 C1.66691406 7.48425781 1.77132812 8.65601563 1.87890625 9.86328125 C2 13 2 13 1 16 C0.34 16 -0.32 16 -1 16 C-0.67 10.72 -0.34 5.44 0 0 Z " fill="#F9CDC1" transform="translate(237,349)"/>
<path d="M0 0 C5.841744 -0.35050464 9.8531808 -0.16727335 15 3 C11.34142468 4.31534494 8.91973519 3.65468309 5.25 2.5625 C4.26515625 2.27503906 3.2803125 1.98757813 2.265625 1.69140625 C1.51796875 1.46324219 0.7703125 1.23507812 0 1 C0 0.67 0 0.34 0 0 Z " fill="#B7D9ED" transform="translate(445,341)"/>
<path d="M0 0 C0 0.99 0 1.98 0 3 C-0.66 3 -1.32 3 -2 3 C-2.33 3.66 -2.66 4.32 -3 5 C-5.97 5 -8.94 5 -12 5 C-8.45976076 2.63984051 -4.36489861 0 0 0 Z " fill="#ADC5D5" transform="translate(420,231)"/>
<path d="M0 0 C0.33 0 0.66 0 1 0 C1.22370596 2.20682907 1.42830391 4.41559973 1.625 6.625 C1.74101562 7.85476562 1.85703125 9.08453125 1.9765625 10.3515625 C2.00034163 14.05318114 1.37441976 16.59017997 0 20 C-0.33 20 -0.66 20 -1 20 C-0.67 13.4 -0.34 6.8 0 0 Z " fill="#FACABC" transform="translate(255,144)"/>
<path d="M0 0 C-3.28491373 2.18994248 -4.83095639 2.35277339 -8.6875 2.625 C-10.17830078 2.73714844 -10.17830078 2.73714844 -11.69921875 2.8515625 C-12.83810547 2.92503906 -12.83810547 2.92503906 -14 3 C-11.87033995 0.87033995 -10.95931796 0.52375338 -8.125 -0.1875 C-7.44695313 -0.36667969 -6.76890625 -0.54585938 -6.0703125 -0.73046875 C-3.77181444 -1.02970718 -2.19449036 -0.69377386 0 0 Z " fill="#D0ECF7" transform="translate(536,373)"/>
<path d="M0 0 C-0.99 0.66 -1.98 1.32 -3 2 C-2.34 2.66 -1.68 3.32 -1 4 C-3.97 4 -6.94 4 -10 4 C-4 -2 -4 -2 0 0 Z " fill="#5CB2D5" transform="translate(473,238)"/>
<path d="M0 0 C4.55737263 0.43820891 7.57653445 0.85041169 11 4 C3.375 3.125 3.375 3.125 0 2 C0 1.34 0 0.68 0 0 Z " fill="#3B87B4" transform="translate(383,371)"/>
<path d="M0 0 C0 0.66 0 1.32 0 2 C-1.24176695 2.70226141 -2.49385599 3.38629109 -3.75 4.0625 C-4.79414063 4.63677734 -4.79414063 4.63677734 -5.859375 5.22265625 C-8.36140628 6.1312406 -9.5332355 5.88336837 -12 5 C-10.37750059 4.16180842 -8.75191503 3.3295884 -7.125 2.5 C-6.22007812 2.0359375 -5.31515625 1.571875 -4.3828125 1.09375 C-2 0 -2 0 0 0 Z " fill="#59B0D7" transform="translate(486,231)"/>
<path d="M0 0 C2.31 0 4.62 0 7 0 C4.0567344 1.96217707 1.24021262 3.58240698 -2 5 C-2.99 4.67 -3.98 4.34 -5 4 C-2 2 -2 2 0 2 C0 1.34 0 0.68 0 0 Z " fill="#C3DBE8" transform="translate(492,225)"/>
<path d="M0 0 C0.66 0 1.32 0 2 0 C2 0.66 2 1.32 2 2 C2.66 2 3.32 2 4 2 C3.34 3.65 2.68 5.3 2 7 C1.34 7 0.68 7 0 7 C-0.66666667 5.66666667 -1.33333333 4.33333333 -2 3 C-1.34 3 -0.68 3 0 3 C0 2.01 0 1.02 0 0 Z " fill="#D3D6DB" transform="translate(420,231)"/>
<path d="M0 0 C-1.28965176 1.37562854 -2.62689293 2.70766393 -4 4 C-4.66 4 -5.32 4 -6 4 C-6 3.34 -6 2.68 -6 2 C-7.65 2 -9.3 2 -11 2 C-11 1.67 -11 1.34 -11 1 C-3.57142857 -1.42857143 -3.57142857 -1.42857143 0 0 Z " fill="#FBDFD3" transform="translate(152,392)"/>
<path d="M0 0 C-2 2 -2 2 -3.9453125 2.1953125 C-5.96354167 2.13020833 -7.98177083 2.06510417 -10 2 C-6.80505194 -1.19494806 -4.22040044 -1.35655728 0 0 Z " fill="#FDDED3" transform="translate(236,369)"/>
<path d="M0 0 C7.50769231 -0.36923077 7.50769231 -0.36923077 10 1.5 C10.495 2.2425 10.495 2.2425 11 3 C9.741875 2.87625 8.48375 2.7525 7.1875 2.625 C6.12595703 2.52058594 6.12595703 2.52058594 5.04296875 2.4140625 C3 2 3 2 0 0 Z " fill="#4890BD" transform="translate(408,379)"/>
<path d="M0 0 C-3.6441774 2.4294516 -5.71241272 2.16179575 -10 2 C-10 1.34 -10 0.68 -10 0 C-6.33694766 -0.74926071 -3.57644848 -1.2380014 0 0 Z " fill="#FBEADF" transform="translate(150,315)"/>
<path d="M0 0 C2.31 0.33 4.62 0.66 7 1 C4.37801226 3.15377564 2.35595828 4.40072174 -1 5 C-0.67 3.35 -0.34 1.7 0 0 Z " fill="#D1EDF7" transform="translate(473,232)"/>
<path d="M0 0 C0 0.66 0 1.32 0 2 C-5.45769231 5.10096154 -5.45769231 5.10096154 -8.203125 4.58984375 C-8.79609375 4.39519531 -9.3890625 4.20054687 -10 4 C-8.71086513 3.32845067 -7.41859796 2.66291141 -6.125 2 C-5.40570312 1.62875 -4.68640625 1.2575 -3.9453125 0.875 C-2 0 -2 0 0 0 Z " fill="#6BB2D3" transform="translate(520,216)"/>
<path d="M0 0 C1.65 0 3.3 0 5 0 C4.01 0.66 3.02 1.32 2 2 C3.32 2.66 4.64 3.32 6 4 C3.36 4 0.72 4 -2 4 C-2 3.34 -2 2.68 -2 2 C-1.34 2 -0.68 2 0 2 C0 1.34 0 0.68 0 0 Z " fill="#CACFCF" transform="translate(510,214)"/>
<path d="M0 0 C-3.63423209 2.32590854 -6.77088331 2.16265833 -11 2 C-6.98764085 -0.6749061 -4.6342454 -1.48957888 0 0 Z " fill="#FBDACD" transform="translate(164,389)"/>
<path d="M0 0 C6.52307692 -0.36923077 6.52307692 -0.36923077 8.9375 1.5 C9.288125 1.995 9.63875 2.49 10 3 C2.25 2.25 2.25 2.25 0 0 Z " fill="#D7684E" transform="translate(110,383)"/>
<path d="M0 0 C1.32 0.33 2.64 0.66 4 1 C2.68 2.32 1.36 3.64 0 5 C-0.99 4.67 -1.98 4.34 -3 4 C-2.34 3.34 -1.68 2.68 -1 2 C-0.67 1.34 -0.34 0.68 0 0 Z " fill="#E5F9FA" transform="translate(510,326)"/>
</svg>
