<?xml version="1.0" encoding="UTF-8"?>
<svg version="1.1" xmlns="http://www.w3.org/2000/svg" width="300" height="450">
<path d="M0 0 C99 0 198 0 300 0 C300 148.5 300 297 300 450 C201 450 102 450 0 450 C0 301.5 0 153 0 0 Z " fill="#FEFEFE" transform="translate(0,0)"/>
<path d="M0 0 C73.92 0 147.84 0 224 0 C223.39861243 12.02775132 222.76141363 23.9404284 221.66015625 35.9140625 C221.5314659 37.34773325 221.40317599 38.78143999 221.2752533 40.21517944 C220.94234269 43.93709378 220.6051164 47.65860212 220.26654053 51.38000488 C219.72940404 57.28995227 219.19789394 63.20040872 218.66795921 69.11100578 C218.53791477 70.56128673 218.40766751 72.01154951 218.27721596 73.4617939 C217.42211052 82.98128021 216.63319742 92.50369174 215.921875 102.03515625 C215.23499894 111.23337399 214.40364215 120.4019398 213.42523193 129.57327271 C212.00992033 142.90427253 210.78485537 156.24765617 209.69921875 169.609375 C209.61666242 170.62467317 209.61666242 170.62467317 209.53243828 171.66048241 C209.0341283 177.80038881 208.5405923 183.94066498 208.05941772 190.0819397 C205.86651138 218.06333789 205.86651138 218.06333789 204 230 C200.0803758 231.61869572 196.33794355 232.66287506 192.1875 233.5625 C183.29151706 235.5692967 174.52412461 238.02478045 165.75 240.5 C165.06980804 240.69127472 164.38961609 240.88254944 163.68881226 241.07962036 C156.74502823 243.03482258 149.82165881 245.03816306 142.93359375 247.18359375 C138.75153494 248.48280544 134.59954128 249.65243383 130.3125 250.5625 C126.3554359 251.42438761 122.58079608 252.44149006 118.75 253.75 C113.177506 255.48064448 108.10687444 255.2616749 102.69140625 253.0625 C99.42831257 251.77431207 96.16308359 250.99931644 92.75 250.1875 C86.99445668 248.78945953 81.29981232 247.25859574 75.625 245.5625 C62.72614395 241.71176427 49.75452766 238.14709405 36.71923828 234.78710938 C31.10282872 233.32894364 25.54828179 231.69836496 20 230 C18.21433777 211.13122816 16.46738593 192.25915972 14.75830078 173.38330078 C14.58106661 171.42610569 14.40382005 169.46891172 14.2265625 167.51171875 C14.13376007 166.4869342 14.04095764 165.46214966 13.94534302 164.40631104 C13.24241455 156.65271353 12.53342023 148.89968314 11.82261658 141.14680481 C8.73008194 107.41580195 5.67248602 73.68210616 2.76207733 39.93483734 C2.56359367 37.6376577 2.36400848 35.34057617 2.16412354 33.04351807 C1.8521885 29.45641986 1.54338635 25.86906571 1.23712349 22.28147888 C1.07197342 20.3540362 0.90406905 18.42683013 0.73606873 16.49963379 C0.63826614 15.34427124 0.54046356 14.18890869 0.43969727 12.99853516 C0.31148338 11.50490952 0.31148338 11.50490952 0.18067932 9.98110962 C-0.0206296 6.65962289 0 3.32758161 0 0 Z " fill="#DAB92D" transform="translate(39,131)"/>
<path d="M0 0 C30.03 0 60.06 0 91 0 C91 14.62358277 91 14.62358277 90.44921875 20.73046875 C90.39078796 21.3968335 90.33235718 22.06319824 90.27215576 22.74975586 C90.08268027 24.89619379 89.88525868 27.04181087 89.6875 29.1875 C89.55100693 30.71195016 89.41503104 32.2364467 89.27954102 33.76098633 C88.9982379 36.91902582 88.71392263 40.07677469 88.42773438 43.234375 C88.00518234 47.91546677 87.60238503 52.59812284 87.203125 57.28125 C87.01004186 59.52986253 86.81659045 61.778443 86.62295532 64.02700806 C86.50183232 65.43805015 86.38149711 66.84916014 86.26205444 68.26034546 C85.6397656 75.58970973 84.91868349 82.88974062 83.97265625 90.18359375 C83.08047965 97.06987573 82.46676783 103.94757266 82 110.875 C81.83099118 113.25001866 81.66171417 115.62501825 81.4921875 118 C81.40936523 119.17949219 81.32654297 120.35898437 81.24121094 121.57421875 C79.49240875 146.4114579 77.2371037 171.20299179 75 196 C73.68 196 72.36 196 71 196 C71 196.66 71 197.32 71 198 C70.10925781 198.1959375 69.21851563 198.391875 68.30078125 198.59375 C51.57333342 202.36288511 35.0661241 207.0640456 18.60546875 211.8515625 C17.64092773 212.1314502 16.67638672 212.41133789 15.68261719 212.69970703 C13.90178375 213.21887921 12.12238273 213.74300012 10.34472656 214.27294922 C9.55936523 214.50256348 8.77400391 214.73217773 7.96484375 214.96875 C7.2905835 215.16919922 6.61632324 215.36964844 5.92163086 215.57617188 C4 216 4 216 0 216 C0 144.72 0 73.44 0 0 Z " fill="#FDD83C" transform="translate(151,150)"/>
<path d="M0 0 C21.12 0 42.24 0 64 0 C64 12 64 12 62 28 C50.78 28 39.56 28 28 28 C28.33 37.24 28.66 46.48 29 56 C43.85 56.495 43.85 56.495 59 57 C58.52631609 67.81578264 57.93519063 78.58907685 57 89.375 C56.8755249 90.82628296 56.8755249 90.82628296 56.74853516 92.30688477 C56.43082854 95.85939402 56.11087615 99.36181248 55.5 102.87792969 C54.96552354 106.21527587 54.70732781 109.49394552 54.5 112.8671875 C54.4175 114.16527344 54.335 115.46335937 54.25 116.80078125 C54.1663671 118.15883575 54.0830359 119.51690887 54 120.875 C53.01363937 136.92262513 53.01363937 136.92262513 52 144 C51.07888428 144.24907104 51.07888428 144.24907104 50.13916016 144.50317383 C47.30072591 145.27154997 44.46286247 146.04201488 41.625 146.8125 C40.65949219 147.07353516 39.69398438 147.33457031 38.69921875 147.60351562 C33.96343108 148.89075992 29.23467931 150.19960192 24.5234375 151.57421875 C23.74661621 151.80069092 22.96979492 152.02716309 22.16943359 152.26049805 C19.97781649 152.94855154 19.97781649 152.94855154 17.96044922 154.04956055 C14.75063586 155.60570045 11.25598204 155.74668205 7.75 156.125 C3.91375 156.558125 3.91375 156.558125 0 157 C0 147.43 0 137.86 0 128 C7.96336724 125.65783316 15.82139056 123.43219889 24 122 C25.0654283 118.8037151 25.28331284 116.15234523 25.5 112.79296875 C25.62375 110.9531543 25.62375 110.9531543 25.75 109.07617188 C25.8325 107.79291016 25.915 106.50964844 26 105.1875 C26.16397493 102.65998018 26.33055195 100.13262754 26.5 97.60546875 C26.5721875 96.48293701 26.644375 95.36040527 26.71875 94.20385742 C26.98962494 91.11818743 27.49076813 88.05539121 28 85 C18.76 85 9.52 85 0 85 C0 56.95 0 28.9 0 0 Z " fill="#FEFEFA" transform="translate(156,178)"/>
<path d="M0 0 C8.58 0 17.16 0 26 0 C26 51.81 26 103.62 26 157 C17.00670934 155.87583867 17.00670934 155.87583867 12.72265625 154.66015625 C11.33336914 154.2724707 11.33336914 154.2724707 9.91601562 153.87695312 C8.50352539 153.47379883 8.50352539 153.47379883 7.0625 153.0625 C1.03879238 151.36095785 -4.96117549 149.74993236 -11.08178711 148.43579102 C-13.38262485 147.91307301 -15.58923962 147.22533438 -17.8125 146.4375 C-20.52541407 145.48377975 -23.20683907 144.68217374 -26 144 C-26.12846313 142.54146606 -26.12846313 142.54146606 -26.25952148 141.0534668 C-26.58179573 137.39492456 -26.90427284 133.73640022 -27.22680664 130.07788086 C-27.36553259 128.5039924 -27.50420583 126.93009928 -27.64282227 125.35620117 C-27.84376897 123.07469433 -28.04491459 120.7932051 -28.24609375 118.51171875 C-28.3065538 117.82478439 -28.36701385 117.13785004 -28.42930603 116.43009949 C-28.94202967 110.61901641 -29.47183887 104.80977246 -30 99 C-22.08 99 -14.16 99 -6 99 C-5.67 106.26 -5.34 113.52 -5 121 C-0.545 121.99 -0.545 121.99 4 123 C3.9498877 122.11594482 3.89977539 121.23188965 3.84814453 120.32104492 C1.60116848 80.24487687 -0.50013483 40.14971236 0 0 Z " fill="#FEFDF9" transform="translate(118,178)"/>
<path d="M0 0 C11.88 0 23.76 0 36 0 C36 3.63 36 7.26 36 11 C31.05 11.33 26.1 11.66 21 12 C23.52496655 14.52496655 26.05323571 17.04919446 28.67578125 19.47265625 C29.54589844 20.32730469 30.41601562 21.18195313 31.3125 22.0625 C32.19550781 22.89910156 33.07851562 23.73570313 33.98828125 24.59765625 C36 28 36 28 36 40 C24.12 40 12.24 40 0 40 C0 36.37 0 32.74 0 29 C5.28 28.67 10.56 28.34 16 28 C14.453125 26.453125 12.90625 24.90625 11.3125 23.3125 C7.54166667 19.54166667 3.77083333 15.77083333 0 12 C0 8.04 0 4.08 0 0 Z " fill="#0A0A0A" transform="translate(152,71)"/>
<path d="M0 0 C4.62 0 9.24 0 14 0 C14 13.2 14 26.4 14 40 C3.44 40 -7.12 40 -18 40 C-18 35.05 -18 30.1 -18 25 C-13.71 25 -9.42 25 -5 25 C-5 25.99 -5 26.98 -5 28 C-3.35 28 -1.7 28 0 28 C0 18.76 0 9.52 0 0 Z " fill="#0B0B0B" transform="translate(132,71)"/>
<path d="M0 0 C73.92 0 147.84 0 224 0 C223.67 6.6 223.34 13.2 223 20 C222.67 20 222.34 20 222 20 C222 14.06 222 8.12 222 2 C149.4 2 76.8 2 2 2 C2 7.61 2 13.22 2 19 C1.67 19 1.34 19 1 19 C0.67 12.73 0.34 6.46 0 0 Z " fill="#DAC264" transform="translate(39,131)"/>
<path d="M0 0 C11.22 0 22.44 0 34 0 C33.67 0.66 33.34 1.32 33 2 C23.1 2.33 13.2 2.66 3 3 C3 10.92 3 18.84 3 27 C10.25406724 26.96065522 10.25406724 26.96065522 17.50805664 26.90991211 C22.78490299 26.89553125 27.80344891 27.0638837 33 28 C33.495 33.445 33.495 33.445 34 39 C33.01 39.33 32.02 39.66 31 40 C31 46.93 31 53.86 31 61 C30.34 61 29.68 61 29 61 C29.05220703 62.87365234 29.05220703 62.87365234 29.10546875 64.78515625 C29.35955133 78.42753812 28.08681879 91.52632865 26 105 C25.67 105 25.34 105 25 105 C24.7193324 90.28054349 26.14473455 75.69686157 27.67773438 61.07861328 C28.05458163 57.47858004 28.42596263 53.87799203 28.796875 50.27734375 C29.52799901 43.18455775 30.2630159 36.09217968 31 29 C30.09644775 29.00523682 29.19289551 29.01047363 28.26196289 29.01586914 C24.92048511 29.03287686 21.57905308 29.04543333 18.23754883 29.05493164 C16.78929927 29.05997101 15.34105483 29.06680253 13.89282227 29.07543945 C11.81525412 29.08752247 9.73775303 29.09323211 7.66015625 29.09765625 C6.40855713 29.10289307 5.15695801 29.10812988 3.86743164 29.11352539 C1 29 1 29 0 28 C-0.08767112 25.92737924 -0.10695873 23.85179706 -0.09765625 21.77734375 C-0.09515869 20.64288818 -0.09266113 19.50843262 -0.09008789 18.33959961 C-0.08098389 16.88690674 -0.07187988 15.43421387 -0.0625 13.9375 C-0.041875 9.338125 -0.02125 4.73875 0 0 Z " fill="#F5DC6B" transform="translate(184,206)"/>
<path d="M0 0 C0.87255053 0.00291284 1.74510105 0.00582568 2.6440925 0.00882679 C4.02357306 0.00754515 4.02357306 0.00754515 5.43092191 0.00623763 C8.53723064 0.00458 11.64348631 0.01010879 14.74979013 0.01555592 C16.9666582 0.01583776 19.18352636 0.01568013 21.40039438 0.01511341 C27.43940687 0.0148253 33.47839969 0.02072421 39.5174076 0.02768737 C45.82085519 0.03391867 52.12430319 0.03452453 58.42775339 0.03571278 C69.01443182 0.03847247 79.60110376 0.04472799 90.18777841 0.05364186 C101.09402804 0.06281528 112.00027571 0.06989645 122.90652841 0.07414967 C123.57833969 0.07441239 124.25015098 0.07467512 124.94232018 0.0749458 C128.31246556 0.0762508 131.68261096 0.07751452 135.05275637 0.0787577 C163.02916526 0.0892236 191.00556605 0.10682433 218.98196787 0.12908131 C218.98196787 0.45908131 218.98196787 0.78908131 218.98196787 1.12908131 C145.06196787 1.12908131 71.14196787 1.12908131 -5.01803213 1.12908131 C-4.02803213 10.69908131 -3.03803213 20.26908131 -2.01803213 30.12908131 C-2.01803213 32.76908131 -2.01803213 35.40908131 -2.01803213 38.12908131 C-6.50258777 33.64452568 -5.07267976 23.93325855 -5.08053213 17.87908131 C-5.06487712 16.29568831 -5.04608134 14.71230325 -5.01803213 13.12908131 C-5.67803213 13.12908131 -6.33803213 13.12908131 -7.01803213 13.12908131 C-7.04489766 11.14998733 -7.06436589 9.1707916 -7.08053213 7.19158131 C-7.0921337 6.08943287 -7.10373526 4.98728443 -7.11568838 3.85173756 C-6.93568311 -1.16680944 -4.39642012 0.01114022 0 0 Z " fill="#FDFCD8" transform="translate(44.018032133579254,129.8709186911583)"/>
<path d="M0 0 C0.33 0 0.66 0 1 0 C1.03536362 1.00937119 1.07072723 2.01874237 1.10716248 3.05870056 C1.44467974 12.69001203 1.78285795 22.32130011 2.12164211 31.9525671 C2.29568763 36.90106551 2.46952038 41.84957119 2.64282227 46.7980957 C2.8432545 52.5203683 3.04439974 58.24261549 3.24609375 63.96484375 C3.27880812 64.89392988 3.31152248 65.82301601 3.3452282 66.78025627 C3.76704898 78.73707485 4.20364161 90.69285243 4.7184906 102.64610291 C5.00468246 109.43459892 5.1215819 116.20492261 5 123 C2.69 122.67 0.38 122.34 -2 122 C-0.02 121.505 -0.02 121.505 2 121 C1.89232603 113.13285702 1.77965815 105.26580269 1.66066074 97.39882374 C1.60555809 93.74564852 1.55215885 90.09246512 1.50268555 86.43920898 C1.45485462 82.91190059 1.40250602 79.38468524 1.34705925 75.85748863 C1.31683966 73.86066974 1.29126716 71.86378226 1.26576233 69.86689758 C1.24581711 68.64600937 1.22587189 67.42512115 1.20532227 66.16723633 C1.18977798 65.09468094 1.1742337 64.02212555 1.15821838 62.91706848 C1.00927966 60.17108881 0.5391756 57.68961935 0 55 C-0.08364895 53.12933519 -0.11783006 51.25607408 -0.11352539 49.38354492 C-0.11344986 48.28278122 -0.11337433 47.18201752 -0.11329651 46.04789734 C-0.10813522 44.8706459 -0.10297394 43.69339447 -0.09765625 42.48046875 C-0.0962413 41.26676102 -0.09482635 40.05305328 -0.09336853 38.80256653 C-0.08777665 34.93085248 -0.07522558 31.05919653 -0.0625 27.1875 C-0.05748395 24.56054771 -0.05292123 21.93359451 -0.04882812 19.30664062 C-0.03780987 12.87107397 -0.02107976 6.43554114 0 0 Z " fill="#DAC360" transform="translate(117,178)"/>
<path d="M0 0 C1.5509962 2.77620176 2.26171647 4.86551801 2.37890625 8.0390625 C2.41306641 8.78414062 2.44722656 9.52921875 2.48242188 10.296875 C2.50884766 11.06515625 2.53527344 11.8334375 2.5625 12.625 C2.54282656 17.97600221 2.54282656 17.97600221 4 23 C4.18816455 25.64923741 4.32827309 28.28484648 4.4375 30.9375 C4.76901275 37.81498489 5.28469154 44.65159597 6 51.5 C6.08306396 52.31847412 6.16612793 53.13694824 6.25170898 53.98022461 C6.62969441 58.12080438 6.62969441 58.12080438 8 62 C8.14128517 63.77680673 8.22594863 65.55828673 8.28125 67.33984375 C8.31863281 68.40267578 8.35601562 69.46550781 8.39453125 70.56054688 C8.42933594 71.67494141 8.46414062 72.78933594 8.5 73.9375 C8.56884752 76.13424589 8.64158753 78.33087421 8.71875 80.52734375 C8.74904297 81.50437256 8.77933594 82.48140137 8.81054688 83.48803711 C8.90686937 86.12724944 8.90686937 86.12724944 10 89 C10.08178114 90.70016844 10.10749501 92.40336297 10.09765625 94.10546875 C10.09443359 95.08837891 10.09121094 96.07128906 10.08789062 97.08398438 C10.07951172 98.10814453 10.07113281 99.13230469 10.0625 100.1875 C10.05798828 101.22326172 10.05347656 102.25902344 10.04882812 103.32617188 C10.0370401 105.88417266 10.02058515 108.44205733 10 111 C9.67 111 9.34 111 9 111 C2.97826704 49.04055055 2.97826704 49.04055055 1.125 25.6875 C1.06388031 24.93297546 1.00276062 24.17845093 0.93978882 23.40106201 C0.31173915 15.59448358 -0.18945867 7.83680593 0 0 Z " fill="#D8C15F" transform="translate(41,150)"/>
<path d="M0 0 C7.92 0 15.84 0 24 0 C24.33 7.26 24.66 14.52 25 22 C27.97 22.66 30.94 23.32 34 24 C34 24.66 34 25.32 34 26 C31.36 25.67 28.72 25.34 26 25 C26 24.34 26 23.68 26 23 C25.01 23 24.02 23 23 23 C22.67 16.07 22.34 9.14 22 2 C15.73 2 9.46 2 3 2 C3 8.93 3 15.86 3 23 C3.66 23 4.32 23 5 23 C5 29.93 5 36.86 5 44 C5.99 44.33 6.98 44.66 8 45 C6.68 45 5.36 45 4 45 C3.91435791 44.02764404 3.82871582 43.05528809 3.74047852 42.0534668 C3.41820427 38.39492456 3.09572716 34.73640022 2.77319336 31.07788086 C2.63446741 29.5039924 2.49579417 27.93009928 2.35717773 26.35620117 C2.15623103 24.07469433 1.95508541 21.7932051 1.75390625 19.51171875 C1.6934462 18.82478439 1.63298615 18.13785004 1.57069397 17.43009949 C1.05797033 11.61901641 0.52816113 5.80977246 0 0 Z " fill="#FBF5CC" transform="translate(88,277)"/>
<path d="M0 0 C11.22 0 22.44 0 34 0 C33.67 0.66 33.34 1.32 33 2 C23.1 2.33 13.2 2.66 3 3 C3 10.92 3 18.84 3 27 C10.59 27 18.18 27 26 27 C26 27.33 26 27.66 26 28 C17.42 28 8.84 28 0 28 C0 18.76 0 9.52 0 0 Z " fill="#FADC5D" transform="translate(184,206)"/>
<path d="M0 0 C0.66 0 1.32 0 2 0 C1.45037097 13.1251768 0.54573044 26.18023954 -0.67098999 39.25994873 C-1.12748032 44.16733743 -1.57142491 49.07586092 -2.015625 53.984375 C-2.10245041 54.941091 -2.18927582 55.89780701 -2.2787323 56.8835144 C-3.07610151 65.72471668 -3.77560705 74.5713494 -4.40405273 83.42626953 C-4.75844615 88.32591954 -5.23131516 93.14725916 -6 98 C-6.33 98 -6.66 98 -7 98 C-7.26236587 88.07952809 -6.544898 78.27028528 -5.77319336 68.3894043 C-5.56160285 65.67599508 -5.35742928 62.96210112 -5.15429688 60.24804688 C-5.02126547 58.50257118 -4.88781667 56.75712723 -4.75390625 55.01171875 C-4.6934462 54.21054123 -4.63298615 53.40936371 -4.57069397 52.58390808 C-4.21136487 48.02199996 -3.65288012 43.531042 -3 39 C-2.86647018 37.16980003 -2.75953723 35.33739875 -2.68359375 33.50390625 C-2.64169922 32.53388672 -2.59980469 31.56386719 -2.55664062 30.56445312 C-2.49766602 29.07848633 -2.49766602 29.07848633 -2.4375 27.5625 C-2.39431641 26.54478516 -2.35113281 25.52707031 -2.30664062 24.47851562 C-2.20131418 21.98578972 -2.09918328 19.49297662 -2 17 C-1.34 17 -0.68 17 0 17 C0 11.39 0 5.78 0 0 Z " fill="#D7C159" transform="translate(259,154)"/>
<path d="M0 0 C0.33 0 0.66 0 1 0 C1.02892857 3.95831809 1.04677427 7.91660917 1.0625 11.875 C1.07087891 13.00292969 1.07925781 14.13085938 1.08789062 15.29296875 C1.09111328 16.36933594 1.09433594 17.44570312 1.09765625 18.5546875 C1.10289307 19.54968262 1.10812988 20.54467773 1.11352539 21.56982422 C1 24 1 24 0 26 C-0.3905046 28.31557026 -0.71880649 30.60784444 -1 32.9375 C-1.08830078 33.66243652 -1.17660156 34.38737305 -1.26757812 35.13427734 C-2.20465791 43.61137875 -2.40004585 52.12208647 -2.5703125 60.64428711 C-2.71955367 66.48546766 -3.10571694 71.47133665 -5 77 C-5.36950465 79.32787927 -5.71352467 81.66045145 -6 84 C-6.33 84 -6.66 84 -7 84 C-7.07602827 78.02070862 -6.84157947 72.22614488 -6.1953125 66.28515625 C-6.11186081 65.47973389 -6.02840912 64.67431152 -5.94242859 63.84448242 C-5.76491347 62.13214565 -5.58554921 60.41999969 -5.40444946 58.70803833 C-4.9318088 54.23356567 -4.47439539 49.75756064 -4.01953125 45.28125 C-3.92961411 44.39663589 -3.83969696 43.51202179 -3.74705505 42.6006012 C-2.89049642 34.07880515 -2.20083656 25.54961674 -1.59619141 17.00610352 C-1.19303473 11.31651829 -0.66818066 5.66500995 0 0 Z " fill="#FBF6D0" transform="translate(256,210)"/>
<path d="M0 0 C0.66 0.33 1.32 0.66 2 1 C2.02689216 2.47906892 2.04634621 3.95827483 2.0625 5.4375 C2.07410156 6.26121094 2.08570313 7.08492187 2.09765625 7.93359375 C2 10 2 10 1 11 C0.85469013 12.69428307 0.77283477 14.39410742 0.71875 16.09375 C0.68136719 17.12371094 0.64398438 18.15367187 0.60546875 19.21484375 C0.57066406 20.29894531 0.53585937 21.38304687 0.5 22.5 C0.43143859 24.63556094 0.35874988 26.77099476 0.28125 28.90625 C0.23581055 30.33420898 0.23581055 30.33420898 0.18945312 31.79101562 C0 34 0 34 -1 35 C-1.19246828 37.4623719 -1.33021492 39.90853514 -1.4375 42.375 C-1.7827512 49.0381328 -2.27409244 55.67327669 -2.9375 62.3125 C-3.01218506 63.11800293 -3.08687012 63.92350586 -3.16381836 64.75341797 C-3.56465006 68.61403859 -4.1370025 71.60710498 -6 75 C-5.46359058 60.65016576 -4.55717813 46.37345861 -3.27050781 32.0715332 C-2.99548853 29.01231598 -2.7277157 25.95252408 -2.4609375 22.89257812 C-2.28686919 20.91923455 -2.1124053 18.94592582 -1.9375 16.97265625 C-1.85830322 16.0716066 -1.77910645 15.17055695 -1.69750977 14.24220276 C-1.26591324 9.46743975 -0.72715765 4.73899259 0 0 Z " fill="#FBF5CF" transform="translate(263,131)"/>
<path d="M0 0 C0.99 0.495 0.99 0.495 2 1 C1.67 9.58 1.34 18.16 1 27 C3.02125 26.401875 5.0425 25.80375 7.125 25.1875 C13.31866261 23.38309332 19.54798772 22.01237847 25.87109375 20.7265625 C28.54158025 20.10644953 30.91146363 19.35406413 33.4375 18.3125 C37.38441868 16.85837207 39.86430508 16.74151907 44 17 C41.73755275 19.26244725 40.69633905 19.48704317 37.640625 20.18359375 C36.77179688 20.38919922 35.90296875 20.59480469 35.0078125 20.80664062 C33.18496797 21.22362277 31.3620525 21.64029493 29.5390625 22.05664062 C25.72253371 22.96011093 22.39411383 23.79948595 18.8828125 25.5859375 C15.1527087 27.41560901 11.71907878 27.78316219 7.625 28.1875 C5.10875 28.455625 2.5925 28.72375 0 29 C0 19.43 0 9.86 0 0 Z " fill="#FCF2B4" transform="translate(156,306)"/>
<path d="M0 0 C0.33 0 0.66 0 1 0 C1.65594586 7.55413406 2.30817201 15.10858164 2.95575714 22.66343689 C3.25662765 26.17210468 3.55873932 29.68065604 3.86376953 33.18896484 C4.2150459 37.22982369 4.56077575 41.27114093 4.90625 45.3125 C5.0156189 46.5617627 5.12498779 47.81102539 5.2376709 49.09814453 C5.74570917 55.0899295 6.13072578 60.98661405 6 67 C5.67 65.68 5.34 64.36 5 63 C4.34 63 3.68 63 3 63 C2.97494385 62.31897217 2.9498877 61.63794434 2.92407227 60.9362793 C2.80809048 57.85316245 2.68537384 54.77034954 2.5625 51.6875 C2.52318359 50.61564453 2.48386719 49.54378906 2.44335938 48.43945312 C2.40146484 47.41142578 2.35957031 46.38339844 2.31640625 45.32421875 C2.26141968 43.9024231 2.26141968 43.9024231 2.20532227 42.4519043 C2.08569813 39.863829 2.08569813 39.863829 1 37 C0.7629696 34.14100371 0.5762389 31.30144704 0.4375 28.4375 C0.3950415 27.60500732 0.35258301 26.77251465 0.30883789 25.91479492 C-0.09520347 17.27546389 -0.09297127 8.64632784 0 0 Z " fill="#FAF3C7" transform="translate(50,261)"/>
<path d="M0 0 C0.33 0 0.66 0 1 0 C1.71711585 7.82832255 2.42859994 15.65714251 3.13623047 23.48632812 C3.37705519 26.1479472 3.61995431 28.80935364 3.86376953 31.47070312 C4.21464177 35.30308724 4.56088305 39.13586632 4.90625 42.96875 C5.0156189 44.15239136 5.12498779 45.33603271 5.2376709 46.55554199 C5.75959729 52.39796707 6.12587268 58.13433325 6 64 C5.67 64 5.34 64 5 64 C3.18822002 58.39788534 2.42044646 53.04596389 1.9375 47.1875 C1.85516113 46.22642334 1.77282227 45.26534668 1.68798828 44.27514648 C0.5325965 29.5513369 0.32165787 14.76095805 0 0 Z " fill="#FDF7D2" transform="translate(42,174)"/>
<path d="M0 0 C0.66 0 1.32 0 2 0 C2.06058594 1.20398438 2.12117188 2.40796875 2.18359375 3.6484375 C2.26799732 5.22397077 2.35264541 6.79949096 2.4375 8.375 C2.47681641 9.1690625 2.51613281 9.963125 2.55664062 10.78125 C2.68893404 15.02601221 2.68893404 15.02601221 4 19 C4.15112416 20.33154577 4.24878842 21.66942523 4.31640625 23.0078125 C4.35838135 23.82282227 4.40035645 24.63783203 4.44360352 25.47753906 C4.50245728 26.78803223 4.50245728 26.78803223 4.5625 28.125 C4.6049585 29.01413086 4.64741699 29.90326172 4.69116211 30.81933594 C5.04890914 38.88412002 5.10145689 46.92854054 5 55 C4.67 55 4.34 55 4 55 C3.42621678 48.2925826 2.85704116 41.58478546 2.29101562 34.87670898 C2.09805812 32.59634621 1.90405921 30.3160713 1.70898438 28.03588867 C1.42822596 24.75201795 1.15125591 21.46784594 0.875 18.18359375 C0.78750488 17.16978134 0.70000977 16.15596893 0.60986328 15.11143494 C0.18810128 10.05307542 -0.09910165 5.07586279 0 0 Z " fill="#D7BE56" transform="translate(51,265)"/>
<path d="M0 0 C0.33 0 0.66 0 1 0 C0.73711432 4.98066955 0.47046084 9.96111845 0.20043945 14.94140625 C0.10925493 16.63275807 0.01906822 18.32416401 -0.07006836 20.015625 C-0.1989811 22.45848548 -0.33157977 24.90112347 -0.46484375 27.34375 C-0.50343002 28.08991577 -0.5420163 28.83608154 -0.58177185 29.6048584 C-0.85016196 34.44095264 -1.35250828 39.19954858 -2 44 C-2.99 43.67 -3.98 43.34 -5 43 C-4.34 43 -3.68 43 -3 43 C-3.00523682 42.25314941 -3.01047363 41.50629883 -3.01586914 40.73681641 C-3.03660401 37.36621943 -3.04964899 33.99563586 -3.0625 30.625 C-3.07087891 29.449375 -3.07925781 28.27375 -3.08789062 27.0625 C-3.09111328 25.94101562 -3.09433594 24.81953125 -3.09765625 23.6640625 C-3.10289307 22.62717285 -3.10812988 21.5902832 -3.11352539 20.52197266 C-3 18 -3 18 -2 16 C-1.79439193 13.66977522 -1.63400048 11.33543702 -1.5 9 C-1.11111111 2.22222222 -1.11111111 2.22222222 0 0 Z " fill="#FEFACF" transform="translate(210,278)"/>
<path d="M0 0 C2.58723206 2.58723206 2.2864442 3.73858058 2.37890625 7.33984375 C2.41306641 8.40267578 2.44722656 9.46550781 2.48242188 10.56054688 C2.50884766 11.67494141 2.53527344 12.78933594 2.5625 13.9375 C2.62242224 16.13422385 2.68605576 18.33085049 2.75390625 20.52734375 C2.77783447 21.50437256 2.8017627 22.48140137 2.82641602 23.48803711 C2.903626 26.12766901 2.903626 26.12766901 4 29 C4.08178114 30.70016844 4.10749501 32.40336297 4.09765625 34.10546875 C4.09443359 35.08837891 4.09121094 36.07128906 4.08789062 37.08398438 C4.07951172 38.10814453 4.07113281 39.13230469 4.0625 40.1875 C4.05798828 41.22326172 4.05347656 42.25902344 4.04882812 43.32617188 C4.0370401 45.88417266 4.02058515 48.44205733 4 51 C3.67 51 3.34 51 3 51 C0.75001457 34.04865345 0.38899596 17.07312738 0 0 Z " fill="#D7BC49" transform="translate(47,210)"/>
<path d="M0 0 C2.31309705 0.11341637 4.62550185 0.24103807 6.9375 0.375 C8.86916016 0.47941406 8.86916016 0.47941406 10.83984375 0.5859375 C12.40412109 0.79089844 12.40412109 0.79089844 14 1 C14.33 1.66 14.66 2.32 15 3 C19.95 3 24.9 3 30 3 C30 2.34 30 1.68 30 1 C33.3 0.67 36.6 0.34 40 0 C35.64143697 4.35856303 26.17883715 5.88095894 20.18359375 6.10546875 C16.15734703 5.70352534 12.69314012 4.56958455 9 3 C6.01592229 2.25524716 3.01284025 1.61700868 0 1 C0 0.67 0 0.34 0 0 Z " fill="#D9C15B" transform="translate(130,380)"/>
<path d="M0 0 C0.99 0.495 0.99 0.495 2 1 C1.67 9.58 1.34 18.16 1 27 C6.28 25.68 11.56 24.36 17 23 C14.36358432 26.95462352 12.57409282 26.96714033 8 28 C4.04 28.495 4.04 28.495 0 29 C0 19.43 0 9.86 0 0 Z " fill="#FEF9C4" transform="translate(156,306)"/>
<path d="M0 0 C1.5509962 2.77620176 2.26171647 4.86551801 2.37890625 8.0390625 C2.41306641 8.78414062 2.44722656 9.52921875 2.48242188 10.296875 C2.50884766 11.06515625 2.53527344 11.8334375 2.5625 12.625 C2.54282656 17.97600221 2.54282656 17.97600221 4 23 C4.07033769 24.87379605 4.0843022 26.75001102 4.0625 28.625 C4.05347656 29.62789062 4.04445313 30.63078125 4.03515625 31.6640625 C4.02355469 32.43492187 4.01195312 33.20578125 4 34 C3.34 34 2.68 34 2 34 C1.65955588 30.20893744 1.32897241 26.41707386 1 22.625 C0.90460937 21.56410156 0.80921875 20.50320312 0.7109375 19.41015625 C0.15350208 12.92001533 -0.13132994 6.51360014 0 0 Z " fill="#D6BC52" transform="translate(41,150)"/>
<path d="M0 0 C-2.89349799 2.89349799 -6.37105953 3.16553886 -10.25 4 C-15.28232781 5.10486786 -20.10904157 6.36000504 -25 8 C-27.875 8.125 -27.875 8.125 -30 8 C-30 7.34 -30 6.68 -30 6 C-28.02 6 -26.04 6 -24 6 C-24 5.34 -24 4.68 -24 4 C-23.443125 3.96261719 -22.88625 3.92523438 -22.3125 3.88671875 C-18.22778906 3.53482642 -14.67558146 3.01734955 -10.875 1.4375 C-7.06376081 -0.13903669 -4.09908631 -0.25619289 0 0 Z " fill="#DBC35E" transform="translate(240,361)"/>
<path d="M0 0 C0.33 0 0.66 0 1 0 C1.0292067 3.54164915 1.04686814 7.08326697 1.0625 10.625 C1.07087891 11.62402344 1.07925781 12.62304688 1.08789062 13.65234375 C1.1041087 18.55020275 1.04318537 23.18656199 0 28 C-0.66 28 -1.32 28 -2 28 C-2.32417212 18.49095101 -1.33418593 9.38695104 0 0 Z " fill="#F8DD68" transform="translate(220,178)"/>
<path d="M0 0 C3.55020831 0.43471938 6.7504272 0.91015379 10.125 2.125 C15.8256505 3.41224366 21.23239289 2.64180891 27 2 C22.86119337 5.71707989 19.54292217 5.36310261 14.1953125 5.23828125 C9.69252788 4.90249902 5.37780738 4.08476643 1 3 C0.67 2.01 0.34 1.02 0 0 Z " fill="#FDF7D6" transform="translate(134,382)"/>
<path d="M0 0 C-5.84560277 2.63463787 -10.54487966 4.56131481 -17 4 C-17 4.66 -17 5.32 -17 6 C-19.64 6 -22.28 6 -25 6 C-21.06115169 3.76868434 -16.81316665 2.59766256 -12.5 1.3125 C-11.74074219 1.07466797 -10.98148438 0.83683594 -10.19921875 0.59179688 C-9.09513672 0.26211914 -9.09513672 0.26211914 -7.96875 -0.07421875 C-7.30294922 -0.27619873 -6.63714844 -0.47817871 -5.95117188 -0.6862793 C-3.69207946 -1.04950925 -2.16286448 -0.68870476 0 0 Z " fill="#FBF5CD" transform="translate(225,367)"/>
<path d="M0 0 C1.81293089 0.14037521 3.6253443 0.28744889 5.4375 0.4375 C6.95150391 0.55931641 6.95150391 0.55931641 8.49609375 0.68359375 C11 1 11 1 12 2 C13.34747084 2.23075082 14.70377565 2.41153063 16.0625 2.5625 C17.361875 2.706875 18.66125 2.85125 20 3 C20.33 3.99 20.66 4.98 21 6 C13.64987044 5.42351925 6.98575424 3.28953836 0 1 C0 0.67 0 0.34 0 0 Z " fill="#FAF4CF" transform="translate(111,326)"/>
<path d="M0 0 C1.74822266 3.49644532 2.25855926 4.69971599 2.4140625 8.328125 C2.45273437 9.12734375 2.49140625 9.9265625 2.53125 10.75 C2.5621875 11.575 2.593125 12.4 2.625 13.25 C2.66367187 14.09046875 2.70234375 14.9309375 2.7421875 15.796875 C2.83615836 17.86423382 2.91915564 19.93208627 3 22 C2.67 20.68 2.34 19.36 2 18 C1.34 18 0.68 18 0 18 C0 12.06 0 6.12 0 0 Z " fill="#FDF9DA" transform="translate(53,306)"/>
<path d="M0 0 C-4.7070437 3.57086073 -10.22581643 4.48367956 -16 5 C-18.33984375 4.546875 -18.33984375 4.546875 -20 4 C-17.42032203 3.13310822 -14.83723873 2.28126211 -12.25 1.4375 C-11.52039063 1.19064453 -10.79078125 0.94378906 -10.0390625 0.68945312 C-9.33007812 0.46064453 -8.62109375 0.23183594 -7.890625 -0.00390625 C-6.91657715 -0.32597046 -6.91657715 -0.32597046 -5.92285156 -0.65454102 C-3.66555462 -1.06008636 -2.16526518 -0.69296911 0 0 Z " fill="#FAF4CC" transform="translate(188,377)"/>
<path d="M0 0 C2.60607392 0.61778047 5.20965697 1.24387211 7.8125 1.875 C8.55048828 2.04902344 9.28847656 2.22304688 10.04882812 2.40234375 C13.49717037 3.24492511 16.01928362 4.01285575 19 6 C15.37 5.67 11.74 5.34 8 5 C8 4.34 8 3.68 8 3 C5.69 3 3.38 3 1 3 C0.67 2.01 0.34 1.02 0 0 Z " fill="#FCF9D5" transform="translate(107,374)"/>
<path d="M0 0 C5.23880078 0.55145271 9.97350697 1.42922093 15 3 C15 3.33 15 3.66 15 4 C13.24929483 3.88529863 11.49942464 3.75780972 9.75 3.625 C8.77546875 3.55539062 7.8009375 3.48578125 6.796875 3.4140625 C4.10366811 3.01534751 2.33036721 2.36492937 0 1 C0 0.67 0 0.34 0 0 Z " fill="#F8F0C6" transform="translate(91,370)"/>
<path d="M0 0 C-2.77579761 2.77579761 -5.30306937 2.86061387 -9.125 3.625 C-10.40632812 3.88539063 -11.68765625 4.14578125 -13.0078125 4.4140625 C-13.99523437 4.60742188 -14.98265625 4.80078125 -16 5 C-12.30638378 -0.54042434 -6.22026554 -0.25388839 0 0 Z " fill="#FEF8C8" transform="translate(200,323)"/>
<path d="M0 0 C0.33 0 0.66 0 1 0 C1 3.63 1 7.26 1 11 C-1.31 11 -3.62 11 -6 11 C-3 9 -3 9 -1 9 C-0.67 6.03 -0.34 3.06 0 0 Z " fill="#D2B948" transform="translate(242,350)"/>
<path d="M0 0 C-3.57469625 3.57469625 -8.02894421 3.96917283 -12.9375 4.125 C-13.948125 4.08375 -14.95875 4.0425 -16 4 C-16 3.67 -16 3.34 -16 3 C-13.71068726 2.30364247 -11.4191243 1.61765623 -9.125 0.9375 C-8.47402344 0.73833984 -7.82304687 0.53917969 -7.15234375 0.33398438 C-2.2265625 -1.11328125 -2.2265625 -1.11328125 0 0 Z " fill="#FEFBE0" transform="translate(173,330)"/>
<path d="M0 0 C0 0.66 0 1.32 0 2 C-3.21451269 3.60725635 -6.43612536 3.05748185 -10 3 C-6.88378718 -0.11621282 -4.21175599 -0.11383124 0 0 Z " fill="#F7DB5C" transform="translate(208,322)"/>
<path d="M0 0 C5.95703125 -0.390625 5.95703125 -0.390625 8 0 C8.99 1.32 9.98 2.64 11 4 C7.37 3.01 3.74 2.02 0 1 C0 0.67 0 0.34 0 0 Z " fill="#D8C35C" transform="translate(63,361)"/>
<path d="M0 0 C0.33 0 0.66 0 1 0 C1 1.98 1 3.96 1 6 C-0.98 6.66 -2.96 7.32 -5 8 C-4.67 7.34 -4.34 6.68 -4 6 C-3.34 6 -2.68 6 -2 6 C-1.855625 5.195625 -1.71125 4.39125 -1.5625 3.5625 C-1 1 -1 1 0 0 Z " fill="#FEFCE5" transform="translate(206,315)"/>
<path d="M0 0 C-3.44450737 2.29633824 -5.93812283 2.54016485 -10 3 C-7.29536552 -0.8183075 -4.37912428 -0.24787496 0 0 Z " fill="#D8C157" transform="translate(181,377)"/>
<path d="M0 0 C7.50769231 -0.36923077 7.50769231 -0.36923077 10 1.5 C10.495 2.2425 10.495 2.2425 11 3 C9.741875 2.87625 8.48375 2.7525 7.1875 2.625 C6.12595703 2.52058594 6.12595703 2.52058594 5.04296875 2.4140625 C3 2 3 2 0 0 Z " fill="#DCC665" transform="translate(76,365)"/>
</svg>
