<?xml version="1.0" encoding="UTF-8"?>
<svg version="1.1" xmlns="http://www.w3.org/2000/svg" width="256" height="256">
<path d="M0 0 C0.85084712 -0.00445784 1.70169425 -0.00891569 2.57832462 -0.01350862 C3.98855727 -0.01323207 3.98855727 -0.01323207 5.42727947 -0.01294994 C6.42184727 -0.01662663 7.41641507 -0.02030332 8.44112128 -0.02409142 C11.795211 -0.03516114 15.14926977 -0.03897765 18.50337505 -0.04278088 C20.8994688 -0.04904298 23.29556156 -0.05568955 25.69165325 -0.0626936 C32.89742825 -0.08194473 40.1032007 -0.09252492 47.30899361 -0.10142139 C50.70089801 -0.10580294 54.09280085 -0.11117008 57.48470402 -0.11641026 C68.75759367 -0.13342292 80.03048235 -0.14791777 91.30338287 -0.155159 C94.22942195 -0.15706894 97.15546101 -0.15898927 100.08150005 -0.16094494 C100.8087675 -0.16142868 101.53603495 -0.16191242 102.28534081 -0.16241082 C114.07036213 -0.17071366 125.85528204 -0.19605464 137.64025906 -0.22852562 C149.7348713 -0.26157854 161.82943196 -0.27960613 173.92408961 -0.28280324 C180.71675955 -0.28496994 187.50928157 -0.29374181 194.30190754 -0.31926441 C200.69009979 -0.34321173 207.07809786 -0.34680819 213.46632862 -0.33650303 C215.81373511 -0.33600577 218.16115439 -0.3423818 220.50852108 -0.35605907 C223.70808214 -0.37366182 226.90667409 -0.36672868 230.10623455 -0.35352612 C231.03969749 -0.36449536 231.97316043 -0.37546461 232.93491012 -0.38676625 C237.14441145 -0.34469973 239.36712757 -0.23406145 243.01041985 2.03970528 C246.47745424 5.76978089 246.10795529 8.99914811 246.11113262 13.85793018 C246.11551488 14.66465457 246.11989713 15.47137896 246.12441218 16.30254954 C246.13782667 19.0209378 246.14398495 21.73929362 246.15010357 24.45770741 C246.15800238 26.40060543 246.16627119 28.34350199 246.17488384 30.28639698 C246.20112715 36.67966779 246.2164127 43.07294524 246.23066998 49.46625233 C246.2360285 51.66460837 246.24140601 53.86296436 246.24680233 56.0613203 C246.26843347 65.20334302 246.28717163 74.34536394 246.29842472 83.48740578 C246.31467325 96.60279146 246.3478704 109.71788131 246.40482557 122.83315545 C246.44348116 132.04763512 246.46305216 141.26203551 246.46834528 150.47659415 C246.47200444 155.98383326 246.48408579 161.49075702 246.51644802 166.99790859 C246.54645185 172.17801333 246.55286792 177.35761061 246.54106426 182.53778362 C246.54084289 184.4401345 246.54920034 186.3425084 246.5667181 188.24477863 C246.58932113 190.8403214 246.58115701 193.43401023 246.56523418 196.02956104 C246.57911627 196.78404036 246.59299836 197.53851967 246.60730112 198.315862 C246.54712556 202.2913535 246.09930097 203.96088685 243.54423237 207.07826233 C240.09786973 209.81717988 238.59018381 210.25505034 234.28316021 210.19672108 C233.3113229 210.18761707 232.33948559 210.17851307 231.33819866 210.16913319 C230.28306576 210.15761219 229.22793285 210.14609119 228.14082623 210.13422108 C225.90970635 210.13306205 223.67858399 210.13444642 221.44746685 210.13812733 C217.92685541 210.14253636 214.40889842 210.13442822 210.88862896 210.08295155 C207.49220522 210.03747762 204.099901 210.04967526 200.70332623 210.07172108 C199.14188129 210.03014881 199.14188129 210.03014881 197.54889202 209.9877367 C191.38487249 210.08766862 188.34869183 211.10438146 183.93648052 215.5243578 C182.60433016 217.05601025 181.2773406 218.5921775 179.95723248 220.13422108 C159.24018411 238.48073002 132.90509295 243.6832471 105.95723248 242.13422108 C82.58432584 239.59823456 63.28978549 227.4667741 46.95723248 211.13422108 C45.42382799 211.03243571 43.88584479 210.99853617 42.34907818 210.99237537 C40.8766843 210.98182369 40.8766843 210.98182369 39.3745451 210.97105885 C38.30483974 210.96689457 37.23513439 210.96273029 36.13301373 210.95843983 C33.88495756 210.93523434 31.63691066 210.91111671 29.3888731 210.8861742 C25.83160053 210.85108971 22.27466655 210.82173973 18.71724224 210.80829334 C15.2929106 210.79280294 11.86958043 210.75257366 8.44551373 210.70843983 C7.38592953 210.71034824 6.32634533 210.71225666 5.23465252 210.71422291 C-0.80424046 210.61437197 -4.46522682 210.21315639 -9.04276752 206.13422108 C-10.58581792 203.04812029 -10.19075894 199.797649 -10.18993855 196.41051197 C-10.19361523 195.60378758 -10.19729192 194.79706319 -10.20108002 193.96589261 C-10.21214252 191.24750032 -10.21596503 188.52914621 -10.21976948 185.81073475 C-10.22603214 183.86783698 -10.23267877 181.92494041 -10.2396822 179.98204517 C-10.25710913 174.69274455 -10.26764836 169.40345297 -10.27588773 164.11413074 C-10.28103381 160.81179283 -10.28710969 157.50945776 -10.29339886 154.20712185 C-10.31245481 143.88133289 -10.32668564 133.55555112 -10.33501083 123.22974795 C-10.34478871 111.29817735 -10.37112098 99.366792 -10.41151172 87.4352867 C-10.44163771 78.2208055 -10.45647632 69.00637751 -10.45979184 59.791848 C-10.46214616 54.28465969 -10.47115627 48.77766919 -10.49625301 43.27053356 C-10.51947751 38.09047844 -10.52378963 32.91075216 -10.51349163 27.73065853 C-10.5129948 25.82831576 -10.5193583 23.9259571 -10.53304768 22.02366352 C-10.55068084 19.42833894 -10.54370322 16.83420551 -10.53051472 14.23888111 C-10.54696859 13.10716214 -10.54696859 13.10716214 -10.56375486 11.95258015 C-10.50374285 7.06795631 -9.53036699 4.5576188 -6.04276752 1.13422108 C-3.76875544 -0.00278496 -2.52534782 0.0061224 0 0 Z " fill="#E7ECF1" transform="translate(10.042767524719238,6.865778923034668)"/>
<path d="M0 0 C0.82959229 0.00563965 1.65918457 0.0112793 2.51391602 0.01708984 C18.35204794 0.32833633 32.16427991 6.43270845 43.6875 17.3125 C54.97748413 29.07375389 61.10692464 43.38247905 61 59.625 C60.99806641 60.8617749 60.99806641 60.8617749 60.99609375 62.12353516 C60.90460055 67.97338133 60.10845876 73.2626032 58.34375 78.8671875 C57.63401303 81.51180263 57.38388928 83.58920386 57.6875 86.3125 C61.35668762 89.28279474 65.43645982 91.28819515 69.6875 93.3125 C65.22898508 108.50694139 51.19855845 120.92697163 37.6875 128.3125 C36.86121094 128.77269531 36.03492188 129.23289063 35.18359375 129.70703125 C17.48791805 138.64942615 -4.44230955 140.1197378 -23.3125 134.3125 C-33.42032163 130.63590637 -42.43191531 125.69035773 -50.3125 118.3125 C-51.16328125 117.54035156 -52.0140625 116.76820313 -52.890625 115.97265625 C-61.18415361 108.11366881 -67.37480096 99.05454299 -71.3125 88.3125 C-71.75851563 87.12398438 -72.20453125 85.93546875 -72.6640625 84.7109375 C-79.2422617 65.84674934 -77.92909009 46.02118039 -69.52441406 27.96484375 C-65.40427147 19.55959576 -60.89551739 11.99976305 -53.3125 6.3125 C-50.0125 9.6125 -46.7125 12.9125 -43.3125 16.3125 C-39.17676108 14.65820443 -37.37190497 13.73035483 -34.1875 11 C-24.11187423 2.96627845 -12.70851096 -0.09143753 0 0 Z " fill="#E7ECF1" transform="translate(127.3125,94.6875)"/>
<path d="M0 0 C0.69360626 0.00331329 1.38721252 0.00662659 2.10183716 0.01004028 C14.25237874 0.11019312 25.12634502 1.69871289 36.3125 6.625 C37.06015625 6.95177734 37.8078125 7.27855469 38.578125 7.61523438 C49.12629492 12.38919059 58.00812509 18.5888725 66.3125 26.625 C67.20582031 27.48867187 68.09914062 28.35234375 69.01953125 29.2421875 C86.32415867 47.15819193 94.88510869 71.28178649 94.734375 95.99975586 C94.14842152 116.23249808 86.83628033 134.24375319 75.3125 150.625 C74.73628906 151.45773438 74.16007813 152.29046875 73.56640625 153.1484375 C59.81354824 171.94730816 37.70369323 183.74534052 14.91113281 187.31152344 C-11.2804962 190.47105478 -36.6494435 184.81253597 -57.6875 168.625 C-75.14629346 154.80251411 -89.62212307 132.27632654 -92.5 109.85693359 C-94.22382737 89.33710316 -93.47622993 70.05726025 -83.6875 51.625 C-82.91599609 50.16320312 -82.91599609 50.16320312 -82.12890625 48.671875 C-70.06788265 26.94531978 -50.90777247 11.34121226 -27.31079102 3.50341797 C-18.14872361 0.89862126 -9.56864528 -0.10409961 0 0 Z M-41.6875 49.625 C-45.13951639 48.14778578 -47.33711936 46.18705999 -49.9375 43.5 C-50.64390625 42.77554688 -51.3503125 42.05109375 -52.078125 41.3046875 C-52.87476563 40.47324219 -52.87476563 40.47324219 -53.6875 39.625 C-66.61485217 49.05119429 -73.44897978 65.9297863 -76.33740234 81.27978516 C-78.44789656 95.41744724 -76.67117147 108.34481186 -71.6875 121.625 C-71.36523438 122.50414062 -71.04296875 123.38328125 -70.7109375 124.2890625 C-69.81762415 126.48739014 -68.81669279 128.53853305 -67.6875 130.625 C-67.02041016 131.87410156 -67.02041016 131.87410156 -66.33984375 133.1484375 C-59.3383731 145.15587365 -48.93631008 155.09801169 -36.6875 161.625 C-35.19669922 162.43904297 -35.19669922 162.43904297 -33.67578125 163.26953125 C-15.7149419 172.34936517 4.94160299 172.93945827 24.08544922 167.36572266 C34.0841486 164.04013025 43.52622123 158.72209779 51.3125 151.625 C52.13105469 150.89796875 52.94960937 150.1709375 53.79296875 149.421875 C60.23865792 143.37599408 65.55837099 136.66312007 69.3125 128.625 C68.62596442 125.48138707 68.62596442 125.48138707 66.0625 124.2734375 C65.155 123.85320312 64.2475 123.43296875 63.3125 123 C58.37132353 120.68382353 58.37132353 120.68382353 57.3125 119.625 C57.68583732 115.44362199 58.3176923 111.49797594 59.3359375 107.4296875 C60.40579586 102.66845057 60.65985769 98.11862295 60.625 93.25 C60.61654053 92.00174438 60.61654053 92.00174438 60.60791016 90.72827148 C60.29475318 74.81772662 53.38223871 60.96680602 42.3125 49.625 C30.10464111 38.76794154 16.22204838 33.19590816 -0.0625 33.3125 C-0.89467041 33.31813965 -1.72684082 33.3237793 -2.58422852 33.32958984 C-17.6865773 33.62683962 -30.29029401 39.89708176 -41.6875 49.625 Z " fill="#7B6E7A" transform="translate(127.6875,61.375)"/>
<path d="M0 0 C0.85084712 -0.00445784 1.70169425 -0.00891569 2.57832462 -0.01350862 C3.98855727 -0.01323207 3.98855727 -0.01323207 5.42727947 -0.01294994 C6.42184727 -0.01662663 7.41641507 -0.02030332 8.44112128 -0.02409142 C11.795211 -0.03516114 15.14926977 -0.03897765 18.50337505 -0.04278088 C20.8994688 -0.04904298 23.29556156 -0.05568955 25.69165325 -0.0626936 C32.89742825 -0.08194473 40.1032007 -0.09252492 47.30899361 -0.10142139 C50.70089801 -0.10580294 54.09280085 -0.11117008 57.48470402 -0.11641026 C68.75759367 -0.13342292 80.03048235 -0.14791777 91.30338287 -0.155159 C94.22942195 -0.15706894 97.15546101 -0.15898927 100.08150005 -0.16094494 C100.8087675 -0.16142868 101.53603495 -0.16191242 102.28534081 -0.16241082 C114.07036213 -0.17071366 125.85528204 -0.19605464 137.64025906 -0.22852562 C149.7348713 -0.26157854 161.82943196 -0.27960613 173.92408961 -0.28280324 C180.71675955 -0.28496994 187.50928157 -0.29374181 194.30190754 -0.31926441 C200.69009979 -0.34321173 207.07809786 -0.34680819 213.46632862 -0.33650303 C215.81373511 -0.33600577 218.16115439 -0.3423818 220.50852108 -0.35605907 C223.70808214 -0.37366182 226.90667409 -0.36672868 230.10623455 -0.35352612 C231.03969749 -0.36449536 231.97316043 -0.37546461 232.93491012 -0.38676625 C237.14441145 -0.34469973 239.36712757 -0.23406145 243.01041985 2.03970528 C251.33049343 10.99101642 245.95723248 17.89925264 245.95723248 34.13422108 C161.47723248 34.13422108 76.99723248 34.13422108 -10.04276752 34.13422108 C-10.04276752 6.13422108 -10.04276752 6.13422108 -6.04276752 1.13422108 C-3.76875544 -0.00278496 -2.52534782 0.0061224 0 0 Z " fill="#61B7FE" transform="translate(10.042767524719238,6.865778923034668)"/>
<path d="M0 0 C5.61 0 11.22 0 17 0 C17.1157059 22.0788376 17.20495296 44.15760227 17.25906086 66.23668194 C17.28485102 76.48821516 17.32001711 86.73955664 17.37719727 96.9909668 C17.42700732 105.92529753 17.45928511 114.85948942 17.47044247 123.79395515 C17.4769653 128.52549254 17.49231259 133.25663267 17.52865028 137.98804283 C17.56257191 142.44091536 17.57306077 146.89322674 17.56553841 151.3462162 C17.56691468 152.98089268 17.57687031 154.61558779 17.59602737 156.25015259 C17.62090754 158.4824148 17.61492618 160.71255877 17.60127258 162.94487 C17.60588155 164.19389949 17.61049051 165.44292898 17.61523914 166.72980785 C16.83207915 170.89255286 15.22774135 172.35341477 12 175 C9.703463 176.1482685 8.41686833 176.11561175 5.8671875 176.09765625 C5.06152344 176.09443359 4.25585938 176.09121094 3.42578125 176.08789062 C2.58402344 176.07951172 1.74226563 176.07113281 0.875 176.0625 C0.02550781 176.05798828 -0.82398438 176.05347656 -1.69921875 176.04882812 C-3.79950909 176.03702874 -5.8997633 176.01909306 -8 176 C-7.21625 175.401875 -6.4325 174.80375 -5.625 174.1875 C-2.83344123 171.86120102 -1.14419278 170.31336403 -0.73828697 166.61621571 C-0.72999084 165.19342824 -0.72999084 165.19342824 -0.7215271 163.74189758 C-0.71036362 162.65234772 -0.69920013 161.56279785 -0.68769836 160.44023132 C-0.68553818 159.24477188 -0.68337799 158.04931244 -0.68115234 156.81762695 C-0.66608391 154.92965393 -0.66608391 154.92965393 -0.65071106 153.00354004 C-0.62338225 149.55136142 -0.6082532 146.09922368 -0.59528303 142.64696527 C-0.57966504 139.03943197 -0.5528706 135.4319823 -0.5272522 131.82450867 C-0.48044076 124.9928999 -0.44370814 118.16127544 -0.41057932 111.32958812 C-0.37237461 103.55210585 -0.32296015 95.77470752 -0.27259517 87.99729598 C-0.16924016 71.99825796 -0.07999142 55.99917291 0 40 C-1.20398438 40.02320313 -2.40796875 40.04640625 -3.6484375 40.0703125 C-5.22395215 40.08906863 -6.79947348 40.10726899 -8.375 40.125 C-9.1690625 40.14175781 -9.963125 40.15851563 -10.78125 40.17578125 C-12.85492015 40.19335473 -14.92883241 40.10335168 -17 40 C-17.66 39.34 -18.32 38.68 -19 38 C-18.44444444 33.44444444 -18.44444444 33.44444444 -17 32 C-14.13732433 31.92674832 -11.299281 31.90761795 -8.4375 31.9375 C-7.63119141 31.94201172 -6.82488281 31.94652344 -5.99414062 31.95117188 C-3.99606244 31.96299482 -1.99802217 31.98093086 0 32 C0 29.69 0 27.38 0 25 C-1.43049683 25.02356567 -1.43049683 25.02356567 -2.88989258 25.04760742 C-6.42886913 25.10191678 -9.96780886 25.13635333 -13.50708008 25.16479492 C-15.03871861 25.17987936 -16.57031398 25.20034978 -18.10180664 25.22631836 C-20.30365654 25.26271847 -22.50493533 25.27972913 -24.70703125 25.29296875 C-25.39150833 25.30845261 -26.07598541 25.32393646 -26.78120422 25.33988953 C-29.68279123 25.34091614 -31.55789462 25.31220024 -33.9675293 23.6105957 C-35 22 -35 22 -34.8125 19.9375 C-34 18 -34 18 -32 16 C-29.56255103 15.82511746 -27.2406392 15.76822595 -24.8046875 15.8046875 C-24.09724396 15.8075174 -23.38980042 15.81034729 -22.66091919 15.81326294 C-20.3987749 15.82446863 -18.13702485 15.84957321 -15.875 15.875 C-14.34245363 15.88502933 -12.80990106 15.89415526 -11.27734375 15.90234375 C-7.51795465 15.9227088 -3.75941922 15.96185482 0 16 C0 10.72 0 5.44 0 0 Z " fill="#D9E6EB" transform="translate(239,41)"/>
<path d="M0 0 C1.00546875 0.32871094 2.0109375 0.65742187 3.046875 0.99609375 C23.91784692 8.21105892 38.809262 22.36122332 48.4921875 42.03125 C56.77041745 60.64502149 58.03179633 81.7860281 51 101 C50.03399279 103.35036401 49.02595772 105.67469182 48 108 C46.03925516 107.04661031 44.08147348 106.0871246 42.125 105.125 C41.03445312 104.59132813 39.94390625 104.05765625 38.8203125 103.5078125 C36 102 36 102 34 100 C34.29526027 95.79254119 35.01052649 91.89233137 36.02734375 87.80859375 C37.09317377 83.04661399 37.34735707 78.4935373 37.3125 73.625 C37.30686035 72.79282959 37.3012207 71.96065918 37.29541016 71.10327148 C36.98444409 55.30404023 30.15005481 41.16679663 19 30 C3.84401527 17.21089478 -12.71293192 13.87112326 -32 15 C-44.10220322 16.70616485 -54.83809745 23.17999227 -64 31 C-67.45201639 29.52278578 -69.64961936 27.56205999 -72.25 24.875 C-72.95640625 24.15054688 -73.6628125 23.42609375 -74.390625 22.6796875 C-74.92171875 22.12539062 -75.4528125 21.57109375 -76 21 C-71.79593277 11.71932329 -60.12274707 5.91096105 -50.97607422 2.17285156 C-35.03647924 -3.74876704 -16.24815858 -6.31021253 0 0 Z " fill="#FDD05C" transform="translate(150,81)"/>
<path d="M0 0 C16.77172146 12.84642495 25.97326288 34.04251127 29.609375 54.4140625 C32.4451208 80.4462089 25.97385296 103.71441713 11 125 C10.42378906 125.83273438 9.84757813 126.66546875 9.25390625 127.5234375 C-4.49895176 146.32230816 -26.60880677 158.12034052 -49.40136719 161.68652344 C-75.45981905 164.82998945 -101.11985307 159.2775339 -122 143 C-126.13522515 139.47686529 -130.09079488 135.77058082 -134 132 C-133.505 131.01 -133.505 131.01 -133 130 C-132.44054687 130.42410156 -131.88109375 130.84820312 -131.3046875 131.28515625 C-108.91490415 147.66353474 -83.85312915 152.91115616 -56.6796875 148.74609375 C-35.13190653 144.37706385 -16.21034417 132.79657119 -2 116 C-0.72184005 113.33854547 -0.72184005 113.33854547 0 111 C0.66 111 1.32 111 2 111 C2 110.34 2 109.68 2 109 C2.66 109 3.32 109 4 109 C4.26039063 108.14277344 4.52078125 107.28554687 4.7890625 106.40234375 C6.03601043 102.89882231 7.61058073 99.83322479 9.375 96.5625 C14.80954646 86.05335755 17.61036001 74.84166741 18 63 C18.03996094 61.98550781 18.07992187 60.97101563 18.12109375 59.92578125 C18.52826307 40.07028903 13.65386083 19.70130386 1.29296875 3.8046875 C0 2 0 2 0 0 Z " fill="#695F69" transform="translate(192,87)"/>
<path d="M0 0 C12.45107045 9.07890554 19.4009741 25.34402559 22.4921875 40.125 C24.72843865 57.18931644 22.93364652 72.28505903 16 88 C14.03925516 87.04661031 12.08147348 86.0871246 10.125 85.125 C9.03445312 84.59132813 7.94390625 84.05765625 6.8203125 83.5078125 C4 82 4 82 2 80 C2.29526027 75.79254119 3.01052649 71.89233137 4.02734375 67.80859375 C5.09317377 63.04661399 5.34735707 58.4935373 5.3125 53.625 C5.30686035 52.79282959 5.3012207 51.96065918 5.29541016 51.10327148 C4.99816038 36.0009227 -1.27208176 23.39720599 -11 12 C-7.49102731 7.81576108 -3.91939465 3.80411834 0 0 Z " fill="#FC77A8" transform="translate(182,101)"/>
<path d="M0 0 C4.52615993 3.67832017 8.39424999 7.41086363 12 12 C11.40832031 12.73863281 10.81664062 13.47726563 10.20703125 14.23828125 C0.84420458 26.25874551 -4.41408836 37.88059312 -4.3125 53.3125 C-4.31056641 54.5492749 -4.31056641 54.5492749 -4.30859375 55.81103516 C-4.21710055 61.66088133 -3.42095876 66.9501032 -1.65625 72.5546875 C-0.95081206 75.18328364 -0.74794398 77.29154348 -1 80 C-4.82890717 84.07593344 -9.92918418 85.8936513 -15 88 C-15.9829057 85.10538781 -16.96143701 82.20941921 -17.9375 79.3125 C-18.21529297 78.49587891 -18.49308594 77.67925781 -18.77929688 76.83789062 C-25.2052135 57.71498211 -23.00235425 37.54942547 -14.1875 19.5625 C-10.41536205 12.22155003 -5.92129377 5.77904047 0 0 Z " fill="#6DF3C1" transform="translate(73,101)"/>
<path d="M0 0 C0.83426514 -0.00630432 1.66853027 -0.01260864 2.52807617 -0.019104 C3.43017822 -0.01505554 4.33228027 -0.01100708 5.26171875 -0.00683594 C6.64870972 -0.00970612 6.64870972 -0.00970612 8.0637207 -0.01263428 C10.02067334 -0.0139966 11.97763499 -0.0102969 13.93457031 -0.00195312 C16.93705465 0.00874572 19.93894062 -0.00184685 22.94140625 -0.01464844 C24.83984508 -0.01332685 26.73828353 -0.01076448 28.63671875 -0.00683594 C29.5388208 -0.0108844 30.44092285 -0.01493286 31.37036133 -0.019104 C32.62175903 -0.00964752 32.62175903 -0.00964752 33.8984375 0 C34.63408936 0.00159119 35.36974121 0.00318237 36.12768555 0.00482178 C37.94921875 0.25878906 37.94921875 0.25878906 39.94921875 2.25878906 C40.21484375 5.22753906 40.21484375 5.22753906 40.19921875 8.75878906 C40.20695312 10.50675781 40.20695312 10.50675781 40.21484375 12.29003906 C39.94921875 15.25878906 39.94921875 15.25878906 37.94921875 17.25878906 C36.12768555 17.51275635 36.12768555 17.51275635 33.8984375 17.51757812 C33.06417236 17.52388245 32.22990723 17.53018677 31.37036133 17.53668213 C30.01720825 17.53060944 30.01720825 17.53060944 28.63671875 17.52441406 C27.24972778 17.52728424 27.24972778 17.52728424 25.8347168 17.5302124 C23.87776416 17.53157472 21.92080251 17.52787502 19.96386719 17.51953125 C16.96138285 17.50883241 13.95949688 17.51942497 10.95703125 17.53222656 C9.05859242 17.53090498 7.16015397 17.5283426 5.26171875 17.52441406 C4.3596167 17.52846252 3.45751465 17.53251099 2.52807617 17.53668213 C1.27667847 17.52722565 1.27667847 17.52722565 0 17.51757812 C-0.73565186 17.51598694 -1.47130371 17.51439575 -2.22924805 17.51275635 C-4.05078125 17.25878906 -4.05078125 17.25878906 -6.05078125 15.25878906 C-6.31640625 12.29003906 -6.31640625 12.29003906 -6.30078125 8.75878906 C-6.3059375 7.59347656 -6.31109375 6.42816406 -6.31640625 5.22753906 C-5.90505339 0.63006589 -4.23520292 0.00916058 0 0 Z " fill="#63B8FE" transform="translate(111.05078125,184.7412109375)"/>
<path d="M0 0 C2.89684158 -0.10829314 5.78961019 -0.18743954 8.6875 -0.25 C9.50412109 -0.28351562 10.32074219 -0.31703125 11.16210938 -0.3515625 C15.30292007 -0.41862016 17.4274885 -0.35846774 21.01953125 1.890625 C24.26580264 5.34819216 24.11943235 7.44147815 24.09765625 12.1015625 C24.09443359 13.31328125 24.09121094 14.525 24.08789062 15.7734375 C24.07951172 17.04445313 24.07113281 18.31546875 24.0625 19.625 C24.05798828 20.90375 24.05347656 22.1825 24.04882812 23.5 C24.03701213 26.66668645 24.01907621 29.83334896 24 33 C18.39 33 12.78 33 7 33 C6.99742187 31.10894531 6.99484375 29.21789062 6.9921875 27.26953125 C6.95466749 24.78383041 6.91552008 22.29815375 6.875 19.8125 C6.87757813 18.56662109 6.88015625 17.32074219 6.8828125 16.03710938 C6.9827329 9.69903954 6.9827329 9.69903954 4.60644531 4.05615234 C2.81606134 2.51933719 2.81606134 2.51933719 0 1 C0 0.67 0 0.34 0 0 Z " fill="#27A6FE" transform="translate(232,7)"/>
<path d="M0 0 C2.19189453 0.41577148 2.19189453 0.41577148 3.19189453 1.41577148 C3.60766602 3.60766602 3.60766602 3.60766602 3.19189453 6.41577148 C1.36603893 8.60544447 -0.38005011 10.42921954 -2.46044922 12.34545898 C-3.64085509 13.48210782 -4.82119146 14.61882882 -6.00146484 15.75561523 C-7.87152051 17.52626513 -9.74643808 19.29155292 -11.62426758 21.05395508 C-13.43652392 22.76334266 -15.22999094 24.49087458 -17.02294922 26.22045898 C-17.5865062 26.73736298 -18.15006317 27.25426697 -18.73069763 27.78683472 C-22.57117454 31.50488275 -23.42781751 34.15623566 -23.80810547 39.41577148 C-25.37060547 41.85327148 -25.37060547 41.85327148 -27.80810547 43.41577148 C-31.82414159 44.21568012 -34.77742671 44.03417874 -38.30810547 41.91577148 C-40.42651272 38.38509273 -40.6080141 35.4318076 -39.80810547 31.41577148 C-38.24560547 28.97827148 -38.24560547 28.97827148 -35.80810547 27.41577148 C-34.73061035 27.33786377 -33.65311523 27.25995605 -32.54296875 27.1796875 C-27.87198859 26.22430138 -25.71745029 24.01548229 -22.61279297 20.63061523 C-22.0574588 20.05493301 -21.50212463 19.47925079 -20.92996216 18.88612366 C-19.16585729 17.05563642 -17.4228235 15.20693117 -15.68310547 13.35327148 C-13.93535969 11.49704328 -12.18348771 9.64602885 -10.41482544 7.80970764 C-9.31713284 6.66975769 -8.23130275 5.51823521 -7.15914917 4.35423279 C-4.81450761 1.91655442 -3.40627879 0.50433775 0 0 Z " fill="#66B9FD" transform="translate(159.80810546875,119.584228515625)"/>
<path d="M0 0 C1.51815699 0.00015911 3.0363194 0.00585313 4.55444336 0.01586914 C5.35208603 0.01728409 6.1497287 0.01869904 6.97154236 0.02015686 C9.52916146 0.02577223 12.08669429 0.03832727 14.64428711 0.05102539 C16.37410356 0.05603841 18.10392137 0.06060166 19.83374023 0.06469727 C24.08312264 0.07574664 28.33244023 0.09302153 32.58178711 0.11352539 C33.20678711 2.48852539 33.20678711 2.48852539 33.58178711 5.11352539 C31.06473906 7.63057344 29.50505812 7.36022138 26.07019043 7.39141846 C24.94671204 7.38534576 24.94671204 7.38534576 23.80053711 7.37915039 C23.03124878 7.38106384 22.26196045 7.38297729 21.46936035 7.38494873 C19.84195631 7.38631047 18.21454141 7.38261478 16.5871582 7.37426758 C14.0916308 7.3635676 11.59682329 7.3741629 9.10131836 7.38696289 C7.52188968 7.38564129 5.94246145 7.3830789 4.36303711 7.37915039 C3.61405151 7.38319885 2.86506592 7.38724731 2.09338379 7.39141846 C-3.18829046 7.34344782 -3.18829046 7.34344782 -5.41821289 5.11352539 C-4.77500451 0.86835007 -4.45670752 0.14801578 0 0 Z " fill="#7B6E7A" transform="translate(209.418212890625,57.886474609375)"/>
<path d="M0 0 C5.10863896 -0.0246501 10.21724359 -0.04283607 15.32592773 -0.05493164 C17.06519168 -0.05997204 18.80445136 -0.0668043 20.54370117 -0.07543945 C23.03825937 -0.08751792 25.53276173 -0.09323108 28.02734375 -0.09765625 C28.80963852 -0.10281754 29.59193329 -0.10797882 30.39793396 -0.11329651 C32.26567114 -0.11349226 34.13329204 -0.06199694 36 0 C37 1 37 1 37.125 3.5 C37 6 37 6 36 7 C33.42980515 7.11332093 30.88748523 7.16417485 28.31640625 7.16796875 C27.16035133 7.17296135 27.16035133 7.17296135 25.98094177 7.17805481 C24.34757079 7.1831271 22.7141894 7.18546304 21.08081055 7.18530273 C18.57648701 7.1874878 16.07260479 7.20563595 13.56835938 7.22460938 C11.98437651 7.22754347 10.40039155 7.22952816 8.81640625 7.23046875 C8.0642836 7.23765427 7.31216095 7.24483978 6.5372467 7.25224304 C1.22882279 7.22882279 1.22882279 7.22882279 -1 5 C-0.625 2.375 -0.625 2.375 0 0 Z " fill="#7A6D79" transform="translate(14,58)"/>
<path d="M0 0 C2.9375 1.5 2.9375 1.5 5 4 C5.9352036 8.00332769 5.61385602 10.97690664 3.5 14.5 C-0.03588973 16.62153384 -2.97901723 16.791013 -7 16 C-9.5 14.5 -9.5 14.5 -11 12 C-11.79669284 7.95014472 -11.64099302 5.02558884 -9.4375 1.5 C-6.03618625 -0.59311615 -3.92927257 -0.55147685 0 0 Z " fill="#7B6F7B" transform="translate(131,147)"/>
<path d="M0 0 C0.88494141 -0.01224609 1.76988281 -0.02449219 2.68164062 -0.03710938 C3.52791016 -0.03904297 4.37417969 -0.04097656 5.24609375 -0.04296875 C6.02525146 -0.04707764 6.80440918 -0.05118652 7.60717773 -0.05541992 C9.5625 0.1875 9.5625 0.1875 11.5625 2.1875 C11.00694444 6.74305556 11.00694444 6.74305556 9.5625 8.1875 C6.4242655 8.43716567 3.27200387 8.37271791 0.125 8.375 C-0.75994141 8.38724609 -1.64488281 8.39949219 -2.55664062 8.41210938 C-3.40291016 8.41404297 -4.24917969 8.41597656 -5.12109375 8.41796875 C-5.90025146 8.42207764 -6.67940918 8.42618652 -7.48217773 8.43041992 C-9.4375 8.1875 -9.4375 8.1875 -11.4375 6.1875 C-10.50064873 -1.49468038 -6.73307155 0.00488258 0 0 Z " fill="#817682" transform="translate(231.4375,72.8125)"/>
<path d="M0 0 C0.88494141 -0.01224609 1.76988281 -0.02449219 2.68164062 -0.03710938 C3.52791016 -0.03904297 4.37417969 -0.04097656 5.24609375 -0.04296875 C6.02525146 -0.04707764 6.80440918 -0.05118652 7.60717773 -0.05541992 C9.5625 0.1875 9.5625 0.1875 11.5625 2.1875 C11.00694444 6.74305556 11.00694444 6.74305556 9.5625 8.1875 C6.4242655 8.43716567 3.27200387 8.37271791 0.125 8.375 C-0.75994141 8.38724609 -1.64488281 8.39949219 -2.55664062 8.41210938 C-3.40291016 8.41404297 -4.24917969 8.41597656 -5.12109375 8.41796875 C-5.90025146 8.42207764 -6.67940918 8.42618652 -7.48217773 8.43041992 C-9.4375 8.1875 -9.4375 8.1875 -11.4375 6.1875 C-10.50064873 -1.49468038 -6.73307155 0.00488258 0 0 Z " fill="#827682" transform="translate(24.4375,72.8125)"/>
<path d="M0 0 C0.495 0.99 0.495 0.99 1 2 C-8.12106534 12.71725177 -17.82516976 23.29828775 -31 29 C-31.66 28.67 -32.32 28.34 -33 28 C-30.63691786 25.33475326 -28.25480186 24.03755508 -25.0625 22.5 C-15.05922337 17.17375205 -7.0995321 8.72442501 0 0 Z " fill="#837783" transform="translate(191,199)"/>
<path d="M0 0 C2.625 0.375 2.625 0.375 5 1 C5.625 3.375 5.625 3.375 6 6 C5.34 6.66 4.68 7.32 4 8 C1.375 7.625 1.375 7.625 -1 7 C-1.625 4.625 -1.625 4.625 -2 2 C-1.34 1.34 -0.68 0.68 0 0 Z " fill="#E480B6" transform="translate(202,20)"/>
<path d="M0 0 C2.1875 0.3125 2.1875 0.3125 4 1 C4.625 3.375 4.625 3.375 5 6 C4.34 6.66 3.68 7.32 3 8 C1 7.875 1 7.875 -1 7 C-2.25 4.9375 -2.25 4.9375 -3 3 C-1.75 1.4375 -1.75 1.4375 0 0 Z " fill="#6AEEC8" transform="translate(234,20)"/>
<path d="M0 0 C2.125 0.375 2.125 0.375 4 1 C4.625 3.375 4.625 3.375 5 6 C4.34 6.66 3.68 7.32 3 8 C0.875 7.625 0.875 7.625 -1 7 C-1.625 4.625 -1.625 4.625 -2 2 C-1.34 1.34 -0.68 0.68 0 0 Z " fill="#F4CF65" transform="translate(218,20)"/>
</svg>
